<svg width="185" height="24" viewBox="0 0 185 24" fill="none" xmlns="http://www.w3.org/2000/svg">
<path d="M0.427734 22.9899H2.65087V0.602629H0.427734V0H11.0089C14.7232 0 18.7395 1.67484 18.7395 5.56453C18.7395 9.14899 15.126 10.6595 11.9385 10.9256V10.9921C16.4816 10.9921 20.0641 13.1365 20.0641 17.1593C20.0641 20.8455 16.8146 23.5925 10.6449 23.5925H0.427734V22.9899ZM7.82527 10.8591H9.61462C11.6054 10.8591 13.7627 9.55205 13.7627 6.13194C13.7627 2.24616 12.4032 0.602629 9.58364 0.602629H7.82527V10.8591ZM7.82527 22.9899H9.35126C12.7015 22.9899 14.4947 21.2798 14.4947 17.1945C14.4947 13.6413 12.8022 11.4617 9.85088 11.4617H7.82915V22.9899H7.82527Z" fill="#01519C"/>
<path d="M25.6712 15.4849V18.3024C25.6712 20.5799 26.0043 23.1939 29.0873 23.1939C31.6745 23.1939 33.5955 21.249 34.3275 18.1342H34.9239C34.1958 21.4525 32.1702 24 28.0919 24C23.847 24 20.6943 20.7482 20.6943 16.3928C20.6943 11.8692 24.0794 8.44906 27.9912 8.44906C31.4731 8.38253 34.7923 11.8692 34.8232 15.4889H25.6712V15.4849ZM29.8502 14.8823V11.9983C29.8502 10.1552 29.3506 9.04777 27.7588 9.04777C26.6317 9.04777 25.6673 9.75214 25.6673 11.9983V14.8823H29.8502Z" fill="#01519C"/>
<path d="M34.4922 22.9902H36.7812V9.45061H34.4922V8.84798H36.7812C38.1406 8.84798 40.5961 8.84798 41.2933 7.97534V11.3955H41.3591C41.9904 9.72062 43.6132 8.24535 45.7357 8.24535C47.2965 8.24535 48.3577 9.21582 48.3577 10.8241C48.3577 12.0959 47.4282 13.2699 45.8364 13.2699C44.5428 13.2699 43.5822 12.3972 43.5822 11.0902C43.5822 10.2528 43.8146 9.7167 44.3801 9.11408H44.2484C42.157 10.0532 41.363 11.8611 41.363 14.4438V22.9902H44.415V23.5928H34.4961V22.9902H34.4922Z" fill="#01519C"/>
<path d="M48.9902 22.9905H51.2792V9.45093H48.9902V8.8483H51.345C52.7045 8.8483 55.16 8.8483 55.8571 7.97566V22.9905H58.1461V23.5931H48.9902V22.9905ZM53.5682 0.133667C55.0593 0.133667 56.2522 1.33892 56.2522 2.84941C56.2522 4.35598 55.0593 5.56515 53.5682 5.56515C52.0732 5.56515 50.8803 4.35989 50.8803 2.84941C50.8803 1.34284 52.0732 0.133667 53.5682 0.133667Z" fill="#01519C"/>
<path d="M57.3486 9.45009V8.84746C60.6988 8.84746 63.0885 5.19256 63.0885 1.64331H63.685V8.84746H66.7369V9.45009H63.685V20.8452C63.685 21.9527 64.1149 22.5905 64.9786 22.5905C65.8074 22.5905 66.338 21.7844 66.7369 21.1818L67.1707 21.4166C66.1444 23.1579 64.7849 23.9953 62.7593 23.9953C61.8298 23.9953 59.1109 23.3575 59.1109 20.1761V9.45009H57.3486Z" fill="#01519C"/>
<path d="M81.4597 20.9117C81.4597 21.9526 81.6263 22.5865 82.2227 22.5865C83.0167 22.5865 83.3846 21.5809 83.3846 20.7082H83.9811C83.9811 22.6844 82.5868 23.9914 80.4334 23.9914C78.9384 23.9914 77.7145 23.287 77.118 21.8783C76.2543 23.4866 73.9653 23.9914 72.6717 23.9914C70.1155 23.9914 67.5283 22.8174 67.5283 19.9021C67.5283 16.4155 70.8127 15.6133 73.8298 15.3785L77.0793 15.1085V12.2949C77.0793 10.2835 76.7462 9.04306 74.2597 9.04306C73.1326 9.04306 71.2077 9.30915 71.2426 10.0487C71.2736 10.6201 72.9351 10.5183 72.9351 12.1266C72.9351 13.3006 72.1721 14.138 70.9134 14.138C69.4222 14.138 68.7561 13.1323 68.7561 11.9584C68.7561 10.084 71.1767 8.44043 74.496 8.44043C77.912 8.44043 81.4636 9.37959 81.4636 13.1988V20.9117H81.4597ZM77.0832 15.7189L74.4611 15.985C72.3038 16.2198 72.1063 17.3938 72.1063 19.1703C72.1063 20.9117 72.207 22.9896 74.4611 22.9896C76.0181 22.9896 77.0134 21.3813 77.0832 19.6047V15.7189Z" fill="#01519C"/>
<path d="M84.3623 22.9899H87.0502V0.602629H84.3623V0H94.9087V0.602629H92.2207V10.8591H100.846V0.602629H98.1581V0H108.704V0.602629H106.017V22.9899H108.704V23.5925H98.1581V22.9899H100.846V11.4617H92.2207V22.9899H94.9087V23.5925H84.3623V22.9899Z" fill="#01519C"/>
<path d="M122.709 20.9117C122.709 21.9526 122.875 22.5865 123.472 22.5865C124.266 22.5865 124.634 21.5809 124.634 20.7082H125.23C125.23 22.6844 123.836 23.9914 121.682 23.9914C120.191 23.9914 118.964 23.287 118.367 21.8783C117.503 23.4866 115.214 23.9914 113.921 23.9914C111.368 23.9914 108.781 22.8174 108.781 19.9021C108.781 16.4155 112.066 15.6133 115.083 15.3785L118.332 15.1085V12.2949C118.332 10.2835 117.999 9.04306 115.513 9.04306C114.386 9.04306 112.461 9.31307 112.496 10.0487C112.526 10.6201 114.188 10.5183 114.188 12.1266C114.188 13.3006 113.425 14.138 112.166 14.138C110.671 14.138 110.009 13.1323 110.009 11.9584C110.009 10.084 112.43 8.44043 115.749 8.44043C119.165 8.44043 122.717 9.37959 122.717 13.1988V20.9117H122.709ZM118.332 15.7189L115.714 15.985C113.557 16.2198 113.359 17.3938 113.359 19.1703C113.359 20.9117 113.456 22.9896 115.714 22.9896C117.271 22.9896 118.266 21.3813 118.332 19.6047V15.7189Z" fill="#01519C"/>
<path d="M125.096 22.9902H127.385V9.45061H125.096V8.84798H127.385C128.744 8.84798 131.2 8.84798 131.897 7.97534V11.3955H131.963C132.594 9.72062 134.217 8.24535 136.339 8.24535C137.9 8.24535 138.961 9.21582 138.961 10.8241C138.961 12.0998 138.032 13.2699 136.44 13.2699C135.146 13.2699 134.186 12.3972 134.186 11.0902C134.186 10.2528 134.418 9.7167 134.984 9.11408H134.848C132.76 10.0532 131.963 11.8611 131.963 14.4438V22.9902H135.015V23.5928H125.096V22.9902Z" fill="#01519C"/>
<path d="M139.59 22.9905H141.879V9.45093H139.59V8.8483H141.945C143.304 8.8483 145.76 8.8483 146.457 7.97566V22.9905H148.746V23.5931H139.59V22.9905ZM144.168 0.133667C145.659 0.133667 146.856 1.33892 146.856 2.84941C146.856 4.35598 145.663 5.56515 144.168 5.56515C142.677 5.56515 141.48 4.35989 141.48 2.84941C141.48 1.34284 142.673 0.133667 144.168 0.133667Z" fill="#01519C"/>
<path d="M162.976 20.9117C162.976 21.9526 163.143 22.5865 163.739 22.5865C164.533 22.5865 164.901 21.5809 164.901 20.7082H165.498C165.498 22.6844 164.103 23.9914 161.946 23.9914C160.455 23.9914 159.227 23.287 158.631 21.8783C157.767 23.4866 155.482 23.9914 154.188 23.9914C151.632 23.9914 149.045 22.8174 149.045 19.9021C149.045 16.4155 152.329 15.6133 155.346 15.3785L158.596 15.1085V12.2949C158.596 10.2835 158.263 9.04306 155.776 9.04306C154.649 9.04306 152.724 9.31307 152.759 10.0487C152.79 10.6201 154.452 10.5183 154.452 12.1266C154.452 13.3006 153.689 14.138 152.43 14.138C150.939 14.138 150.273 13.1323 150.273 11.9584C150.273 10.084 152.693 8.44043 156.013 8.44043C159.429 8.44043 162.976 9.37959 162.976 13.1988V20.9117ZM158.596 15.7189L155.974 15.985C153.817 16.2198 153.619 17.3938 153.619 19.1703C153.619 20.9117 153.72 22.9896 155.974 22.9896C157.535 22.9896 158.53 21.3813 158.596 19.6047V15.7189Z" fill="#01519C"/>
<path d="M165.361 22.9907H167.65V9.4511H165.361V8.84847H167.716C169.076 8.84847 171.531 8.84847 172.228 7.97583V11.5603H172.294C173.189 9.61545 175.381 8.44541 177.604 8.44541C180.753 8.44541 182.283 10.0224 182.283 13.6421V22.9907H184.572V23.5933H175.815V22.9907H177.705V12.4016C177.705 10.0537 176.709 9.65458 175.749 9.65458C173.89 9.65458 172.232 12.1003 172.232 13.8104V22.9946H174.188V23.5972H165.365V22.9907H165.361Z" fill="#01519C"/>
</svg>
