<svg width="261" height="24" viewBox="0 0 261 24" fill="none" xmlns="http://www.w3.org/2000/svg">
<path fill-rule="evenodd" clip-rule="evenodd" d="M6.75339 22.6812L5.32635 22.8326L5.22905 23.4272H14.8291L14.7426 22.8326L13.5534 22.6812C12.2237 22.5299 12.0075 22.4218 12.0075 22.1191V0.745951H12.7967C15.5643 0.789194 17.2075 3.22164 18.0832 5.92436L18.4183 7.23248H19.1427L18.7535 0H1.55335L0.76416 7.27572H1.58579L1.92092 5.92436C2.79661 3.44867 4.47229 0.897303 7.32636 0.745951H8.0615V22.011C8.0615 22.3028 7.69393 22.5731 6.75339 22.6812ZM20.8612 22.7784L19.8666 22.9081L19.791 23.4378H27.6829L27.6072 22.9081L26.8288 22.7784C25.6288 22.6486 25.4667 22.5405 25.4667 22.2811V13.308H32.9586V22.1838C32.9586 22.4432 32.6451 22.6486 31.8127 22.7784L30.7964 22.9081L30.7208 23.4378H38.6343L38.5587 22.9081L37.8127 22.7784C36.5803 22.6486 36.4505 22.5405 36.4505 22.2811V4.06474C36.4505 3.80528 36.764 3.59987 37.5965 3.47014L38.5911 3.34041L38.6668 2.81068H30.7532L30.8505 3.34041L31.6289 3.47014C32.8289 3.59987 32.9911 3.70798 32.9911 3.96744V12.5837H25.4991V4.06474C25.4991 3.83771 25.8234 3.59987 26.6775 3.47014L27.6613 3.34041L27.737 2.81068H19.8234L19.8991 3.34041L20.645 3.47014C21.8775 3.59987 22.0396 3.70798 22.0396 3.96744V22.1838C22.0396 22.4432 21.7153 22.6486 20.8612 22.7784ZM39.1209 22.9081L40.083 22.7784C40.9371 22.6486 41.283 22.4432 41.283 22.1838V3.96744C41.283 3.70798 41.1209 3.59987 39.8884 3.47014L39.1425 3.34041L39.0668 2.81068H53.002L53.1858 9.57829H52.4939L52.2561 8.48639C51.402 4.69177 50.1155 3.47014 46.5588 3.50257L44.7642 3.535V12.5837L45.7588 12.5513C47.8669 12.454 48.8074 11.8918 49.2615 10.0756L49.5534 9.01612H50.1155L49.4453 16.9405L48.9155 16.9081L48.8074 15.881C48.6777 13.9351 48.0615 13.4053 45.575 13.2756L44.775 13.2432V22.6486L46.9912 22.7459C50.6777 22.7135 52.1264 20.8648 53.0885 17.6648L53.3588 16.6702H54.0507L53.3588 23.4378H39.0452L39.1209 22.9081ZM61.1213 22.6812L59.997 22.8326L59.9105 23.438H68.3538C74.1592 23.438 76.862 20.8109 76.862 16.8758C76.862 13.4595 74.4944 11.0271 70.4835 10.6487V10.5406C73.9755 9.85952 75.9538 7.98924 75.9538 5.21084C75.9538 2.02163 73.889 0 68.116 0H59.9429L60.0294 0.637842L60.8835 0.745951C62.2781 0.929736 62.4619 1.00541 62.4619 1.30812V22.0109C62.4619 22.3028 62.0943 22.5299 61.1213 22.6812ZM71.8457 5.6649C71.8457 8.70276 70.116 10.5406 67.4133 10.5406H66.4078V0.832438H67.316C70.1484 0.832438 71.8457 2.47569 71.8457 5.6649ZM72.6998 17.0596C72.6998 20.1731 70.9052 22.4974 68.4187 22.6488C68.5052 22.6488 68.0187 22.7245 68.0187 22.7245L66.4078 22.1623V11.319C66.5916 11.2433 67.2295 11.2433 67.5646 11.2433C70.4511 11.2433 72.6998 13.4595 72.6998 17.0596ZM78.9807 16.8324V3.9242C78.9807 3.69717 78.851 3.55663 77.6401 3.45933L76.732 3.3296L76.6563 2.81068H84.8077L84.7321 3.34041L83.6077 3.47014C82.7537 3.56744 82.4618 3.76203 82.4618 4.03231V15.8486C82.4618 20.1729 84.0618 22.2486 87.0888 22.2486C90.1375 22.2486 91.7916 20.0756 91.7916 15.481L91.7591 6.33502C91.7591 4.16204 91.3051 3.6323 89.7808 3.45933L88.9808 3.34041L88.9051 2.81068H94.9484L94.8727 3.34041L94.1267 3.47014C92.8727 3.59987 92.4402 4.2269 92.4402 6.508L92.3862 15.6864C92.3537 20.9297 90.3537 24 85.9105 24C81.2834 24 78.9807 21.7838 78.9807 16.8324ZM94.2241 17.1677L94.516 22.7785C95.9863 23.438 97.7485 23.9028 99.8134 23.8596C103.64 23.8596 106.127 20.6272 106.127 17.092C106.127 13.2866 103.997 11.8055 101.078 10.5514C98.9377 9.62168 97.1971 8.73519 97.1971 6.35679C97.1971 4.54057 98.3971 3.09191 100.246 3.09191C101.338 3.09191 102.149 3.44867 102.786 3.94597L104.711 8.70275H105.294L105.219 2.59461L104.04 3.05948C103.078 2.73515 101.824 2.36758 100.354 2.36758C96.8187 2.36758 94.6025 5.17841 94.6025 8.47573C94.6025 11.946 96.7431 13.2974 99.3593 14.4541C101.684 15.4487 103.478 16.4433 103.478 19.1461C103.478 21.4488 102.224 23.1028 99.9755 23.1353C98.2566 23.1353 96.9485 22.2488 95.9863 20.4326L94.862 17.1677H94.2241ZM106.203 22.9081L107.295 22.7784C108.127 22.6811 108.473 22.4432 108.473 22.1838V3.96744C108.473 3.70798 108.311 3.59987 107.079 3.47014L106.192 3.34041L106.116 2.81068H114.279L114.203 3.34041L113.111 3.47014C112.225 3.56744 111.933 3.83771 111.933 4.06474V22.2811C111.933 22.5405 112.116 22.6486 113.295 22.7784L114.181 22.9081L114.257 23.4378H106.127L106.203 22.9081ZM118.506 6.23795H118.582L129.944 23.6218H130.884L130.96 6.4866C130.96 4.20551 131.392 3.57848 132.647 3.44875L133.392 3.31902L133.468 2.78928H127.446L127.522 3.31902L128.301 3.44875C129.846 3.62172 130.279 4.15146 130.279 6.32444L130.311 17.2218H130.236L120.928 2.8001H114.96L115.036 3.32983L115.598 3.52442C116.636 3.76226 117.392 4.64876 117.922 5.80552L117.846 19.7732C117.846 22.0218 117.446 22.6489 116.16 22.7786L115.414 22.9083L115.338 23.4381H121.382L121.306 22.9083L120.506 22.7786C118.982 22.6056 118.527 22.1083 118.527 19.9353L118.506 6.23795ZM134.16 22.9081L135.122 22.7784C135.976 22.6486 136.322 22.4432 136.322 22.1838V3.96744C136.322 3.70798 136.16 3.59987 134.927 3.47014L134.181 3.34041L134.106 2.81068H148.041L148.225 9.57829H147.533L147.295 8.48639C146.441 4.69177 145.154 3.47014 141.598 3.50257L139.803 3.535V12.5837L140.798 12.5513C142.906 12.454 143.846 11.8918 144.3 10.0756L144.592 9.01612H145.154L144.484 16.9405L143.954 16.9081L143.846 15.881C143.716 13.9351 143.1 13.4053 140.614 13.2756L139.814 13.2432V22.6486L142.03 22.7459C145.716 22.7135 147.165 20.8648 148.127 17.6648L148.398 16.6702H149.089L148.398 23.4378H134.095L134.16 22.9081ZM149.781 17.1677L150.073 22.7785C151.543 23.438 153.306 23.9028 155.36 23.8704C159.187 23.8704 161.673 20.638 161.673 17.1028C161.673 13.2974 159.543 11.8163 156.624 10.5622C154.484 9.63249 152.743 8.746 152.743 6.3676C152.743 4.55138 153.943 3.10272 155.792 3.10272C156.884 3.10272 157.695 3.45948 158.333 3.95678L160.257 8.71356H160.841L160.765 2.60542L159.598 3.05948C158.635 2.73515 157.381 2.36758 155.911 2.36758C152.376 2.36758 150.16 5.17841 150.16 8.47573C150.16 11.946 152.3 13.2974 154.916 14.4541C157.241 15.4487 159.035 16.4433 159.035 19.1461C159.035 21.4488 157.781 23.1028 155.533 23.1353C153.814 23.1353 152.506 22.2488 151.543 20.4326L150.419 17.1677H149.781ZM163.035 22.7786L162.743 17.1677H163.381L164.505 20.4326C165.467 22.2489 166.776 23.1354 168.494 23.1354C170.743 23.1029 171.997 21.4489 171.997 19.1461C171.997 16.4434 170.203 15.4488 167.878 14.4542C165.262 13.2975 163.121 11.9461 163.121 8.4758C163.121 5.17848 165.338 2.36766 168.873 2.36766C170.343 2.36766 171.597 2.73522 172.559 3.05955L173.738 2.59468L173.813 8.70283H173.23L171.305 3.94604C170.667 3.44874 169.857 3.09198 168.765 3.09198C166.916 3.09198 165.716 4.54064 165.716 6.35687C165.716 8.73526 167.457 9.62175 169.597 10.5515C172.516 11.8056 174.646 13.2866 174.646 17.0921C174.646 20.6272 172.159 23.8597 168.332 23.8597C166.267 23.9029 164.505 23.4381 163.035 22.7786ZM187.998 22.6812L186.571 22.8326L186.485 23.4272H196.085L195.998 22.8326L194.809 22.6812C193.479 22.5299 193.263 22.4218 193.263 22.1191V0.745951H194.052C196.82 0.789194 198.452 3.22164 199.339 5.92436L199.674 7.23248H200.398L199.998 0H182.798L182.02 7.27572H182.841L183.177 5.92436C184.052 3.44867 185.728 0.897303 188.582 0.745951H189.306V22.011C189.306 22.3028 188.939 22.5731 187.998 22.6812ZM201.328 22.9081L202.42 22.7784C203.252 22.6811 203.598 22.4432 203.598 22.1838V3.96744C203.598 3.70798 203.436 3.59987 202.204 3.47014L201.317 3.34041L201.241 2.81068H209.393L209.317 3.34041L208.225 3.47014C207.339 3.56744 207.047 3.83771 207.047 4.06474V22.2811C207.047 22.5405 207.231 22.6486 208.409 22.7784L209.295 22.9081L209.371 23.4378H201.241L201.328 22.9081ZM210.657 22.8108L209.879 22.9081L209.792 23.4162H215.835L215.76 22.8865L214.981 22.7892C213.349 22.6595 213.003 22.1297 213.079 20.0216L213.371 4.83231C213.382 4.85434 213.41 4.88884 213.445 4.93116C213.513 5.01343 213.605 5.12523 213.641 5.23231L218.938 23.2216H219.825L225.436 4.47555H225.544L225.868 20.4865C225.89 22.173 225.673 22.6378 224.927 22.7351L223.619 22.8973L223.544 23.427H231.749L231.673 22.8973L230.711 22.7351C229.619 22.6054 229.425 22.3459 229.403 20.5621L229.111 4.19447C229.111 3.90258 229.436 3.56744 230.182 3.50257L231.63 3.37284L231.706 2.81068H225.263L220.906 17.6648H220.83L216.549 2.81068H210.127L210.203 3.37284L211.165 3.50257C211.911 3.6323 212.452 4.03231 212.798 4.8215L212.452 19.8378C212.365 22.1189 212.073 22.6811 210.657 22.8108ZM232.712 22.9081L233.674 22.7784C234.528 22.6486 234.874 22.4432 234.874 22.1838V3.96744C234.874 3.70798 234.712 3.59987 233.479 3.47014L232.733 3.34041L232.658 2.81068H246.593L246.777 9.57829H246.085L245.847 8.48639C244.993 4.69177 243.706 3.47014 240.15 3.50257L238.355 3.535V12.5837L239.35 12.5513C241.458 12.454 242.398 11.8918 242.852 10.0756L243.144 9.01612H243.706L243.036 16.9405L242.506 16.9081L242.398 15.881C242.269 13.9351 241.652 13.4053 239.166 13.2756L238.366 13.2432V22.6486L240.582 22.7459C244.269 22.7135 245.717 20.8648 246.679 17.6648L246.95 16.6702H247.642L246.95 23.4378H232.647L232.712 22.9081ZM248.333 17.1677L248.625 22.7785C250.095 23.438 251.858 23.9028 253.923 23.8596C257.75 23.8596 260.236 20.6272 260.236 17.092C260.236 13.2866 258.106 11.8055 255.187 10.5514C253.047 9.62168 251.306 8.73519 251.306 6.35679C251.306 4.54057 252.506 3.09191 254.355 3.09191C255.447 3.09191 256.258 3.44867 256.896 3.94597L258.82 8.70275H259.404L259.328 2.59461L258.15 3.05948C257.187 2.73515 255.933 2.36758 254.463 2.36758C250.928 2.36758 248.712 5.17841 248.712 8.47573C248.712 11.946 250.852 13.2974 253.468 14.4541C255.793 15.4487 257.587 16.4433 257.587 19.1461C257.587 21.4488 256.333 23.1028 254.085 23.1353C252.366 23.1353 251.058 22.2488 250.095 20.4326L248.971 17.1677H248.333Z" fill="#2B2B2B"/>
</svg>
