<?xml version="1.0" encoding="utf-8"?>
<!-- Generator: Adobe Illustrator 26.5.0, SVG Export Plug-In . SVG Version: 6.00 Build 0)  -->
<svg version="1.1" id="Layer_1" xmlns="http://www.w3.org/2000/svg" xmlns:xlink="http://www.w3.org/1999/xlink" x="0px" y="0px"
	 viewBox="0 0 57.9 22.7" style="enable-background:new 0 0 57.9 22.7;" xml:space="preserve">
<style type="text/css">
	.st0{fill:#525252;stroke:#525252;}
</style>
<path class="st0" d="M4.5,21L4.5,21L4.5,21c1.1,0.5,2.3,0.8,3.7,0.8c2.1,0,3.8-0.6,5.1-1.8c1.3-1.2,1.9-2.9,1.9-5v-3.6
	c0-0.2,0-0.4-0.2-0.6c-0.2-0.2-0.4-0.2-0.6-0.2H8.5c-0.2,0-0.4,0-0.6,0.2c-0.2,0.2-0.2,0.4-0.2,0.6v1.2c0,0.2,0,0.4,0.2,0.6
	c0.2,0.2,0.4,0.2,0.6,0.2h3.7v2.2c0,1.1-0.4,2-1.1,2.6l0,0l0,0c-0.7,0.6-1.6,1-2.9,1c-1.3,0-2.3-0.4-3-1.1c-0.7-0.7-1.1-1.6-1.1-2.8
	V7.4c0-1.2,0.4-2.1,1.1-2.8c0.7-0.7,1.7-1.1,3-1.1c1.3,0,2.2,0.4,3,1l0,0l0,0c0.7,0.7,1.1,1.6,1.1,2.7v0.3c0,0.2,0,0.4,0.2,0.6
	c0.2,0.2,0.4,0.2,0.6,0.2h1.4c0.2,0,0.4,0,0.6-0.2c0.2-0.2,0.2-0.4,0.2-0.6V7.3c0-1.2-0.3-2.3-0.9-3.3c-0.6-1-1.4-1.8-2.5-2.3
	c-1.1-0.5-2.3-0.8-3.6-0.8c-1.4,0-2.6,0.3-3.7,0.8C3.5,2.2,2.6,3,2,4h0l0,0C1.4,5,1.1,6.2,1.1,7.5v7.7c0,1.3,0.3,2.4,0.9,3.5h0l0,0
	C2.6,19.7,3.5,20.5,4.5,21z M33.2,12.7l4,8.5c0.1,0.1,0.2,0.3,0.3,0.4c0.2,0.1,0.3,0.1,0.5,0.1h1.5c0.1,0,0.3,0,0.5-0.2
	c0.2-0.2,0.2-0.4,0.2-0.5c0-0.1,0-0.2-0.1-0.4c0,0,0,0,0,0l-4-8.2c1.1-0.3,2-0.9,2.7-1.8C39.6,9.6,40,8.4,40,7
	c0-1.7-0.5-3.1-1.6-4.2c-1.1-1.1-2.5-1.7-4.2-1.7h-7.2c-0.2,0-0.4,0-0.6,0.2c-0.2,0.2-0.2,0.4-0.2,0.6v19c0,0.2,0,0.4,0.2,0.6
	c0.2,0.2,0.4,0.2,0.6,0.2h1.4c0.2,0,0.4,0,0.6-0.2c0.2-0.2,0.2-0.4,0.2-0.6v-8.2H33.2z M36.2,4.7L36.2,4.7L36.2,4.7
	C36.7,5.2,37,6,37,7c0,1-0.3,1.7-0.9,2.3c-0.6,0.6-1.3,0.9-2.3,0.9h-4.8V3.8h4.8C34.9,3.8,35.6,4.1,36.2,4.7z M43.5,18.5L43.5,18.5
	L43.5,18.5c0.6,1.1,1.5,1.9,2.5,2.5c1.1,0.6,2.3,0.9,3.7,0.9c1.4,0,2.6-0.3,3.7-0.9c1.1-0.6,2-1.4,2.5-2.5c0.6-1.1,0.9-2.3,0.9-3.7
	v-7c0-1.4-0.3-2.6-0.9-3.6c-0.6-1.1-1.4-1.9-2.5-2.5c-1.1-0.6-2.3-0.9-3.7-0.9c-1.4,0-2.6,0.3-3.7,0.9c-1.1,0.6-1.9,1.4-2.5,2.5l0,0
	c-0.6,1.1-0.9,2.3-0.9,3.6v7C42.6,16.2,42.9,17.4,43.5,18.5z M52.8,4.7L52.8,4.7c0.8,0.8,1.1,1.8,1.1,3.1v7.2c0,1.3-0.4,2.3-1.1,3.1
	c-0.7,0.7-1.7,1.1-3.1,1.1c-1.3,0-2.3-0.4-3-1.1c-0.7-0.7-1.1-1.7-1.1-3.1V7.8c0-1.3,0.4-2.3,1.1-3.1l0,0c0.7-0.8,1.7-1.2,3-1.2
	C51.1,3.6,52,4,52.8,4.7L52.8,4.7z M18.9,20.8c0,0.2,0,0.4,0.2,0.6c0.2,0.2,0.4,0.2,0.6,0.2h1.4c0.2,0,0.4,0,0.6-0.2
	c0.2-0.2,0.2-0.4,0.2-0.6v-19c0-0.2,0-0.4-0.2-0.6c-0.2-0.2-0.4-0.2-0.6-0.2h-1.4c-0.2,0-0.4,0-0.6,0.2c-0.2,0.2-0.2,0.4-0.2,0.6
	V20.8z"/>
</svg>
