<?xml version="1.0" encoding="utf-8"?>
<!-- Generator: Adobe Illustrator 23.1.1, SVG Export Plug-In . SVG Version: 6.00 Build 0)  -->
<svg version="1.1" id="Layer_1" xmlns="http://www.w3.org/2000/svg" xmlns:xlink="http://www.w3.org/1999/xlink" x="0px" y="0px"
	 viewBox="0 0 181.3 129.8" style="enable-background:new 0 0 181.3 129.8;" xml:space="preserve">
<style type="text/css">
	.st0{fill:#FEFEFE;}
	.st1{fill:none;}
	.st2{fill:#D0D1EC;}
	.st3{fill:#FFFFFF;}
</style>
<g id="XMLID_1_">
	<g>
		<g>
			<g>
				<path class="st0" d="M1.9,95.9c0-5.9,0-13.6,0-17.9c15.5,5.9,36.2,8.6,36.2,0c0-11.5-37.5-2.3-38.1-28.4
					c-0.3-14.1,11.7-22.1,21.1-24.4c9-2.2,24.4-1.7,34.3,3c0,5.2,0,15.9,0,17.6c-11.7-7.3-33.1-6.4-33.1,0.6c0,9.2,43,3.7,43,26.1
					c0,5.9-1.4,10.4-3.6,14.3C50.4,106.9,8.7,97.6,1.9,95.9z"/>
			</g>
			<g>
				<path class="st0" d="M123.7,87.8c-2.8,3.6-6.5,6.9-10.9,9c-1.3,0.6-2.7,1.1-4.1,1.5l0,0h23V67.9c-0.4,3.4-1,5.5-1.7,7.7
					C128.7,80.1,126.6,84.2,123.7,87.8z"/>
				<path class="st0" d="M157.5,23.5c-14.3,0-21.4,6.7-25.9,11.6V0h-22.9v25c2,0.6,4,1.4,6,2.4c5.1,2.6,9.2,6.7,12.5,12.2
					c2.2,3.7,3.9,10.1,4.6,15.2c2.9-4.7,7.3-12,15.7-12c9.5,0,10.6,10.4,10.6,13.8c0,0.9-0.1,41.6-0.1,41.6h23.4V54
					C181.3,34.5,174.8,23.5,157.5,23.5z"/>
				<g>
					<path class="st1" d="M91.9,42.7c-6.3-0.3-12,3.6-13.7,5.1v28.9c0.9,0.5,8.3,4.8,14.5,4.6c4-0.2,8.6-1.7,11.3-5.1
						c2.5-3.1,4.4-7.2,4.7-12.4v-3.3c-0.3-3.9-1.4-7.9-2.7-10.1C101.9,43.2,94.2,42.8,91.9,42.7z"/>
					<path class="st0" d="M128.1,41.3c0.8,1.7,1.5,3.8,2.1,6C129.6,45.1,128.9,43,128.1,41.3z"/>
					<path class="st0" d="M110.1,25.4c0.4,0.1,0.8,0.3,1.2,0.4C110.9,25.7,110.5,25.6,110.1,25.4z"/>
					<path class="st0" d="M104,76.1c-2.7,3.4-7.3,4.9-11.3,5.1c-6.2,0.2-13.6-4.1-14.5-4.6V47.8c1.7-1.5,7.5-5.4,13.7-5.1
						c2.3,0.1,10,0.6,14.1,7.7c1.3,2.3,2.5,6.3,2.7,10.1V25c-3.1-1-6.3-1.5-9.5-1.5c-5.3,0-12.9,0.4-21.1,9.1v-9.1H55v106.4h23.2
						V94.1c2.7,1.7,5.4,3,8.1,4s6.4,1.5,11.2,1.5c4.1,0,7.9-0.3,11.3-1.3V63.8C108.4,68.9,106.5,73,104,76.1z"/>
					<path class="st0" d="M109.9,97.9c-0.3,0.1-0.6,0.2-0.9,0.3C109.3,98.1,109.6,98,109.9,97.9z"/>
					<path class="st2" d="M131.8,54.8c-0.3-2.4-0.9-5.1-1.6-7.6c-0.6-2.2-1.3-4.2-2.1-6c-0.3-0.6-0.6-1.2-0.9-1.7
						c-3.3-5.5-7.4-9.6-12.5-12.2c-1.1-0.6-2.3-1.1-3.4-1.5c-0.4-0.2-0.8-0.3-1.2-0.4c-0.4-0.2-0.9-0.3-1.3-0.5v73.3
						c0.1,0,0.2-0.1,0.3-0.1c0.3-0.1,0.6-0.2,0.9-0.3c1-0.3,2-0.7,3-1.1c4.4-2.1,8.1-5.4,10.9-9s4.9-7.7,6.3-12.1
						c0.7-2.3,1.3-4.4,1.7-7.7c0.2-2.1,0.4-4.7,0.4-8.3C132.1,58.3,132,56.6,131.8,54.8z"/>
				</g>
			</g>
		</g>
	</g>
</g>
<g>
	<g>
		<path class="st3" d="M181.3,98.3h-23.4c0,0,0.1-40.8,0.1-41.6c0-3.4-1.1-13.8-10.6-13.8c-8.4,0-12.8,7.3-15.7,12v43.4h-23V0.1
			h22.9v35.1c4.5-4.9,11.6-11.6,25.9-11.6c17.3,0,23.8,11,23.8,30.4V98.3z"/>
		<path class="st3" d="M127.2,39.6c-3.3-5.5-7.4-9.5-12.5-12.1s-10.2-3.9-15.4-3.9c-5.3,0-12.9,0.4-21,9.1v-9.1H55.1v106.3h23.2V94
			c2.7,1.7,5.4,3,8.1,4s6.4,1.5,11.2,1.5c5.9,0,10.9-0.6,15.3-2.7s8.1-5.4,10.9-9s4.9-7.7,6.3-12.1c1.4-4.5,1.8-9.2,1.8-14
			C131.8,53.2,130.4,45.1,127.2,39.6z M104,76.1c-2.7,3.4-7.3,4.9-11.3,5.1c-6.2,0.2-13.6-4.1-14.5-4.6V47.8
			c1.7-1.5,7.4-5.4,13.7-5.1c2.3,0.1,10,0.6,14.1,7.7c1.5,2.6,2.8,7.5,2.8,11.9C108.8,68.1,106.7,72.7,104,76.1z"/>
		<g>
			<path class="st3" d="M2,95.8C2,89.9,2,82.3,2,78c15.5,5.8,36.2,8.6,36.2,0c0-11.4-37.5-2.3-38.1-28.3
				c-0.3-14.1,11.7-22.1,21-24.4c9-2.2,24.4-1.7,34.2,3c0,5.2,0,15.9,0,17.6c-11.7-7.3-33.1-6.4-33.1,0.5c0,9.2,42.9,3.7,42.9,26
				c0,5.9-1.4,10.4-3.6,14.3C50.5,106.8,8.8,97.6,2,95.8z"/>
		</g>
	</g>
	<path class="st2" d="M132.4,59.5c0-5.4-2-15.3-5-20.3c-3.3-5.6-7.5-9.7-12.6-12.3c-2-1-4-1.8-6-2.5v74.3c1.4-0.4,2.8-0.9,4.1-1.5
		c4.5-2.1,8.2-5.5,11.1-9.1c2.8-3.7,5-7.8,6.4-12.3C131.4,72,132.4,68.8,132.4,59.5z"/>
</g>
</svg>
