<svg width="60" height="43" viewBox="0 0 60 43" fill="none" xmlns="http://www.w3.org/2000/svg">
<g clip-path="url(#clip0_250_530)">
<path d="M59.1526 32.0641H51.5278C51.5278 32.0641 51.5529 18.7754 51.5529 18.4809C51.5529 17.3568 51.1937 13.97 48.105 13.97C45.3611 13.97 43.9281 16.3512 42.9799 17.8883V32.0713H35.4736V0.00253296H42.9476V11.4667C44.4129 9.86845 46.7331 7.68121 51.3841 7.68121C57.03 7.68121 59.1526 11.2727 59.1526 17.601V32.0641Z" fill="#005DAA"/>
<path d="M41.4894 12.9104C40.5369 11.2316 39.1236 9.86069 37.4166 8.95973C35.8665 8.13955 34.1422 7.70353 32.3885 7.68833C30.661 7.68833 28.1828 7.82122 25.5215 10.6585V7.66319H17.9578V42.3537H25.5V30.6849C26.34 31.2014 27.2305 31.631 28.1577 31.967C29.3357 32.3322 30.5669 32.4961 31.7995 32.4519C33.7102 32.4519 35.3659 32.2472 36.8097 31.5612C38.2064 30.8706 39.4245 29.8663 40.3689 28.6269C41.2862 27.4462 41.9789 26.1071 42.4124 24.6762C42.8318 23.1846 43.0266 21.6389 42.9907 20.0899C42.9907 17.3603 42.5489 14.7026 41.4894 12.9068V12.9104ZM33.9472 24.8343C33.0673 25.9405 31.5804 26.4469 30.2695 26.4971C28.2152 26.5798 25.8017 25.1431 25.5 24.9995V15.5825C26.0531 15.1048 27.9314 13.8083 29.975 13.916C30.7292 13.9555 33.2361 14.11 34.5686 16.4301C35.17 17.6362 35.4846 18.9649 35.488 20.3125C35.5006 21.9581 34.9478 23.5582 33.9221 24.845" fill="#005DAA"/>
<path d="M0.62139 31.2703C0.62139 29.3488 0.62139 26.8456 0.62139 25.4449C5.67107 27.352 12.4267 28.2355 12.4267 25.4449C12.4303 21.6917 0.186815 24.6942 5.61214e-05 16.1644C-0.096915 11.5636 3.82144 8.9454 6.87064 8.19118C9.80132 7.47287 14.833 7.63808 18.0511 9.16089V14.9073C14.2369 12.5154 7.25134 12.8135 7.25134 15.0869C7.25134 18.0858 21.2583 16.2901 21.2583 23.5845C21.2866 25.2159 20.8853 26.8261 20.0946 28.2534C16.4492 34.8582 2.83736 31.8557 0.62139 31.2703Z" fill="#005DAA"/>
<path d="M43.0983 19.447C43.0983 17.7195 42.441 14.5302 41.4821 12.9105C40.5296 11.2317 39.1163 9.86074 37.4093 8.95978C36.7859 8.63933 36.1358 8.37375 35.4663 8.16605V32.0605C35.9245 31.9366 36.3714 31.7744 36.8024 31.5756C38.2 30.8848 39.4184 29.8792 40.3616 28.6377C41.2801 27.4579 41.9729 26.1185 42.4051 24.6871C42.7643 23.4767 43.0983 22.4531 43.0983 19.4578" fill="#C7D1EA"/>
<path d="M28.4736 34.8403H30.528L32.2052 38.0367L33.8609 34.8403H35.962V42.0844H34.4787V36.9485H34.4571L32.8445 40.2455H31.6054L30.0036 37.0132H29.9821V42.088H28.4736V34.8403Z" fill="#005DAA"/>
<path d="M38.3574 39.1826V40.7233H42.4482V42.063H36.8167V34.7973H42.1034V36.137H38.3574V37.7711H41.6616V39.1826H38.3574Z" fill="#005DAA"/>
<path d="M43.0659 34.8403H46.1905C48.0689 34.8403 49.4804 36.0255 49.4804 38.4318C49.4804 40.5329 48.4029 42.0952 46.1905 42.0952H43.0659V34.8403ZM44.6606 40.7448H46.0972C47.0202 40.7448 47.8929 40.1773 47.8929 38.5898C47.8929 37.1317 47.3757 36.1979 45.8027 36.1979H44.6677L44.6606 40.7448Z" fill="#005DAA"/>
<path d="M50.0767 34.8403H51.6713V42.0844H50.0767V34.8403Z" fill="#005DAA"/>
<path d="M51.8723 42.0736L55.1622 34.8403H56.764L59.9963 42.0736H58.4556L57.7373 40.4718H54.0739L53.3125 42.0736H51.8723ZM55.9846 36.1979L54.7671 38.9993H57.1698L55.9918 36.1979H55.9846Z" fill="#005DAA"/>
</g>
<defs>
<clipPath id="clip0_250_530">
<rect width="60" height="42.3513" fill="white" transform="translate(0 0.00253296)"/>
</clipPath>
</defs>
</svg>
