<svg width="306" height="25" viewBox="0 0 306 25" fill="none" xmlns="http://www.w3.org/2000/svg">
<path d="M261.402 1.0451L256.569 15.6226L252.255 1.0451H243.889V1.63691C245.036 1.73036 245.8 2.41563 245.8 4.56488V19.1268C245.8 21.4629 244.975 23.4097 242.879 23.7056V24.2975H249.915V23.7056C247.85 23.4097 247.039 21.899 247.039 19.376V3.28779H247.131L253.953 24.2975H254.825L261.953 2.89844C261.861 5.14113 261.815 9.12813 261.815 11.0438V20.3883C261.815 23.0671 260.285 23.6122 259.459 23.7056V24.2975H269.417V23.7056C268.606 23.5655 267.214 23.0204 267.214 20.3883V4.81406C267.214 2.22874 268.606 1.79266 269.417 1.69921V1.10739L261.402 1.0451ZM239.483 4.75176C239.483 2.11972 241.013 1.63691 241.961 1.63691V1.0451H231.683V1.63691C232.585 1.73036 234.069 2.11972 234.069 4.75176V20.326C234.069 23.0048 232.539 23.5499 231.683 23.6433V24.2975H241.579V23.7056C240.814 23.6122 239.483 23.0204 239.483 20.3883V4.75176ZM278.808 23.4409V12.5389H280.629C283.412 12.5389 284.361 13.5201 285.125 15.4201H285.753V8.7855H285.125C284.846 9.74169 284.237 10.5635 283.412 11.101C282.586 11.6386 281.598 11.8559 280.629 11.7135H278.808V1.66807H280.965C283.55 1.66807 286.701 2.16644 287.955 6.10673H288.567V0.889356H271.39V1.48117C272.109 1.57462 273.363 1.82381 273.363 4.45586V20.3883C273.363 23.0204 272.109 23.5032 271.39 23.5032V24.2975H288.858V18.9243H288.246C286.946 22.0392 285.753 23.5187 281.592 23.5187L278.808 23.4409ZM210.773 0.96722V6.18461H211.385C212.823 2.77384 215.072 1.74593 216.984 1.74593H217.794V20.3105C217.794 22.9892 216.265 23.5343 215.27 23.6278V24.2975H225.702V23.7056C224.647 23.6122 223.255 23.0671 223.255 20.3883V1.82381H224.065C226.222 1.82381 228.241 2.85171 229.664 6.26247H230.291V1.0451L210.773 0.96722ZM297.133 23.7212C293.89 23.7212 292.406 21.0892 291.534 18.8465H290.923V23.8302C292.932 24.28 294.983 24.5046 297.041 24.4999C301.629 24.4999 305.943 22.4597 305.943 17.3981C305.943 14.0808 304.214 11.7446 299.916 10.0782C296.949 8.95682 295.175 7.78875 295.175 5.1567C295.169 4.63464 295.27 4.11708 295.471 3.63682C295.672 3.15656 295.969 2.72409 296.343 2.36681C296.717 2.00954 297.16 1.73525 297.643 1.56134C298.127 1.38744 298.64 1.31771 299.152 1.35658C302.073 1.35658 303.495 3.50583 304.413 6.18461H305.04V1.21641C303.249 0.800301 301.417 0.586159 299.58 0.577864C294.027 0.577864 290.923 3.31894 290.923 7.35267C290.923 11.3864 293.645 13.0061 296.612 14.2676C299.58 15.5291 301.446 16.853 301.446 19.6407C301.477 20.2079 301.385 20.7749 301.178 21.3022C300.97 21.8294 300.652 22.3041 300.245 22.6929C299.839 23.0817 299.354 23.3752 298.824 23.5528C298.294 23.7305 297.732 23.788 297.178 23.7212H297.133ZM41.8947 4.6739C41.8947 2.04185 43.4242 1.6525 44.2502 1.55905V0.96722H34.0939V1.55905C35.0116 1.6525 36.4953 2.04185 36.4953 4.6739V11.8381H28.8475V4.81406C28.8475 2.18201 30.3771 1.79266 31.1877 1.69921V1.10739H21.0468V1.69921C21.9645 1.79266 23.387 2.18201 23.387 4.81406V20.3883C23.387 23.0671 21.9645 23.6122 21.0468 23.7056V24.2975H31.1877V23.7056C30.2853 23.6122 28.8475 23.0671 28.8475 20.3883V12.7881H36.4953V20.3883C36.4953 23.0671 34.9658 23.6122 34.0939 23.7056V24.2975H44.2502V23.7056C43.3325 23.6122 41.8947 23.0671 41.8947 20.3883V4.6739ZM53.5346 23.363V12.461H55.4007C56.3602 12.3047 57.3427 12.5114 58.1628 13.0422C58.9828 13.5731 59.5836 14.3912 59.8517 15.3423H60.4635V8.70763H59.8517C59.5812 9.6601 58.9818 10.481 58.1639 11.019C57.346 11.557 56.3647 11.776 55.4007 11.6356H53.5346V1.59019H55.676C58.261 1.59019 61.3813 2.04184 62.6661 6.02885H63.2932V0.81148H46.0704V1.40331C46.7893 1.49676 48.0741 1.74594 48.0741 4.37799V20.3105C48.0741 22.9425 46.7893 23.4253 46.0704 23.4253V24.2975H63.7674V18.9243H63.1403C61.6107 22.8802 59.7447 23.5187 56.502 23.5187L53.5346 23.363ZM0 0.889356V6.10673H0.627126C2.04962 2.69597 4.11451 1.66807 6.2253 1.66807H7.03599V20.2326C7.03599 22.9113 5.41465 23.4565 4.49691 23.5499V24.2975H14.8826V23.7056C13.8731 23.6122 12.4353 23.0671 12.4353 20.3883V1.82381H13.2613C15.4027 1.82381 17.4217 2.85171 18.8595 6.26247H19.4713V1.0451L0 0.889356ZM79.9654 23.6433C76.7534 23.6433 75.2238 21.0113 74.3673 18.7686H73.7401V23.7523C75.7184 24.2019 77.7396 24.4265 79.7666 24.4221C84.3553 24.4221 88.7145 22.3818 88.7145 17.3202C88.7145 14.0029 86.9861 11.6667 82.6881 10.0003C79.7207 8.87895 77.9464 7.71088 77.9464 5.07883C77.9408 4.55677 78.0417 4.0392 78.2428 3.55894C78.4439 3.07869 78.7408 2.64621 79.1147 2.28894C79.4886 1.93166 79.9314 1.65738 80.4148 1.48348C80.8983 1.30958 81.412 1.23985 81.9233 1.27871C84.8447 1.27871 86.2825 3.42796 87.185 6.10673H87.8121V1.0451C86.0122 0.693305 84.1843 0.510839 82.3516 0.5C76.7993 0.5 73.6942 3.24107 73.6942 7.2748C73.6942 11.3085 76.4169 12.9283 79.3842 14.1898C82.3516 15.4513 84.2176 16.7751 84.2176 19.5629C84.2479 20.1285 84.1567 20.6941 83.9502 21.2201C83.7437 21.7461 83.4269 22.2199 83.022 22.6084C82.6172 22.9969 82.1339 23.2908 81.606 23.4696C81.0781 23.6483 80.5182 23.7076 79.9654 23.6433ZM194.468 23.6433C191.256 23.6433 189.773 21.0113 188.916 18.7686H188.289V23.7523C190.298 24.2046 192.35 24.4292 194.407 24.4221C198.996 24.4221 203.294 22.3818 203.294 17.3202C203.294 14.0029 201.581 11.6667 197.267 10.0003C194.3 8.87895 192.541 7.71088 192.541 5.07883C192.536 4.55818 192.636 4.04201 192.836 3.56289C193.037 3.08377 193.332 2.65207 193.704 2.29503C194.077 1.93799 194.517 1.66336 194.999 1.48843C195.481 1.31351 195.993 1.24211 196.503 1.27871C199.378 1.27871 200.908 3.42796 201.826 6.10673H202.437V1.13854C200.629 0.731713 198.783 0.517718 196.931 0.5C191.379 0.5 188.228 3.24107 188.228 7.2748C188.228 11.3085 190.996 12.9283 193.964 14.1898C196.931 15.4513 198.797 16.7751 198.797 19.5629C198.826 20.1322 198.732 20.7011 198.522 21.2295C198.312 21.758 197.99 22.2332 197.581 22.622C197.171 23.0108 196.683 23.3036 196.151 23.4801C195.619 23.6565 195.055 23.7122 194.499 23.6433H194.468ZM89.6476 0.889356V6.10673H90.29C91.6819 2.69597 93.7927 1.66807 95.8882 1.66807H96.6989V20.2326C96.6989 22.9113 95.1693 23.4565 94.221 23.5499V24.2975H104.546V23.7056C103.551 23.6122 102.159 23.0671 102.159 20.3883V1.82381H102.97C105.127 1.82381 107.13 2.85171 108.568 6.26247H109.195V1.0451L89.6476 0.889356ZM167.563 0.889356V6.10673H168.175C169.613 2.69597 171.816 1.66807 173.728 1.66807H174.538V20.2326C174.538 22.9113 173.009 23.4565 172.06 23.5499V24.2975H182.431V23.7056C181.437 23.6122 179.999 23.0671 179.999 20.3883V1.82381H180.809C182.966 1.82381 185.016 2.85171 186.408 6.26247H187.035V1.0451L167.563 0.889356ZM163.709 4.7985C163.709 2.16645 165.147 1.68365 166.064 1.68365V1.09182H155.908V1.68365C156.826 1.77709 158.264 2.21317 158.264 4.7985V20.3727C158.264 23.0515 156.734 23.5966 155.908 23.6901V24.2975H166.064V23.7056C165.147 23.6122 163.709 23.0671 163.709 20.3883V4.7985ZM152.773 21.1826L146.884 1.0451H139.618V1.63691C139.966 1.64327 140.299 1.78047 140.553 2.02204C140.807 2.26361 140.965 2.59245 140.995 2.94516C140.973 3.39849 140.88 3.84534 140.72 4.26897L135.84 18.0678C134.311 22.5064 133.209 23.6278 132.108 23.7679V24.2975H138.517V23.7056C137.916 23.6204 137.368 23.3063 136.985 22.8266C136.602 22.3469 136.412 21.7372 136.452 21.1203C136.516 20.0072 136.743 18.9101 137.125 17.8653L137.599 16.3079H145.599C146.159 18.1588 146.588 20.0481 146.884 21.9613C146.884 22.4036 146.715 22.8284 146.412 23.1455C146.109 23.4625 145.697 23.6467 145.262 23.6589V24.2975H155.113V23.7056C154.164 23.7056 153.354 22.9269 152.773 21.1203V21.1826ZM137.936 15.4201L141.913 3.72387H142.004L145.354 15.4201H137.936ZM131.481 24.2975V23.7056C130.67 23.5655 130.426 23.1294 129.416 19.6563C128.131 15.28 126.602 12.5545 122.579 12.3053L122.717 12.0561C126.403 11.9159 129.324 10.156 129.324 6.46494C129.324 1.97956 124.644 1.0451 119.612 1.0451H110.572V1.63691C111.429 1.73036 112.912 2.07299 112.912 4.75176V20.326C112.912 23.0048 111.383 23.4409 110.572 23.6433V24.2975H120.285V23.7056C119.367 23.5655 118.327 22.9269 118.327 20.2014V12.9438H118.755C121.34 12.9438 122.824 15.8095 124.063 20.5441C124.419 21.7088 124.705 22.8947 124.919 24.095V24.2975H131.481ZM119.137 12.1184C118.868 12.1465 118.596 12.1465 118.327 12.1184V1.99513C118.719 1.9107 119.119 1.8741 119.52 1.88611C122.579 1.88611 124.109 3.11647 124.109 6.55838C124.109 10.4052 122.243 12.2118 119.092 12.2118" fill="#0C2B57"/>
</svg>
