<svg width="125" height="39" viewBox="0 0 125 39" fill="none" xmlns="http://www.w3.org/2000/svg">
<path d="M1.61816 13.0912H38.5216C37.194 9.26871 34.7033 5.95363 31.3961 3.60727C28.089 1.26092 24.1299 0 20.0699 0C16.0098 0 12.0507 1.26092 8.74357 3.60727C5.43644 5.95363 2.94576 9.26871 1.61816 13.0912V13.0912Z" fill="#A50034"/>
<path d="M0.500009 19.507C0.49779 21.7492 0.884764 23.9748 1.64383 26.0856H38.4896C40.0069 21.8559 40.0171 17.2349 38.5184 12.9987H1.6182C0.876249 15.0889 0.498084 17.29 0.500009 19.507V19.507Z" fill="#FD1339"/>
<path d="M20.0693 39C24.1012 38.999 28.0344 37.758 31.3318 35.4466C34.6291 33.1351 37.1298 29.8659 38.4922 26.0854H1.64648C3.00931 29.8656 5.51008 33.1346 8.80734 35.446C12.1046 37.7574 16.0376 38.9986 20.0693 39V39Z" fill="#0198DE"/>
<path opacity="0.2" d="M21.7163 38.8822L21.7451 38.9237C26.407 38.5237 30.7707 36.4725 34.0448 33.1422C37.319 29.8119 39.2867 25.4229 39.5913 20.7712C39.508 20.6882 39.4279 20.5988 39.3413 20.5222C39.1555 20.3275 38.9729 20.136 38.7807 19.9636C38.5884 19.7913 38.4058 19.571 38.2103 19.3955C38.0149 19.2199 37.8419 19.0092 37.6496 18.8369C37.4574 18.6645 37.2748 18.4443 37.0793 18.2687C36.8839 18.0931 36.7109 17.8825 36.5186 17.7101C36.3383 17.5123 36.1479 17.3237 35.9483 17.1451C35.7625 16.944 35.5799 16.7557 35.3844 16.5802C35.189 16.4046 35.0128 16.1907 34.8173 16.0184C34.6219 15.846 34.4489 15.629 34.2534 15.4534C34.058 15.2779 33.885 15.064 33.6895 14.8916C33.4941 14.7193 33.3179 14.5022 33.1256 14.3299C32.9453 14.132 32.7549 13.9435 32.5553 13.7649C32.3768 13.5663 32.1875 13.3777 31.9882 13.1999C31.8111 13.0032 31.6239 12.8157 31.4275 12.6381C31.2417 12.4402 31.0559 12.2487 30.8604 12.0763C30.6811 11.8786 30.4918 11.69 30.2933 11.5114C30.1151 11.3147 29.9269 11.1271 29.7294 10.9496C29.5436 10.7485 29.3578 10.557 29.1623 10.3814C28.9669 10.2059 28.7939 9.9952 28.5984 9.81964C28.403 9.64409 28.2268 9.43022 28.0313 9.25467C27.8541 9.06005 27.667 8.87467 27.4706 8.69927C27.2903 8.4994 27.0999 8.3087 26.9003 8.12791C26.7145 7.93001 26.5286 7.7385 26.3332 7.56614C25.7981 6.99159 25.2855 6.46492 24.4108 6.3117C23.5361 6.15849 21.5433 6.84157 20.7006 7.21183C20.0374 7.50549 18.8231 8.36731 19.0986 9.27063C19.1276 9.39774 19.2 9.51088 19.3034 9.59065C19.4069 9.67043 19.535 9.71189 19.6657 9.70792C19.6627 9.75043 19.6627 9.7931 19.6657 9.8356C19.7036 9.96347 19.7824 10.0755 19.89 10.1548C19.4543 10.2154 19.0698 10.6112 18.6789 10.9081C18.5655 10.7776 18.4351 10.6627 18.2912 10.5666C18.1393 10.3466 17.9482 10.1562 17.7273 10.0048C17.5752 9.78297 17.3829 9.59137 17.1602 9.4398C17.0083 9.2198 16.8171 9.0294 16.5963 8.87802C16.4492 8.65476 16.2624 8.46006 16.0452 8.30347C15.7248 7.86298 15.2763 7.47038 14.7636 7.56614C14.1229 7.68424 13.6294 8.45669 13.3315 8.97378C12.548 10.4322 12.3204 12.1237 12.6907 13.7361C13.0111 14.8789 13.607 15.7247 13.7063 16.8898C13.796 17.9304 14.0908 18.4857 14.6387 18.8049C14.7727 19.04 14.9674 19.235 15.2026 19.3699C15.3176 19.6105 15.4945 19.8164 15.7152 19.9668C15.871 20.1945 16.0843 20.3773 16.3336 20.4967C16.4698 20.7303 16.6654 20.9241 16.9007 21.0585C17.0347 21.2935 17.2294 21.4885 17.4646 21.6234C17.4902 21.6649 17.5095 21.7128 17.5383 21.7511C16.6951 21.97 15.8391 22.1363 14.9751 22.249C12.9278 22.6417 10.685 22.2267 8.91319 23.5705C8.1923 24.1195 8.30444 25.4154 8.82348 26.0826C8.93531 26.2525 9.09301 26.3874 9.27844 26.472" fill="black"/>
<path opacity="0.2" d="M20.585 37.7521C20.6179 37.8126 20.6543 37.8712 20.6939 37.9276Z" fill="black"/>
<path d="M26.9676 8.21092C26.1281 7.43527 25.6091 6.52238 24.4236 6.29575C23.5265 6.13934 21.5561 6.82561 20.7134 7.19588C20.0502 7.48953 18.8359 8.35136 19.1114 9.25468C19.6017 10.8506 23.0876 7.55657 24.2859 8.12473C25.01 8.46627 25.0036 9.51961 24.885 10.1676C24.6758 11.4967 24.1434 12.7548 23.3343 13.8319C22.9082 14.3618 22.2674 14.5565 21.8444 15.0066C21.4215 15.4566 21.5529 15.9641 20.9441 16.261C20.1656 16.6217 17.7401 16.261 18.5283 14.9299C19.0442 14.0458 20.361 13.6787 21.0146 12.852C21.7739 11.8944 21.5529 11.0741 20.6077 10.3495C19.717 9.66005 19.0826 10.723 18.3649 11.0932C16.8911 11.8497 16.7886 9.86434 16.4073 8.95463C16.1638 8.3737 15.5198 7.41612 14.7604 7.55657C14.1196 7.67467 13.6262 8.44712 13.3283 8.96421C12.5448 10.4226 12.3172 12.1141 12.6875 13.7266C13.0079 14.8693 13.6038 15.7152 13.7031 16.8802C13.8537 18.6486 14.5746 19.0795 16.1958 19.1465C17 19.1816 19.3485 18.8816 19.2909 20.1871C19.2236 21.8277 16.0869 22.0352 14.9751 22.2459C12.9278 22.6385 10.685 22.2235 8.91319 23.5673C8.1923 24.1163 8.30444 25.4123 8.82348 26.0794C9.51233 26.9731 9.86477 26.2549 10.5889 25.7602C11.518 25.1218 12.8733 25.2239 13.9114 24.8281C15.1738 24.3462 16.4233 24.2759 17.7562 24.078C18.2368 24.0078 19.0185 23.6727 19.4927 23.8929C20.7743 24.4994 20.2873 28.0424 20.1335 29.0958C20.0021 30.0182 19.5728 30.9311 19.8131 31.876C20.0534 32.8208 20.8929 33.9188 21.854 32.9548C22.6839 32.1153 22.9338 30.4332 22.969 29.2937C23.0235 27.6402 22.6967 25.9804 22.7992 24.3238C22.8248 23.9376 22.8729 23.4492 23.1965 23.1779C23.4446 23.0173 23.7074 22.8805 23.9815 22.7693C24.8498 22.2842 27.8871 22.4853 28.467 21.6298C28.5504 21.4976 28.606 21.35 28.6306 21.1958C28.6553 21.0417 28.6484 20.8841 28.6104 20.7327C28.5724 20.5813 28.504 20.439 28.4095 20.3146C28.3149 20.1901 28.1961 20.0859 28.0601 20.0083C27.4033 19.6349 26.5799 19.6891 25.8654 19.8423C25.4041 19.9477 23.1517 21.1446 22.7896 20.6499C22.3571 20.0626 22.2706 18.6358 22.9466 18.224C23.6995 17.758 24.8978 18.3517 25.6059 17.5537C26.0384 17.059 25.8943 16.2546 26.0513 15.6577C26.5767 13.6564 28.2716 12.3924 27.9416 10.091C27.8434 9.3661 27.493 8.69853 26.9516 8.20453" fill="white"/>
<path d="M45.8711 22.6828L50.9398 16.7075H46.1883V13.972H55.121V16.3277L50.0747 22.303H55.31V25.0385H45.8711V22.6828Z" fill="#666666"/>
<path d="M60.1258 25.2492C59.5996 25.253 59.0771 25.1599 58.5847 24.9747C58.1283 24.8068 57.7085 24.5532 57.348 24.2278C56.9948 23.9066 56.7136 23.5149 56.5226 23.0783C56.3316 22.6416 56.2351 22.1697 56.2394 21.6934C56.2342 21.1604 56.3572 20.6339 56.5983 20.158C56.8406 19.6926 57.1791 19.2836 57.5915 18.9579C58.042 18.6085 58.5537 18.3455 59.1006 18.1822C59.7235 17.9932 60.3718 17.9006 61.023 17.9077C61.7923 17.8817 62.5579 18.0244 63.2657 18.3259V17.9907C63.2829 17.7763 63.2508 17.5609 63.172 17.3607C63.0932 17.1605 62.9696 16.9808 62.8108 16.8352C62.3796 16.5452 61.8617 16.4111 61.3434 16.4554C60.7445 16.4547 60.1506 16.5629 59.5908 16.7746C58.997 17.0105 58.4309 17.3102 57.9023 17.6683L56.7392 15.1882C58.233 14.2403 59.973 13.7497 61.7438 13.7774C63.5189 13.7774 64.8848 14.17 65.8417 14.9552C66.7987 15.7404 67.2771 16.9193 67.2771 18.4918V20.6368C67.2478 20.9166 67.3231 21.1973 67.4886 21.4252C67.7031 21.601 67.9734 21.6949 68.2511 21.6902V25.0545C67.8827 25.1247 67.5366 25.1758 67.2162 25.2109C66.928 25.2443 66.6382 25.2624 66.348 25.2651C65.7755 25.3004 65.2055 25.1649 64.7107 24.8757C64.3287 24.6018 64.068 24.1911 63.9834 23.7298L63.9001 23.3308C63.4433 23.9304 62.859 24.422 62.1892 24.7704C61.5488 25.0974 60.8391 25.2671 60.1194 25.2651L60.1258 25.2492ZM61.3209 22.3924C61.5723 22.3912 61.8219 22.3513 62.061 22.2743C62.2992 22.2044 62.5267 22.1024 62.7371 21.9711C62.8822 21.8687 63.0108 21.745 63.1184 21.604C63.2114 21.4865 63.2632 21.3419 63.2657 21.1922V20.3687C63.0105 20.2799 62.7493 20.2095 62.484 20.158C62.2343 20.1051 61.9799 20.0773 61.7246 20.075C61.2874 20.0581 60.8567 20.1836 60.4975 20.4325C60.3483 20.5316 60.226 20.666 60.1416 20.8236C60.0572 20.9812 60.0132 21.1572 60.0137 21.3359C60.0113 21.4819 60.0434 21.6264 60.1074 21.7579C60.1714 21.8893 60.2655 22.0038 60.3822 22.0923C60.6508 22.2973 60.9828 22.4023 61.3209 22.3892" fill="#666666"/>
<path d="M75.0754 25.2494C74.1768 25.2669 73.2838 25.1063 72.4481 24.777C71.7333 24.4845 71.0858 24.05 70.5449 23.5002C70.0345 22.9778 69.6394 22.3548 69.3851 21.6712C68.8638 20.2664 68.8638 18.7222 69.3851 17.3174C69.6386 16.6325 70.0337 16.0082 70.5449 15.4852C71.0871 14.941 71.7346 14.5121 72.4481 14.2244C74.1385 13.5904 76.0026 13.5904 77.693 14.2244C78.4132 14.51 79.0674 14.939 79.6154 15.4852C80.1266 16.0082 80.5218 16.6325 80.7752 17.3174C81.2965 18.7222 81.2965 20.2664 80.7752 21.6712C80.5209 22.3548 80.1258 22.9778 79.6154 23.5002C79.0687 24.052 78.4145 24.4865 77.693 24.777C76.8602 25.1046 75.9706 25.2652 75.0754 25.2494V25.2494ZM73.1113 19.5039C73.074 20.1335 73.2701 20.7549 73.6624 21.2499C73.84 21.4488 74.0579 21.6079 74.3017 21.7169C74.5455 21.8259 74.8097 21.8822 75.077 21.8822C75.3442 21.8822 75.6084 21.8259 75.8522 21.7169C76.096 21.6079 76.3139 21.4488 76.4915 21.2499C76.8483 20.7364 77.0394 20.1268 77.0394 19.5023C77.0394 18.8778 76.8483 18.2682 76.4915 17.7547C76.3133 17.5567 76.0953 17.3984 75.8515 17.29C75.6078 17.1816 75.3439 17.1255 75.077 17.1255C74.81 17.1255 74.5461 17.1816 74.3024 17.29C74.0587 17.3984 73.8406 17.5567 73.6624 17.7547C73.2696 18.2507 73.0735 18.8732 73.1113 19.5039" fill="#666666"/>
<path d="M88.3181 25.2496C87.4614 25.2549 86.6203 25.0216 85.8895 24.5761C85.1719 24.1539 84.5699 23.5619 84.137 22.8524V25.0389H83.1758V9.6825H84.2331V16.4749C84.7238 15.7501 85.3465 15.1232 86.069 14.6268C86.7926 14.1424 87.6483 13.8916 88.52 13.9086C89.2507 13.8992 89.9725 14.0692 90.6218 14.4034C91.2345 14.7245 91.7735 15.1691 92.2045 15.7089C92.6392 16.258 92.9752 16.8778 93.1978 17.541C93.4274 18.2067 93.5454 18.9055 93.547 19.6094C93.5509 20.3477 93.4139 21.0799 93.1433 21.7672C92.8892 22.4268 92.5132 23.0331 92.0347 23.5547C91.5645 24.0679 90.9987 24.4853 90.3687 24.7836C89.7273 25.0952 89.0221 25.2547 88.3085 25.2496H88.3181ZM88.0971 24.292C88.7043 24.2986 89.3046 24.1631 89.8496 23.8962C90.3763 23.6355 90.8457 23.2731 91.2305 22.8301C91.6206 22.3865 91.9287 21.8775 92.1405 21.3267C92.3541 20.7759 92.4627 20.1903 92.4608 19.5998C92.4622 18.9953 92.3592 18.395 92.1565 17.8251C91.961 17.2745 91.6716 16.7615 91.301 16.309C90.9369 15.8702 90.488 15.5087 89.981 15.246C89.4547 14.9777 88.8708 14.8408 88.2797 14.847C87.8282 14.8442 87.3803 14.9265 86.9597 15.0896C86.5506 15.2445 86.1671 15.4597 85.8223 15.728C85.4753 15.9939 85.166 16.3053 84.9027 16.6537C84.6409 16.9938 84.4144 17.3596 84.2267 17.7453V21.3905C84.2714 21.8059 84.4275 22.2017 84.6784 22.5364C84.9437 22.898 85.2687 23.2121 85.6396 23.4653C86.0201 23.7237 86.4325 23.9318 86.8667 24.0845C87.2587 24.2295 87.6726 24.3072 88.0906 24.3143" fill="#8E8E8E"/>
<path d="M98.8042 25.2493C98.3167 25.2521 97.833 25.1633 97.3784 24.9875C96.9589 24.8156 96.5737 24.5702 96.241 24.2629C95.9129 23.9617 95.6501 23.5967 95.4689 23.1905C95.2855 22.7684 95.1927 22.3129 95.1965 21.853C95.1903 21.3954 95.3076 20.9445 95.5362 20.5475C95.7767 20.1404 96.105 19.7915 96.4973 19.5261C96.94 19.2245 97.4292 18.9969 97.9456 18.8526C98.5464 18.6868 99.1677 18.6063 99.7911 18.6132C100.393 18.6135 100.993 18.6659 101.585 18.7696C102.14 18.8616 102.685 19.0059 103.213 19.2005V18.128C103.237 17.6782 103.17 17.2281 103.018 16.804C102.866 16.3799 102.63 15.9902 102.325 15.6575C102.01 15.3472 101.633 15.1056 101.219 14.9479C100.805 14.7902 100.362 14.7199 99.9192 14.7414C99.3287 14.7486 98.7446 14.8632 98.1955 15.0797C97.5566 15.323 96.9506 15.6447 96.3916 16.0373L95.9687 15.3223C97.3913 14.3669 98.7284 13.8902 99.9801 13.8923C101.302 13.8923 102.348 14.2743 103.117 15.0383C103.886 15.8022 104.269 16.8577 104.267 18.2047V23.548C104.267 23.8991 104.418 24.0746 104.712 24.0746V25.0322C104.646 25.0446 104.578 25.051 104.511 25.0514H104.331C104.075 25.0523 103.827 24.9591 103.636 24.7896C103.533 24.7082 103.451 24.6041 103.395 24.4856C103.339 24.3671 103.312 24.2373 103.315 24.1065V23.2096C102.812 23.8664 102.151 24.3867 101.393 24.7226C100.594 25.078 99.7274 25.2577 98.8523 25.2493H98.8042ZM99.0638 24.4066C99.8399 24.4142 100.609 24.2609 101.323 23.9565C101.947 23.7061 102.483 23.2774 102.864 22.7244C103.08 22.4961 103.207 22.1984 103.223 21.885V19.9474C102.169 19.5573 101.053 19.3573 99.9288 19.3569C98.9936 19.314 98.0667 19.5496 97.2663 20.0336C96.9571 20.2137 96.7009 20.4715 96.5232 20.7813C96.3455 21.0911 96.2526 21.442 96.2539 21.7988C96.2517 22.1533 96.3237 22.5045 96.4653 22.8298C96.6004 23.145 96.8013 23.428 97.0549 23.6597C97.3175 23.8976 97.623 24.0839 97.9552 24.2087C98.3093 24.3422 98.6851 24.4093 99.0638 24.4066Z" fill="#8E8E8E"/>
<path d="M112.094 25.2492C111.355 25.2568 110.623 25.102 109.951 24.796C109.308 24.5032 108.731 24.0854 108.252 23.5671C107.768 23.0391 107.388 22.4252 107.131 21.7572C106.864 21.0658 106.728 20.3309 106.731 19.5899C106.726 18.8414 106.866 18.0991 107.144 17.4034C107.405 16.7339 107.791 16.1198 108.281 15.5936C108.763 15.0767 109.341 14.6582 109.983 14.3615C110.645 14.0584 111.366 13.9048 112.094 13.9115C112.827 13.9054 113.552 14.059 114.218 14.3615C114.864 14.6565 115.446 15.0751 115.929 15.5936C116.42 16.1198 116.806 16.7339 117.067 17.4034C117.474 18.4335 117.584 19.5563 117.385 20.6454C117.185 21.7345 116.685 22.7464 115.939 23.5671C115.457 24.0864 114.875 24.5042 114.228 24.796C113.558 25.1004 112.83 25.2551 112.094 25.2492V25.2492ZM107.807 19.6314C107.802 20.254 107.917 20.8718 108.147 21.4508C108.358 21.998 108.67 22.5012 109.066 22.9351C109.449 23.3537 109.91 23.6932 110.425 23.9341C110.948 24.1759 111.517 24.3011 112.094 24.3011C112.671 24.3011 113.24 24.1759 113.763 23.9341C114.282 23.6887 114.745 23.3413 115.125 22.9127C115.519 22.4687 115.834 21.9601 116.054 21.4093C116.52 20.233 116.52 18.9245 116.054 17.7482C115.835 17.1996 115.521 16.6939 115.125 16.2543C114.741 15.8306 114.279 15.4848 113.763 15.2361C113.244 14.9822 112.673 14.8522 112.094 14.8563C111.523 14.854 110.959 14.9841 110.447 15.2361C109.927 15.4867 109.462 15.8358 109.076 16.2639C108.674 16.712 108.359 17.2304 108.147 17.7929C107.919 18.3791 107.804 19.0028 107.807 19.6314" fill="#8E8E8E"/>
<path d="M118.14 14.3299C117.813 14.3307 117.488 14.2768 117.179 14.1703C116.879 14.0708 116.602 13.9111 116.365 13.7011L116.618 13.3276C116.836 13.5104 117.082 13.658 117.346 13.7649C117.598 13.8628 117.866 13.9126 118.137 13.9117C118.424 13.926 118.709 13.8537 118.954 13.7043C119.051 13.6407 119.13 13.5532 119.184 13.4504C119.237 13.3475 119.263 13.2326 119.258 13.1169C119.263 13.0122 119.235 12.9086 119.178 12.8201C119.114 12.7345 119.032 12.6637 118.938 12.6126C118.811 12.5471 118.678 12.4947 118.541 12.4562C118.381 12.4115 118.195 12.3636 117.983 12.3126C117.74 12.2551 117.528 12.1945 117.342 12.137C117.187 12.0881 117.038 12.0194 116.9 11.9327C116.79 11.8644 116.7 11.7687 116.638 11.655C116.579 11.5237 116.55 11.3807 116.554 11.2369C116.55 11.0434 116.593 10.8519 116.679 10.6783C116.76 10.5191 116.877 10.3812 117.022 10.2761C117.174 10.1668 117.344 10.0857 117.525 10.0367C117.726 9.98346 117.933 9.95663 118.14 9.95691C118.442 9.95383 118.742 10.0069 119.025 10.1133C119.266 10.2057 119.484 10.3482 119.665 10.5315L119.396 10.8507C119.236 10.6864 119.039 10.5609 118.823 10.4836C118.597 10.4028 118.358 10.3618 118.118 10.3623C117.982 10.3617 117.847 10.3767 117.714 10.407C117.599 10.4348 117.491 10.4835 117.394 10.5506C117.3 10.613 117.223 10.6974 117.169 10.7964C117.114 10.9061 117.086 11.0278 117.089 11.1507C117.086 11.2452 117.105 11.3391 117.144 11.4252C117.189 11.5009 117.253 11.5636 117.33 11.6072C117.431 11.6649 117.538 11.711 117.65 11.7444C117.785 11.7859 117.948 11.8274 118.137 11.8689C118.406 11.9359 118.646 11.9998 118.852 12.0636C119.032 12.1184 119.205 12.1945 119.367 12.2902C119.498 12.3697 119.608 12.4791 119.688 12.6094C119.762 12.7499 119.798 12.9072 119.793 13.0659C119.8 13.2444 119.762 13.4218 119.684 13.5826C119.606 13.7434 119.49 13.8827 119.345 13.9883C118.993 14.2312 118.571 14.3502 118.143 14.3267" fill="#666666"/>
<path d="M122.391 14.3075C122.114 14.3109 121.839 14.2486 121.59 14.1256C121.353 14.0068 121.141 13.8431 120.966 13.6436C120.604 13.2307 120.406 12.7008 120.408 12.1529C120.408 11.8672 120.455 11.5834 120.549 11.3134C120.638 11.0572 120.775 10.82 120.953 10.6144C121.125 10.4143 121.337 10.2514 121.574 10.1356C121.824 10.0152 122.098 9.954 122.375 9.95688C122.71 9.94701 123.04 10.0419 123.317 10.2282C123.587 10.4119 123.82 10.6448 124.003 10.9145V10.0303H124.5V14.266C124.504 14.5342 124.446 14.7998 124.33 15.0416C124.225 15.2593 124.073 15.4512 123.885 15.6034C123.688 15.7589 123.462 15.8748 123.221 15.945C122.96 16.0198 122.689 16.0574 122.417 16.0567C122.01 16.0745 121.606 15.9854 121.244 15.7981C120.95 15.6281 120.702 15.3893 120.52 15.1023L120.863 14.8342C121.02 15.0953 121.252 15.3032 121.53 15.4311C121.808 15.5569 122.111 15.6211 122.417 15.6194C122.617 15.6203 122.816 15.5912 123.007 15.5332C123.183 15.4809 123.348 15.3965 123.494 15.2842C123.63 15.1685 123.739 15.0248 123.814 14.8629C123.898 14.6752 123.94 14.4714 123.936 14.266V13.4329C123.771 13.7001 123.539 13.9201 123.263 14.0713C122.996 14.227 122.691 14.3086 122.382 14.3075H122.391ZM122.536 13.8447C122.7 13.845 122.863 13.8147 123.016 13.7553C123.17 13.6991 123.314 13.6182 123.442 13.5159C123.566 13.4211 123.674 13.3081 123.763 13.1807C123.844 13.0666 123.902 12.9375 123.933 12.8009V11.4954C123.872 11.3428 123.787 11.2007 123.683 11.0741C123.482 10.8227 123.214 10.6325 122.911 10.525C122.767 10.4713 122.615 10.4432 122.462 10.4421C122.239 10.4378 122.019 10.4894 121.821 10.5921C121.64 10.6924 121.48 10.8268 121.35 10.9879C121.22 11.1518 121.12 11.3378 121.055 11.5369C120.986 11.7427 120.952 11.9583 120.953 12.1753C120.954 12.3937 120.995 12.6102 121.075 12.8137C121.147 13.0119 121.255 13.1948 121.395 13.3531C121.534 13.5081 121.704 13.6321 121.895 13.717C122.09 13.8068 122.302 13.8526 122.516 13.851" fill="#666666"/>
</svg>
