<svg width="32" height="32" viewBox="0 0 32 32" fill="none" xmlns="http://www.w3.org/2000/svg">
<path fill-rule="evenodd" clip-rule="evenodd" d="M15.3958 2.2032C15.753 1.93227 16.247 1.93227 16.6042 2.2032L28.6042 11.3032C28.8536 11.4923 29 11.7871 29 12.1V26.4C29 27.3631 28.6074 28.2814 27.9171 28.9545C27.2276 29.6267 26.2977 30 25.3333 30H6.66667C5.70226 30 4.77241 29.6267 4.08295 28.9545C3.39262 28.2814 3 27.3631 3 26.4V12.1C3 11.7871 3.14645 11.4923 3.39576 11.3032L15.3958 2.2032ZM5 12.5967V26.4C5 26.8161 5.16928 27.2204 5.47915 27.5225C5.78988 27.8254 6.21659 28 6.66667 28H25.3333C25.7834 28 26.2101 27.8254 26.5209 27.5225C26.8307 27.2204 27 26.8161 27 26.4V12.5967L16 4.25502L5 12.5967Z" fill="#005DAA"/>
<path fill-rule="evenodd" clip-rule="evenodd" d="M11 16C11 15.4477 11.4477 15 12 15H20C20.5523 15 21 15.4477 21 16V29C21 29.5523 20.5523 30 20 30C19.4477 30 19 29.5523 19 29V17H13V29C13 29.5523 12.5523 30 12 30C11.4477 30 11 29.5523 11 29V16Z" fill="#005DAA"/>
</svg>
