<svg width="31" height="18" viewBox="0 0 31 18" fill="none" xmlns="http://www.w3.org/2000/svg">
<path fill-rule="evenodd" clip-rule="evenodd" d="M20.3653 0.453441C20.4814 0.337033 20.6193 0.244676 20.7712 0.181659C20.9231 0.118643 21.0859 0.0862074 21.2503 0.0862074C21.4147 0.0862074 21.5775 0.118643 21.7294 0.181659C21.8812 0.244676 22.0192 0.337033 22.1353 0.453441L29.6353 7.95344C29.7517 8.06955 29.844 8.20749 29.9071 8.35936C29.9701 8.51122 30.0025 8.67402 30.0025 8.83844C30.0025 9.00286 29.9701 9.16566 29.9071 9.31752C29.844 9.46939 29.7517 9.60733 29.6353 9.72344L22.1353 17.2234C21.9006 17.4582 21.5822 17.59 21.2503 17.59C20.9183 17.59 20.6 17.4582 20.3653 17.2234C20.1306 16.9887 19.9987 16.6704 19.9987 16.3384C19.9987 16.0065 20.1306 15.6882 20.3653 15.4534L26.9828 8.83844L20.3653 2.22344C20.2489 2.10733 20.1565 1.96939 20.0935 1.81753C20.0305 1.66566 19.998 1.50286 19.998 1.33844C19.998 1.17402 20.0305 1.01122 20.0935 0.859357C20.1565 0.707494 20.2489 0.569555 20.3653 0.453441Z" fill="#333333"/>
<path fill-rule="evenodd" clip-rule="evenodd" d="M0 8.83844C0 8.50692 0.131696 8.18898 0.366117 7.95456C0.600537 7.72014 0.918479 7.58844 1.25 7.58844H27.5C27.8315 7.58844 28.1495 7.72014 28.3839 7.95456C28.6183 8.18898 28.75 8.50692 28.75 8.83844C28.75 9.16996 28.6183 9.4879 28.3839 9.72232C28.1495 9.95674 27.8315 10.0884 27.5 10.0884H1.25C0.918479 10.0884 0.600537 9.95674 0.366117 9.72232C0.131696 9.4879 0 9.16996 0 8.83844Z" fill="#333333"/>
</svg>
