<?xml version="1.0" encoding="utf-8"?>
<!-- Generator: Adobe Illustrator 23.1.1, SVG Export Plug-In . SVG Version: 6.00 Build 0)  -->
<svg version="1.1" id="Layer_1" xmlns="http://www.w3.org/2000/svg" xmlns:xlink="http://www.w3.org/1999/xlink" x="0px" y="0px"
	 viewBox="0 0 20 20" style="enable-background:new 0 0 20 20;" xml:space="preserve">
<style type="text/css">
	.st0{fill:#555555;}
</style>
<title>ArrowLeft</title>
<path class="st0" d="M14.1,0.5L4.9,9.4C4.8,9.5,4.7,9.7,4.7,9.9c0,0.2,0.1,0.4,0.2,0.5l8.9,9.1c0.1,0.1,0.3,0.2,0.5,0.2
	c0.2,0,0.4-0.1,0.5-0.2c0.3-0.3,0.3-0.8,0-1.1L6.5,9.9l8.6-8.4c0.4-0.2,0.5-0.7,0.2-1c-0.2-0.4-0.7-0.5-1-0.2
	C14.2,0.3,14.1,0.4,14.1,0.5L14.1,0.5z"/>
</svg>
