<svg width="30" height="32" viewBox="0 0 30 32" fill="none" xmlns="http://www.w3.org/2000/svg">
<path d="M29.7544 21.614C29.7544 23.6283 28.1167 25.2632 26.0997 25.2632H3.65468C1.63651 25.2632 0 23.6303 0 21.614C0 19.6952 1.4848 18.1197 3.36842 17.9756V11.5084C3.36842 5.15084 8.52031 0 14.8772 0C21.2341 0 26.386 5.15205 26.386 11.5084V17.9757C28.2671 18.1198 29.7544 19.6946 29.7544 21.614ZM26.1041 20.7719C24.7083 20.7719 23.5789 19.6431 23.5789 18.2446V11.5084C23.5789 6.7023 19.6838 2.80702 14.8772 2.80702C10.0705 2.80702 6.17544 6.70124 6.17544 11.5084V18.2446C6.17544 19.6395 5.0437 20.7719 3.65029 20.7719C3.18552 20.7719 2.80702 21.1505 2.80702 21.614C2.80702 22.0786 3.18536 22.4561 3.65468 22.4561H26.0997C26.5675 22.4561 26.9474 22.0769 26.9474 21.614C26.9474 21.1512 26.5673 20.7719 26.1041 20.7719ZM9.54386 26.6667H12.3509C12.3509 28.0619 13.4819 29.193 14.8772 29.193C16.2724 29.193 17.4035 28.0619 17.4035 26.6667H20.2105C20.2105 29.6122 17.8227 32 14.8772 32C11.9317 32 9.54386 29.6122 9.54386 26.6667Z" fill="#F5F5F5"/>
</svg>
