<svg width="18" height="18" viewBox="0 0 18 18" fill="none" xmlns="http://www.w3.org/2000/svg">
<path d="M8.99976 15.948C12.8338 15.948 15.9478 12.834 15.9478 9C15.9478 5.166 12.8338 2.052 8.99976 2.052C5.16576 2.052 2.05176 5.166 2.05176 9C2.05176 12.834 5.16576 15.948 8.99976 15.948ZM8.99976 3.582C11.9878 3.582 14.4178 6.012 14.4178 9C14.4178 11.988 11.9878 14.418 8.99976 14.418C6.01176 14.418 3.58176 11.988 3.58176 9C3.58176 6.012 6.01176 3.582 8.99976 3.582Z" fill="#F5F5F5"/>
<path d="M7.57809 11.1239C7.72209 11.2679 7.92009 11.3399 8.11809 11.3399C8.31609 11.3399 8.51409 11.2679 8.65809 11.1239L12.1141 7.6679C12.4201 7.3619 12.4201 6.8939 12.1141 6.5879C11.8081 6.2819 11.3401 6.2819 11.0341 6.5879L8.11809 9.5219L6.66009 8.0639C6.35409 7.7579 5.88609 7.7579 5.58009 8.0639C5.27409 8.3699 5.27409 8.8379 5.58009 9.1439L7.57809 11.1239Z" fill="#F5F5F5"/>
</svg>
