<?xml version="1.0" encoding="utf-8"?>
<!-- Generator: Adobe Illustrator 23.1.1, SVG Export Plug-In . SVG Version: 6.00 Build 0)  -->
<svg version="1.1" id="Layer_1" xmlns="http://www.w3.org/2000/svg" xmlns:xlink="http://www.w3.org/1999/xlink" x="0px" y="0px"
	 viewBox="0 0 100 100" style="enable-background:new 0 0 100 100;" xml:space="preserve">
<style type="text/css">
	.st0{fill-rule:evenodd;clip-rule:evenodd;fill:#F5F5F5;}
</style>
<path class="st0" d="M61.2,50.5l32.1,32.1c3,3,3,7.7,0,10.7s-7.7,3-10.7,0L50.5,61.2L18.4,93.3c-3,3-7.7,3-10.7,0s-3-7.7,0-10.7
	l32.1-32.1L7.7,18.4c-3-3-3-7.7,0-10.7s7.7-3,10.7,0l32.1,32.1L82.6,7.7c3-3,7.7-3,10.7,0s3,7.7,0,10.7L61.2,50.5z"/>
</svg>
