<svg width="32" height="32" viewBox="0 0 32 32" fill="none" xmlns="http://www.w3.org/2000/svg">
<path fill-rule="evenodd" clip-rule="evenodd" d="M5.22075 7.94943C3.95887 8.23813 3.01746 9.36765 3.01746 10.7171V11.7656L5.22075 7.94943ZM3.01746 15.0704V21.9798C3.01746 23.5478 4.28857 24.8189 5.85656 24.8189H6.94879C6.8821 24.5776 6.84648 24.3234 6.84648 24.0609C6.84648 23.6575 6.93062 23.2737 7.08232 22.9262H5.85656C5.33389 22.9262 4.91019 22.5025 4.91019 21.9798V15.0704H3.01746ZM9.52371 9.77069H19.1258C19.6484 9.77069 20.0721 10.1944 20.0721 10.7171V11.834V17.3517V22.9262H12.2888C12.4405 23.2737 12.5247 23.6575 12.5247 24.0609C12.5247 24.3234 12.489 24.5776 12.4224 24.8189H21.0185H22.0907C22.024 24.5776 21.9883 24.3234 21.9883 24.0609C21.9883 23.6575 22.0725 23.2737 22.2242 22.9262H21.9649V18.298H29.6027V22.9262H27.4307C27.5824 23.2737 27.6665 23.6575 27.6665 24.0609C27.6665 24.3234 27.6309 24.5776 27.5642 24.8189H29.6027C30.648 24.8189 31.4954 23.9715 31.4954 22.9262V17.3517C31.4954 17.1007 31.3957 16.86 31.2182 16.6825L25.9777 11.442C25.6228 11.087 25.1413 10.8876 24.6394 10.8876H21.9649V10.7171C21.9649 9.14907 20.6937 7.87796 19.1258 7.87796H8.43094L9.52371 9.77069ZM21.9649 16.4053V12.7803H24.6394L28.2643 16.4053H21.9649Z" fill="#1C1C45"/>
<path fill-rule="evenodd" clip-rule="evenodd" d="M24.8274 25.1019C25.4023 25.1019 25.8684 24.6358 25.8684 24.0609C25.8684 23.486 25.4023 23.0199 24.8274 23.0199C24.2525 23.0199 23.7864 23.486 23.7864 24.0609C23.7864 24.6358 24.2525 25.1019 24.8274 25.1019ZM24.8274 26.9C26.3954 26.9 27.6665 25.6289 27.6665 24.0609C27.6665 22.4929 26.3954 21.2218 24.8274 21.2218C23.2594 21.2218 21.9883 22.4929 21.9883 24.0609C21.9883 25.6289 23.2594 26.9 24.8274 26.9Z" fill="#1C1C45"/>
<path fill-rule="evenodd" clip-rule="evenodd" d="M9.68566 25.1019C10.2606 25.1019 10.7267 24.6358 10.7267 24.0609C10.7267 23.486 10.2606 23.0199 9.68566 23.0199C9.11073 23.0199 8.64465 23.486 8.64465 24.0609C8.64465 24.6358 9.11073 25.1019 9.68566 25.1019ZM12.5248 24.0609C12.5248 25.6289 11.2536 26.9 9.68566 26.9C8.11767 26.9 6.84656 25.6289 6.84656 24.0609C6.84656 22.4929 8.11767 21.2218 9.68566 21.2218C11.2536 21.2218 12.5248 22.4929 12.5248 24.0609Z" fill="#1C1C45"/>
<path fill-rule="evenodd" clip-rule="evenodd" d="M9.22322 5.65409L13.3211 12.7518C14.3775 14.5815 13.057 16.8685 10.9443 16.8685H2.74856C0.635868 16.8685 -0.684561 14.5815 0.371783 12.7518L4.46967 5.65409C5.52602 3.82445 8.16688 3.82445 9.22322 5.65409ZM7.66602 6.55314C7.30177 5.92223 6.39113 5.92223 6.02687 6.55314L1.92898 13.6509C1.56472 14.2818 2.02004 15.0704 2.74856 15.0704H10.9443C11.6728 15.0704 12.1282 14.2818 11.7639 13.6509L7.66602 6.55314Z" fill="#1C1C45"/>
<path fill-rule="evenodd" clip-rule="evenodd" d="M6.65709 7.97266C7.07522 7.97266 7.41418 8.31162 7.41418 8.72975L7.41418 11.001C7.41418 11.4192 7.07522 11.7581 6.65709 11.7581C6.23896 11.7581 5.9 11.4192 5.9 11.001L5.9 8.72975C5.9 8.31162 6.23896 7.97266 6.65709 7.97266Z" fill="#1C1C45"/>
<path d="M7.41433 13.4617C7.41433 13.8798 7.07537 14.2187 6.65724 14.2187C6.23911 14.2187 5.90015 13.8798 5.90015 13.4617C5.90015 13.0435 6.23911 12.7046 6.65724 12.7046C7.07537 12.7046 7.41433 13.0435 7.41433 13.4617Z" fill="#1C1C45"/>
<path fill-rule="evenodd" clip-rule="evenodd" d="M6.65724 13.2724C6.55271 13.2724 6.46797 13.3571 6.46797 13.4617C6.46797 13.5662 6.55271 13.6509 6.65724 13.6509C6.76177 13.6509 6.84651 13.5662 6.84651 13.4617C6.84651 13.3571 6.76177 13.2724 6.65724 13.2724ZM6.65724 14.2187C7.07537 14.2187 7.41433 13.8798 7.41433 13.4617C7.41433 13.0435 7.07537 12.7046 6.65724 12.7046C6.23911 12.7046 5.90015 13.0435 5.90015 13.4617C5.90015 13.8798 6.23911 14.2187 6.65724 14.2187Z" fill="#1C1C45"/>
</svg>
