<svg width="51" height="51" viewBox="0 0 51 51" fill="none" xmlns="http://www.w3.org/2000/svg">
<path d="M35.676 37.4231C35.676 38.8212 34.5354 39.8882 33.1741 39.8882H13.3801C11.9821 39.8882 10.8783 38.7844 10.8783 37.4231V17.5556C10.8783 16.1943 12.0188 15.0905 13.3801 15.0905H23.4979L26.6988 11.8896H13.3801C10.216 11.8896 7.64062 14.4283 7.64062 17.5556V37.4231C7.64062 40.5872 10.216 43.1259 13.3801 43.1259H33.2109C36.375 43.1259 38.9504 40.5872 38.9504 37.4231V24.0677L35.7495 27.2686V37.4231H35.676Z" fill="#008BFF"/>
<path d="M41.857 13.3992L37.3684 8.94743C36.8901 8.46914 36.2278 8.1748 35.5656 8.1748C34.8665 8.1748 34.2411 8.43235 33.7628 8.91064L17.2065 25.4669C16.765 25.9084 16.5074 26.4971 16.4706 27.1226L16.1763 31.8687C16.1395 32.6045 16.3971 33.3404 16.9121 33.8555C17.3904 34.3338 18.0527 34.5913 18.7149 34.5913C18.7517 34.5913 18.8253 34.5913 18.8621 34.5913L23.645 34.297C24.2705 34.2602 24.8592 34.0026 25.3007 33.5611L41.8202 17.0416C42.2985 16.5633 42.556 15.9011 42.556 15.2388C42.5928 14.5398 42.3353 13.8775 41.857 13.3992ZM31.2977 15.9379L34.8665 19.5067L26.5884 27.748L23.0196 24.1792L31.2977 15.9379ZM23.2035 31.1329L19.414 31.3536L19.6347 27.5641L20.7017 26.4971L24.2705 30.0659L23.2035 31.1329ZM37.1108 17.1888L33.5788 13.6568L35.5656 11.67L39.1344 15.2388L37.1108 17.1888Z" fill="#008BFF"/>
</svg>
