<?xml version="1.0" encoding="UTF-8"?>
<svg id="Layer_2" data-name="Layer 2" xmlns="http://www.w3.org/2000/svg" xmlns:xlink="http://www.w3.org/1999/xlink" viewBox="0 0 82.27 80.58">
  <defs>
    <style>
      .cls-1, .cls-2 {
        fill: none;
      }

      .cls-3 {
        clip-path: url(#clippath);
      }

      .cls-4 {
        fill: #005db0;
      }

      .cls-5 {
        fill: #fff;
      }

      .cls-6, .cls-7 {
        fill: #4d4d4d;
      }

      .cls-7 {
        stroke-width: .5px;
      }

      .cls-7, .cls-2 {
        stroke: #4d4d4d;
        stroke-miterlimit: 10;
      }

      .cls-2 {
        stroke-width: 4px;
      }
    </style>
    <clipPath id="clippath">
      <polygon class="cls-1" points="1.42 34.07 41.19 58.45 78.69 35.51 78.69 0 4.54 0 1.42 34.07"/>
    </clipPath>
  </defs>
  <g id="Layer_1-2" data-name="Layer 1">
    <g>
      <g>
        <g>
          <path class="cls-2" d="M2,33.5v39.77c0,2.93,2.57,5.3,5.74,5.3H74.53c3.17,0,5.74-2.37,5.74-5.3V33.5H2Z"/>
          <path class="cls-6" d="M52.89,9.35l6.07,5.71,11.33,11.45h-29.15s-29.16,0-29.16,0l4.79-4.84,6.54-6.61,6.06-5.7h23.52m1.98-5H27.39l-7.57,7.12C13.21,18.15,6.61,24.83,0,31.5c27.42,0,54.85,0,82.27,0-6.61-6.68-13.21-13.35-19.82-20.03l-7.58-7.12h0Z"/>
        </g>
        <g class="cls-3">
          <g>
            <rect class="cls-4" x="5.42" y="3.85" width="71.4" height="57.76" rx="7.75" ry="7.75"/>
            <g>
              <g>
                <path class="cls-5" d="M24.7,26.51l-1.53-.88,1.53-.89c.86-.5,1.15-1.6,.66-2.46-.5-.86-1.6-1.16-2.46-.66l-1.53,.88v-1.77c0-.99-.81-1.8-1.8-1.8s-1.8,.81-1.8,1.8v1.77l-1.53-.89c-.86-.5-1.96-.2-2.46,.66-.5,.86-.2,1.96,.66,2.46l1.53,.88-1.53,.88c-.86,.5-1.16,1.6-.66,2.46,.5,.86,1.6,1.16,2.46,.66l1.53-.88v1.77c0,.99,.81,1.8,1.8,1.8s1.8-.81,1.8-1.8v-1.77l1.53,.88c.86,.5,1.96,.2,2.46-.66,.5-.86,.2-1.96-.66-2.46Z"/>
                <path class="cls-5" d="M46.22,26.51l-1.53-.88,1.53-.89c.86-.5,1.15-1.6,.66-2.46-.5-.86-1.6-1.16-2.46-.66l-1.53,.88v-1.77c0-.99-.81-1.8-1.8-1.8s-1.8,.81-1.8,1.8v1.77l-1.53-.89c-.86-.5-1.96-.2-2.46,.66-.5,.86-.2,1.96,.66,2.46l1.53,.88-1.53,.88c-.86,.5-1.16,1.6-.66,2.46,.5,.86,1.6,1.16,2.46,.66l1.53-.88v1.77c0,.99,.81,1.8,1.8,1.8s1.8-.81,1.8-1.8v-1.77l1.53,.88c.86,.5,1.96,.2,2.46-.66,.5-.86,.2-1.96-.66-2.46Z"/>
              </g>
              <path class="cls-5" d="M67.98,26.51l-1.53-.88,1.53-.89c.86-.5,1.15-1.6,.66-2.46-.5-.86-1.6-1.16-2.46-.66l-1.53,.88v-1.77c0-.99-.81-1.8-1.8-1.8s-1.8,.81-1.8,1.8v1.77l-1.53-.89c-.86-.5-1.96-.2-2.46,.66-.5,.86-.2,1.96,.66,2.46l1.53,.88-1.53,.88c-.86,.5-1.16,1.6-.66,2.46,.5,.86,1.6,1.16,2.46,.66l1.53-.88v1.77c0,.99,.81,1.8,1.8,1.8s1.8-.81,1.8-1.8v-1.77l1.53,.88c.86,.5,1.96,.2,2.46-.66,.5-.86,.2-1.96-.66-2.46Z"/>
            </g>
          </g>
        </g>
      </g>
      <path class="cls-7" d="M63.06,70.17c-.79-.29-1.49-.71-2.07-1.26s-1.04-1.24-1.37-2.06-.49-1.75-.49-2.81h0c0-.99,.16-1.88,.47-2.68s.75-1.5,1.32-2.08,1.25-1.03,2.03-1.35,1.65-.48,2.59-.48c1.2,0,2.27,.24,3.21,.73s1.67,1.18,2.21,2.08,.81,1.97,.81,3.2h0c0,.88-.11,1.61-.34,2.2s-.53,1.03-.92,1.33-.82,.45-1.3,.45-.89-.14-1.21-.41-.54-.61-.67-1l-.02-.07h-.07c-.18,.48-.46,.83-.84,1.07s-.82,.35-1.32,.35c-.54,0-1.01-.14-1.42-.42s-.72-.67-.95-1.17-.34-1.08-.34-1.75h0c0-.65,.12-1.22,.35-1.71s.55-.87,.95-1.15,.87-.41,1.4-.41c.41,0,.79,.1,1.14,.3s.59,.47,.74,.81h.06v-.96h1.17v3.84c0,.54,.1,.95,.29,1.21s.44,.4,.75,.4c.27,0,.51-.11,.72-.32s.36-.54,.48-.97,.17-.96,.17-1.6h0c0-1.03-.22-1.91-.65-2.65s-1.03-1.31-1.81-1.71-1.67-.6-2.7-.6c-.75,0-1.43,.13-2.06,.4s-1.17,.65-1.63,1.14-.82,1.07-1.07,1.75-.38,1.42-.38,2.23h0c0,1.18,.24,2.18,.71,3s1.11,1.44,1.92,1.86,1.73,.63,2.75,.63c.35,0,.69-.02,1.02-.05s.64-.08,.92-.13,.5-.12,.66-.2v1.07c-.34,.12-.74,.22-1.19,.28s-.93,.1-1.43,.1c-.95,0-1.82-.14-2.61-.43Zm3.47-4.5c.32-.4,.47-.94,.47-1.61h0c0-.68-.16-1.21-.47-1.61s-.73-.59-1.26-.59c-.35,0-.64,.09-.89,.26s-.43,.42-.57,.75-.2,.72-.2,1.17h0c0,.47,.07,.87,.2,1.19s.32,.58,.57,.76,.54,.27,.87,.27c.53,0,.96-.2,1.27-.6Z"/>
    </g>
  </g>
</svg>