<svg width="32" height="33" viewBox="0 0 32 33" fill="none" xmlns="http://www.w3.org/2000/svg">
<g clip-path="url(#clip0)">
<path d="M31.5787 25.2398L19.6297 4.54327C18.8807 3.24615 17.4976 2.44727 15.9996 2.44727C14.5015 2.44727 13.1181 3.24578 12.3691 4.54327L0.421142 25.2398C-0.327881 26.5366 -0.327881 28.1347 0.421142 29.4322C1.16979 30.7286 2.55324 31.5278 4.05128 31.5278H27.9486C29.4463 31.5278 30.8301 30.7289 31.5791 29.4322C32.3277 28.1347 32.3277 26.5366 31.5787 25.2398ZM17.2729 25.8054C17.2729 26.4726 16.7318 27.0132 16.0651 27.0132H15.9996C15.3328 27.0132 14.7921 26.4726 14.7921 25.8054V25.7403C14.7921 25.0731 15.3328 24.5328 15.9996 24.5328H16.0651C16.7318 24.5328 17.2729 25.0731 17.2729 25.7403V25.8054ZM17.207 22.0848C17.207 22.752 16.6667 23.2927 15.9996 23.2927C15.3328 23.2927 14.7921 22.752 14.7921 22.0848L14.0092 11.1185C14.0092 10.4517 15.3331 9.64987 15.9999 9.64987C16.6671 9.64987 17.991 10.4517 17.991 11.1185L17.207 22.0848Z" fill="#D8000C"/>
</g>
<defs>
<clipPath id="clip0">
<path d="M0 0.988281H32V32.9883H0V0.988281Z" fill="white"/>
</clipPath>
</defs>
</svg>
