<svg width="150" height="151" viewBox="0 0 150 151" fill="none" xmlns="http://www.w3.org/2000/svg">
<path d="M127.062 29.9375L116.688 19.5L106.25 29.9375L95.8125 19.5L85.4375 29.9375L75 19.5L64.5625 29.9375L54.1875 19.5L43.75 29.9375L33.3125 19.5L22.9375 29.9375L12.5 19.5V119.5C12.5 122.815 13.817 125.995 16.1612 128.339C18.5054 130.683 21.6848 132 25 132H80C76.8125 126.5 75 120.062 75 113.25C75 105.562 77.3125 98.4375 81.25 92.5V82H91.75C97.6875 78.0625 104.812 75.75 112.5 75.75C122.062 75.75 130.812 79.375 137.5 85.125V19.5L127.062 29.9375ZM68.75 119.5H25V82H68.75V119.5ZM125 69.5H25V50.75H125V69.5Z" fill="#2296BC"/>
<mask id="path-2-outside-1_152_22908" maskUnits="userSpaceOnUse" x="84.5" y="87.375" width="56" height="56" fill="black">
<rect fill="white" x="84.5" y="87.375" width="56" height="56"/>
<path fill-rule="evenodd" clip-rule="evenodd" d="M128.51 140.375L137.5 131.385L121.49 115.375L137.5 99.3646L128.51 90.375L112.5 106.385L96.4896 90.375L87.5 99.3646L103.51 115.375L87.5001 131.385L96.4897 140.375L112.5 124.365L128.51 140.375Z"/>
</mask>
<path fill-rule="evenodd" clip-rule="evenodd" d="M128.51 140.375L137.5 131.385L121.49 115.375L137.5 99.3646L128.51 90.375L112.5 106.385L96.4896 90.375L87.5 99.3646L103.51 115.375L87.5001 131.385L96.4897 140.375L112.5 124.365L128.51 140.375Z" fill="#848484"/>
<path d="M137.5 131.385L138.914 132.8L140.328 131.385L138.914 129.971L137.5 131.385ZM128.51 140.375L127.096 141.789L128.51 143.203L129.925 141.789L128.51 140.375ZM121.49 115.375L120.075 113.961L118.661 115.375L120.075 116.789L121.49 115.375ZM137.5 99.3646L138.914 100.779L140.328 99.3646L138.914 97.9504L137.5 99.3646ZM128.51 90.375L129.925 88.9608L128.51 87.5466L127.096 88.9608L128.51 90.375ZM112.5 106.385L111.086 107.8L112.5 109.214L113.914 107.8L112.5 106.385ZM96.4896 90.375L97.9038 88.9608L96.4896 87.5466L95.0754 88.9608L96.4896 90.375ZM87.5 99.3646L86.0858 97.9504L84.6716 99.3646L86.0858 100.779L87.5 99.3646ZM103.51 115.375L104.925 116.789L106.339 115.375L104.925 113.961L103.51 115.375ZM87.5001 131.385L86.0859 129.971L84.6717 131.385L86.0859 132.8L87.5001 131.385ZM96.4897 140.375L95.0755 141.789L96.4897 143.203L97.9039 141.789L96.4897 140.375ZM112.5 124.365L113.914 122.95L112.5 121.536L111.086 122.95L112.5 124.365ZM136.086 129.971L127.096 138.961L129.925 141.789L138.914 132.8L136.086 129.971ZM120.075 116.789L136.086 132.8L138.914 129.971L122.904 113.961L120.075 116.789ZM136.086 97.9504L120.075 113.961L122.904 116.789L138.914 100.779L136.086 97.9504ZM127.096 91.7892L136.086 100.779L138.914 97.9504L129.925 88.9608L127.096 91.7892ZM113.914 107.8L129.925 91.7892L127.096 88.9608L111.086 104.971L113.914 107.8ZM95.0754 91.7892L111.086 107.8L113.914 104.971L97.9038 88.9608L95.0754 91.7892ZM88.9142 100.779L97.9038 91.7892L95.0754 88.9608L86.0858 97.9504L88.9142 100.779ZM104.925 113.961L88.9142 97.9504L86.0858 100.779L102.096 116.789L104.925 113.961ZM88.9143 132.8L104.925 116.789L102.096 113.961L86.0859 129.971L88.9143 132.8ZM97.9039 138.961L88.9143 129.971L86.0859 132.8L95.0755 141.789L97.9039 138.961ZM111.086 122.95L95.0755 138.961L97.9039 141.789L113.914 125.779L111.086 122.95ZM129.925 138.961L113.914 122.95L111.086 125.779L127.096 141.789L129.925 138.961Z" fill="#848484" mask="url(#path-2-outside-1_152_22908)"/>
</svg>
