<svg width="152" height="150" viewBox="0 0 152 150" fill="none" xmlns="http://www.w3.org/2000/svg">
<path d="M120.786 134.901H20.5698C19.5357 134.901 18.6973 135.739 18.6973 136.774C18.6973 137.809 19.5357 138.646 20.5698 138.646H120.786C121.82 138.646 122.658 137.809 122.658 136.774C122.658 135.739 121.82 134.901 120.786 134.901Z" fill="#333333"/>
<path d="M120.786 119.012H20.5698C19.5357 119.012 18.6973 119.849 18.6973 120.884C18.6973 121.919 19.5357 122.757 20.5698 122.757H120.786C121.82 122.757 122.658 121.919 122.658 120.884C122.658 119.849 121.82 119.012 120.786 119.012Z" fill="#333333"/>
<path d="M20.5698 106.456H52.7798C53.8139 106.456 54.6523 105.619 54.6523 104.583C54.6523 103.548 53.8139 102.711 52.7798 102.711H20.5698C19.5357 102.711 18.6973 103.548 18.6973 104.583C18.6973 105.619 19.5357 106.456 20.5698 106.456Z" fill="#333333"/>
<path d="M20.5698 90.748H42.0456C43.0797 90.748 43.9181 89.9105 43.9181 88.8755C43.9181 87.8405 43.0797 87.0029 42.0456 87.0029H20.5698C19.5357 87.0029 18.6973 87.8405 18.6973 88.8755C18.6973 89.9105 19.5357 90.748 20.5698 90.748Z" fill="#333333"/>
<path d="M20.5698 74.7451H32.0986C33.1327 74.7451 33.9711 73.9076 33.9711 72.8725C33.9711 71.8375 33.1327 71 32.0986 71H20.5698C19.5357 71 18.6973 71.8375 18.6973 72.8725C18.6973 73.9076 19.5357 74.7451 20.5698 74.7451Z" fill="#333333"/>
<mask id="path-6-inside-1" fill="white">
<rect x="0.697266" y="26" width="139" height="124" rx="2"/>
</mask>
<rect x="0.697266" y="26" width="139" height="124" rx="2" stroke="#333333" stroke-width="7" mask="url(#path-6-inside-1)"/>
<mask id="path-7-inside-2" fill="white">
<rect x="0.697266" y="52" width="139" height="98" rx="2"/>
</mask>
<rect x="0.697266" y="52" width="139" height="98" rx="2" stroke="#333333" stroke-width="7" mask="url(#path-7-inside-2)"/>
<g clip-path="url(#clip0)">
<path d="M114.425 9.97049L114.424 9.97031C111.614 5.10326 106.424 2.10498 100.802 2.10498C95.1807 2.10498 89.9887 5.1016 87.1779 9.97058L49.4676 75.2936C49.4675 75.2937 49.4674 75.2939 49.4673 75.2941C46.6565 80.1608 46.657 86.1578 49.4673 91.0261L49.4675 91.0264C52.2769 95.8911 57.4684 98.8905 63.0901 98.8905H138.516C144.136 98.8905 149.329 95.8926 152.14 91.0266L152.14 91.0256C154.949 86.1575 154.95 80.1607 152.139 75.294C152.139 75.2939 152.138 75.2937 152.138 75.2936L114.425 9.97049ZM102.119 66.4078L102.113 66.4968V66.5861C102.113 67.3121 101.526 67.8983 100.802 67.8983C100.078 67.8983 99.4909 67.3116 99.4909 66.5861V66.497L99.4845 66.4081L97.035 32.0958C97.0606 32.0541 97.1005 31.9952 97.1613 31.9189C97.3888 31.6332 97.7714 31.281 98.2851 30.9292C98.7896 30.5836 99.3426 30.2918 99.8475 30.0934C100.388 29.8812 100.714 29.8382 100.803 29.8382C100.893 29.8382 101.219 29.8813 101.759 30.0935C102.264 30.2919 102.818 30.5837 103.322 30.9293C103.836 31.2811 104.218 31.6333 104.446 31.9189C104.507 31.9952 104.547 32.054 104.572 32.0958L102.119 66.4078ZM102.321 78.3291C102.321 79.0536 101.733 79.6413 101.009 79.6413H100.802C100.078 79.6413 99.4909 79.0546 99.4909 78.3291V78.1236C99.4909 77.3991 100.078 76.8126 100.802 76.8126H101.009C101.734 76.8126 102.321 77.4001 102.321 78.1236V78.3291Z" fill="#FFC4C4" stroke="#F5F5F5" stroke-width="5"/>
</g>
<defs>
<clipPath id="clip0">
<path d="M50.3027 0H151.303V101H50.3027V0Z" fill="white"/>
</clipPath>
</defs>
</svg>
