<svg width="32" height="32" viewBox="0 0 32 32" fill="none" xmlns="http://www.w3.org/2000/svg">
<g clip-path="url(#clip0)">
<path d="M31.5787 24.2515L19.6297 3.55498C18.8807 2.25787 17.4976 1.45898 15.9996 1.45898C14.5015 1.45898 13.1181 2.2575 12.3691 3.55498L0.421142 24.2515C-0.327881 25.5483 -0.327881 27.1464 0.421142 28.4439C1.16979 29.7403 2.55324 30.5395 4.05128 30.5395H27.9486C29.4463 30.5395 30.8301 29.7407 31.5791 28.4439C32.3277 27.1464 32.3277 25.5483 31.5787 24.2515ZM17.2729 24.8171C17.2729 25.4843 16.7318 26.0249 16.0651 26.0249H15.9996C15.3328 26.0249 14.7921 25.4843 14.7921 24.8171V24.752C14.7921 24.0848 15.3328 23.5446 15.9996 23.5446H16.0651C16.7318 23.5446 17.2729 24.0848 17.2729 24.752V24.8171ZM17.207 21.0966C17.207 21.7637 16.6667 22.3044 15.9996 22.3044C15.3328 22.3044 14.7921 21.7637 14.7921 21.0966L14.0092 10.1302C14.0092 9.46345 15.3331 8.66159 15.9999 8.66159C16.6671 8.66159 17.991 9.46345 17.991 10.1302L17.207 21.0966Z" fill="#333333"/>
</g>
<defs>
<clipPath id="clip0">
<path d="M0 0H32V32H0V0Z" fill="white"/>
</clipPath>
</defs>
</svg>
