<svg width="33" height="32" viewBox="0 0 33 32" fill="none" xmlns="http://www.w3.org/2000/svg">
<path fill-rule="evenodd" clip-rule="evenodd" d="M16.25 26C21.7728 26 26.25 21.5228 26.25 16C26.25 10.4772 21.7728 6 16.25 6C10.7272 6 6.25 10.4772 6.25 16C6.25 21.5228 10.7272 26 16.25 26ZM16.25 28C22.8774 28 28.25 22.6274 28.25 16C28.25 9.37258 22.8774 4 16.25 4C9.62258 4 4.25 9.37258 4.25 16C4.25 22.6274 9.62258 28 16.25 28Z" fill="#0CA86C"/>
<path fill-rule="evenodd" clip-rule="evenodd" d="M22.9679 11.3039C23.3524 11.7003 23.3426 12.3334 22.9461 12.7179L14.6961 20.7179C14.3083 21.094 13.6917 21.094 13.3039 20.7179L9.55385 17.0815C9.15737 16.6971 9.14763 16.064 9.5321 15.6675C9.91657 15.271 10.5497 15.2613 10.9461 15.6457L14 18.607L21.5539 11.2821C21.9503 10.8976 22.5834 10.9074 22.9679 11.3039Z" fill="#0CA86C"/>
</svg>
