<svg width="32" height="33" viewBox="0 0 32 33" fill="none" xmlns="http://www.w3.org/2000/svg">
<path fill-rule="evenodd" clip-rule="evenodd" d="M24.7071 25.4708C25.0976 25.0803 25.0976 24.4471 24.7071 24.0566L8.70711 8.05656C8.31658 7.66604 7.68342 7.66604 7.29289 8.05656C6.90237 8.44709 6.90237 9.08025 7.29289 9.47078L23.2929 25.4708C23.6834 25.8613 24.3166 25.8613 24.7071 25.4708Z" fill="#333333"/>
<path fill-rule="evenodd" clip-rule="evenodd" d="M7.29289 25.4708C7.68342 25.8613 8.31658 25.8613 8.70711 25.4708L24.7071 9.47078C25.0976 9.08025 25.0976 8.44709 24.7071 8.05656C24.3166 7.66604 23.6834 7.66604 23.2929 8.05656L7.29289 24.0566C6.90237 24.4471 6.90237 25.0803 7.29289 25.4708Z" fill="#333333"/>
</svg>
