<svg width="33" height="33" viewBox="0 0 33 33" fill="none" xmlns="http://www.w3.org/2000/svg">
<path fill-rule="evenodd" clip-rule="evenodd" d="M16.3335 27.0967C16.8858 27.0967 17.3335 26.649 17.3335 26.0967L17.3335 7.43001C17.3335 6.87773 16.8858 6.43001 16.3335 6.43001C15.7812 6.43001 15.3335 6.87773 15.3335 7.43001L15.3335 26.0967C15.3335 26.649 15.7812 27.0967 16.3335 27.0967Z" fill="#333333"/>
<path fill-rule="evenodd" clip-rule="evenodd" d="M6 16.7637C6 17.316 6.44772 17.7637 7 17.7637L25.6667 17.7637C26.219 17.7637 26.6667 17.316 26.6667 16.7637C26.6667 16.2114 26.219 15.7637 25.6667 15.7637L7 15.7637C6.44772 15.7637 6 16.2114 6 16.7637Z" fill="#333333"/>
</svg>
