<svg class='info-solid' width="32" height="33" viewBox="0 0 32 33" fill="none" xmlns="http://www.w3.org/2000/svg">
	<g clip-path="url(#clip0)">
		<path d="M16 0.988281C7.16373 0.988281 0 8.15201 0 16.9883C0 25.8245 7.16373 32.9883 16 32.9883C24.8363 32.9883 32 25.8245 32 16.9883C32 8.15201 24.8363 0.988281 16 0.988281ZM14.1511 23.8946V16.5701C14.1511 16.0798 14.3459 15.6095 14.6926 15.2628C15.0394 14.9161 15.5096 14.7213 16 14.7213C16.4904 14.7213 16.9606 14.9161 17.3074 15.2628C17.6541 15.6095 17.8489 16.0798 17.8489 16.5701V23.8946C17.8489 24.3849 17.6541 24.8552 17.3074 25.202C16.9606 25.5487 16.4904 25.7435 16 25.7435C15.5096 25.7435 15.0394 25.5487 14.6926 25.202C14.3459 24.8552 14.1511 24.3849 14.1511 23.8946V23.8946ZM16 12.7038C15.5605 12.7038 15.1308 12.5735 14.7654 12.3293C14.4 12.0851 14.1151 11.7381 13.9469 11.332C13.7787 10.926 13.7347 10.4791 13.8205 10.0481C13.9062 9.61701 14.1179 9.22105 14.4287 8.91027C14.7394 8.59948 15.1354 8.38784 15.5665 8.30209C15.9975 8.21635 16.4444 8.26035 16.8504 8.42855C17.2565 8.59674 17.6035 8.88157 17.8477 9.24701C18.0919 9.61246 18.2222 10.0421 18.2222 10.4816C18.2222 11.071 17.9881 11.6362 17.5713 12.053C17.1546 12.4697 16.5894 12.7038 16 12.7038Z" fill="#848484"/>
	</g>
	<defs>
		<clipPath id="clip0">
			<path d="M0 0.988281H32V32.9883H0V0.988281Z" fill="white"/>
		</clipPath>
	</defs>
</svg>
