<svg width="32" height="32" viewBox="0 0 32 32" fill="none" xmlns="http://www.w3.org/2000/svg">
<path fill-rule="evenodd" clip-rule="evenodd" d="M23 4H9C8.44772 4 8 4.44772 8 5V27C8 27.5523 8.44772 28 9 28H23C23.5523 28 24 27.5523 24 27V5C24 4.44771 23.5523 4 23 4ZM9 2C7.34315 2 6 3.34315 6 5V27C6 28.6569 7.34315 30 9 30H23C24.6569 30 26 28.6569 26 27V5C26 3.34315 24.6569 2 23 2H9Z" fill="#1C1C45"/>
<path fill-rule="evenodd" clip-rule="evenodd" d="M16 6C16.5523 6 17 6.44772 17 7V17C17 17.5523 16.5523 18 16 18C15.4477 18 15 17.5523 15 17V7C15 6.44772 15.4477 6 16 6Z" fill="#1C1C45"/>
<path fill-rule="evenodd" clip-rule="evenodd" d="M12.8618 8.68008C13.3852 8.23147 14.0662 8 14.75 8H18.5C19.0523 8 19.5 8.44772 19.5 9C19.5 9.55228 19.0523 10 18.5 10H14.75C14.5055 10 14.2964 10.0846 14.1634 10.1986C14.0351 10.3085 14 10.4215 14 10.5C14 10.5785 14.0351 10.6915 14.1634 10.8014C14.2964 10.9154 14.5055 11 14.75 11H17.25C17.9338 11 18.6149 11.2315 19.1382 11.6801C19.6664 12.1328 20 12.7828 20 13.5C20 14.2172 19.6664 14.8672 19.1382 15.3199C18.6148 15.7685 17.9338 16 17.25 16H13C12.4477 16 12 15.5523 12 15C12 14.4477 12.4477 14 13 14H17.25C17.4945 14 17.7036 13.9154 17.8366 13.8014C17.9649 13.6915 18 13.5785 18 13.5C18 13.4215 17.9649 13.3085 17.8366 13.1986C17.7036 13.0846 17.4945 13 17.25 13H14.75C14.0662 13 13.3852 12.7685 12.8618 12.3199C12.3336 11.8672 12 11.2172 12 10.5C12 9.78284 12.3336 9.13278 12.8618 8.68008Z" fill="#1C1C45"/>
<path fill-rule="evenodd" clip-rule="evenodd" d="M10 21C10 20.4477 10.4477 20 11 20H21C21.5523 20 22 20.4477 22 21C22 21.5523 21.5523 22 21 22H11C10.4477 22 10 21.5523 10 21Z" fill="#1C1C45"/>
<path fill-rule="evenodd" clip-rule="evenodd" d="M10 25C10 24.4477 10.4477 24 11 24H21C21.5523 24 22 24.4477 22 25C22 25.5523 21.5523 26 21 26H11C10.4477 26 10 25.5523 10 25Z" fill="#1C1C45"/>
</svg>
