<svg width="50" height="51" viewBox="0 0 50 51" fill="none" xmlns="http://www.w3.org/2000/svg">
<path d="M15.0744 41.8369C14.7844 41.8367 14.4966 41.7873 14.2239 41.6907C13.7648 41.5328 13.3663 41.2406 13.0821 40.8536C12.7979 40.4666 12.6418 40.0034 12.6349 39.5266V12.5785C12.6349 11.8514 12.9296 11.1541 13.4543 10.6399C13.9789 10.1258 14.6905 9.83691 15.4324 9.83691H34.5677C35.3097 9.83691 36.0212 10.1258 36.5459 10.6399C37.0705 11.1541 37.3653 11.8514 37.3653 12.5785V39.5266C37.3584 40.0035 37.2018 40.4666 36.9168 40.8532C36.6318 41.2397 36.2323 41.5309 35.7725 41.687C35.3019 41.8564 34.7894 41.8796 34.3048 41.7533C33.8203 41.6271 33.3872 41.3576 33.0645 40.9815L32.0686 39.83C31.9818 39.7269 31.8722 39.6443 31.7482 39.5886C31.6241 39.5329 31.4888 39.5055 31.3524 39.5084C31.2161 39.5077 31.0814 39.5369 30.9581 39.5938C30.8349 39.6507 30.7262 39.7339 30.6399 39.8374L30.3303 40.2029C30.0671 40.5116 29.7379 40.7599 29.366 40.9303C28.9941 41.1006 28.5886 41.1889 28.1781 41.1889C27.7676 41.1889 27.3621 41.1006 26.9902 40.9303C26.6183 40.7599 26.2891 40.5116 26.0258 40.2029L25.7312 39.8374C25.6433 39.7344 25.5335 39.6517 25.4094 39.5949C25.2853 39.5381 25.1501 39.5086 25.0131 39.5086C24.8762 39.5086 24.7409 39.5381 24.6169 39.5949C24.4928 39.6517 24.383 39.7344 24.2951 39.8374L24.0004 40.2029C23.7372 40.5116 23.408 40.7599 23.0361 40.9303C22.6642 41.1006 22.2587 41.1889 21.8482 41.1889C21.4376 41.1889 21.0321 41.1006 20.6603 40.9303C20.2884 40.7599 19.9592 40.5116 19.6959 40.2029L19.3826 39.8374C19.2966 39.7337 19.1879 39.6504 19.0646 39.5934C18.9412 39.5365 18.8065 39.5074 18.6701 39.5084C18.5345 39.5083 18.4005 39.5366 18.277 39.5915C18.1534 39.6463 18.0433 39.7264 17.954 39.8264L16.9357 40.9998C16.706 41.2634 16.4206 41.4748 16.0991 41.6194C15.7777 41.7639 15.428 41.8382 15.0744 41.8369ZM15.4474 11.6646C15.2 11.6646 14.9629 11.7609 14.788 11.9323C14.6131 12.1037 14.5148 12.3361 14.5148 12.5785V39.4828C14.5122 39.5905 14.5453 39.6962 14.6092 39.7839C14.6731 39.8715 14.7643 39.9365 14.8692 39.969C14.9831 40.0119 15.1078 40.0191 15.226 39.9897C15.3443 39.9602 15.4503 39.8955 15.5294 39.8045L16.5515 38.6347C16.8131 38.3325 17.1389 38.0899 17.5062 37.9238C17.8734 37.7578 18.2732 37.6723 18.6776 37.6733H18.6963C19.0995 37.6786 19.4968 37.7695 19.8606 37.9399C20.2245 38.1103 20.5463 38.3561 20.8037 38.6603L21.1208 39.0258C21.2083 39.1287 21.3178 39.2114 21.4416 39.2682C21.5653 39.325 21.7003 39.3544 21.837 39.3544C21.9736 39.3544 22.1086 39.325 22.2324 39.2682C22.3561 39.2114 22.4656 39.1287 22.5531 39.0258L22.8516 38.6786C23.1137 38.3688 23.4423 38.1195 23.814 37.9484C24.1857 37.7773 24.5913 37.6886 25.0019 37.6886C25.4126 37.6886 25.8182 37.7773 26.1899 37.9484C26.5615 38.1195 26.8902 38.3688 27.1523 38.6786L27.4507 39.0258C27.5382 39.1287 27.6478 39.2114 27.7715 39.2682C27.8953 39.325 28.0303 39.3544 28.1669 39.3544C28.3036 39.3544 28.4385 39.325 28.5623 39.2682C28.6861 39.2114 28.7956 39.1287 28.8831 39.0258L29.1927 38.6603C29.454 38.3521 29.7812 38.1039 30.1512 37.9334C30.5211 37.7628 30.9249 37.674 31.3337 37.6733C31.7436 37.6713 32.1488 37.7578 32.5208 37.9264C32.8927 38.0951 33.2223 38.3419 33.486 38.6493L34.4819 39.8008C34.5601 39.892 34.6655 39.9569 34.7832 39.9864C34.9009 40.0159 35.0252 40.0085 35.1384 39.9653C35.2449 39.9392 35.3395 39.879 35.407 39.7942C35.4746 39.7095 35.5114 39.605 35.5114 39.4974V12.5785C35.5114 12.3361 35.4132 12.1037 35.2383 11.9323C35.0634 11.7609 34.8262 11.6646 34.5789 11.6646H15.4474Z" fill="#005DAA"/>
<path d="M33.3144 29.398H16.7007C16.4534 29.398 16.2162 29.3018 16.0413 29.1304C15.8664 28.959 15.7682 28.7266 15.7682 28.4842C15.7682 28.2418 15.8664 28.0094 16.0413 27.838C16.2162 27.6666 16.4534 27.5703 16.7007 27.5703H33.3144C33.5618 27.5703 33.799 27.6666 33.9738 27.838C34.1487 28.0094 34.247 28.2418 34.247 28.4842C34.247 28.7266 34.1487 28.959 33.9738 29.1304C33.799 29.3018 33.5618 29.398 33.3144 29.398Z" fill="#005DAA"/>
<path d="M21.1768 33.4732H16.7007C16.4534 33.4732 16.2162 33.377 16.0413 33.2056C15.8664 33.0342 15.7682 32.8017 15.7682 32.5594C15.7682 32.317 15.8664 32.0846 16.0413 31.9132C16.2162 31.7418 16.4534 31.6455 16.7007 31.6455H21.1768C21.4241 31.6455 21.6613 31.7418 21.8362 31.9132C22.0111 32.0846 22.1093 32.317 22.1093 32.5594C22.1093 32.8017 22.0111 33.0342 21.8362 33.2056C21.6613 33.377 21.4241 33.4732 21.1768 33.4732Z" fill="#005DAA"/>
<path d="M33.3143 33.4732H24.4815C24.2341 33.4732 23.997 33.377 23.8221 33.2056C23.6472 33.0342 23.549 32.8017 23.549 32.5594C23.549 32.317 23.6472 32.0846 23.8221 31.9132C23.997 31.7418 24.2341 31.6455 24.4815 31.6455H33.3143C33.5616 31.6455 33.7988 31.7418 33.9737 31.9132C34.1485 32.0846 34.2468 32.317 34.2468 32.5594C34.2468 32.8017 34.1485 33.0342 33.9737 33.2056C33.7988 33.377 33.5616 33.4732 33.3143 33.4732Z" fill="#005DAA"/>
<path d="M27.5922 22.3053C27.1271 22.754 26.5386 23.0602 25.8988 23.1863V23.9539C25.9014 24.0543 25.8828 24.1542 25.8443 24.2473C25.8058 24.3403 25.7482 24.4246 25.675 24.4949C25.6017 24.5654 25.5148 24.6208 25.4193 24.6579C25.3239 24.6949 25.2218 24.7128 25.1192 24.7106C25.0199 24.7124 24.9213 24.6942 24.8296 24.6571C24.7378 24.62 24.6548 24.5648 24.5858 24.4949C24.5139 24.424 24.4576 24.3394 24.4204 24.2464C24.3832 24.1533 24.3658 24.0538 24.3694 23.9539V23.2594C23.9395 23.2258 23.5171 23.1297 23.1161 22.9742C22.7087 22.8119 22.3308 22.586 21.9971 22.3053C21.8941 22.227 21.81 22.1275 21.7507 22.0138C21.6914 21.9001 21.6583 21.7749 21.6539 21.6473C21.6542 21.5539 21.6734 21.4615 21.7106 21.3755C21.7477 21.2895 21.802 21.2117 21.8703 21.1465C21.937 21.0764 22.0179 21.0208 22.1078 20.983C22.1977 20.9452 22.2947 20.9262 22.3925 20.9272C22.55 20.9267 22.7029 20.9797 22.8252 21.077C23.0567 21.2642 23.3066 21.4283 23.5712 21.5669C23.8141 21.6896 24.0764 21.7711 24.347 21.8081V19.3919C22.6586 19.0848 21.8131 18.2514 21.8106 16.8915C21.8001 16.5761 21.8582 16.262 21.9811 15.9702C22.1039 15.6784 22.2886 15.4155 22.523 15.1991C23.038 14.7368 23.6928 14.4519 24.3881 14.3875V13.9854C24.386 13.8856 24.4047 13.7865 24.4432 13.6941C24.4817 13.6016 24.5391 13.5179 24.6119 13.4481C24.6836 13.3763 24.7696 13.3198 24.8646 13.2821C24.9596 13.2443 25.0615 13.2262 25.1639 13.2288C25.2641 13.2267 25.3636 13.2451 25.4561 13.2829C25.5486 13.3206 25.632 13.3769 25.7011 13.4481C25.7725 13.5186 25.8285 13.6025 25.8657 13.6949C25.9029 13.7873 25.9205 13.8862 25.9174 13.9854V14.446C26.57 14.5409 27.1846 14.806 27.6966 15.2137C27.8076 15.2866 27.8992 15.3842 27.9641 15.4986C28.0289 15.613 28.0651 15.7409 28.0697 15.8717C28.0703 15.9652 28.0514 16.0578 28.0142 16.1439C27.977 16.23 27.9222 16.3078 27.8533 16.3725C27.7891 16.4415 27.7107 16.4964 27.6232 16.5335C27.5358 16.5707 27.4413 16.5893 27.346 16.5881C27.2225 16.5895 27.1019 16.5509 27.0029 16.4785C26.6788 16.237 26.3121 16.0561 25.9211 15.9448V18.2404C26.5783 18.3612 27.1902 18.6528 27.6929 19.0848C27.8927 19.3021 28.046 19.5563 28.1441 19.8325C28.2421 20.1087 28.2827 20.4014 28.2636 20.6932C28.2699 20.9926 28.2136 21.2901 28.0981 21.5673C27.9827 21.8446 27.8105 22.0957 27.5922 22.3053ZM23.5786 17.502C23.8059 17.6957 24.077 17.8336 24.3694 17.9041V15.8461C24.075 15.8893 23.8 16.0164 23.5786 16.2116C23.4925 16.2935 23.4245 16.392 23.379 16.5008C23.3334 16.6096 23.3112 16.7264 23.3138 16.844C23.3094 16.9656 23.3306 17.0869 23.3762 17.2001C23.4218 17.3133 23.4907 17.4161 23.5786 17.502ZM26.4956 21.3073C26.6387 21.1678 26.7204 20.9788 26.7231 20.781C26.727 20.5646 26.656 20.3532 26.5217 20.1815C26.353 19.9909 26.1391 19.844 25.8988 19.7538V21.7021C26.1243 21.614 26.3278 21.4793 26.4956 21.3073Z" fill="#005DAA"/>
</svg>
