<svg width="25" height="33" class='secure-lock-icon' viewBox="0 0 25 33" fill="none" xmlns="http://www.w3.org/2000/svg">
<path d="M23.2384 14.3767H21.4835C21.2585 14.3767 21.0335 14.1967 21.0335 13.9267V9.78685C21.0335 5.01698 17.3436 0.967084 12.5737 0.787088C7.57885 0.607093 3.43895 4.61199 3.43895 9.60686V13.9717C3.43895 14.1967 3.25896 14.4217 2.98896 14.4217H1.23401C0.559029 14.4217 0.019043 14.9617 0.019043 15.6367V31.5663C0.019043 32.2413 0.559029 32.7812 1.23401 32.7812H23.1934C23.8684 32.7812 24.4084 32.2413 24.4084 31.5663V15.5917C24.4534 14.9167 23.9134 14.3767 23.2384 14.3767ZM6.18388 9.60686C6.18388 6.14195 9.06381 3.35202 12.5737 3.53202C15.8586 3.71201 18.3786 6.50194 18.3786 9.78685V13.9717C18.3786 14.1967 18.1986 14.4217 17.9286 14.4217H6.58887C6.36388 14.4217 6.13888 14.2417 6.13888 13.9717V9.60686H6.18388Z" fill="white"/>
</svg>
