<svg class='lock' width="25" height="33" viewBox="0 0 25 33" fill="none" xmlns="http://www.w3.org/2000/svg">
	<path d="M23.3195 14.0427H21.5645C21.3395 14.0427 21.1145 13.8628 21.1145 13.5928V9.45287C21.1145 4.68299 17.4246 0.633099 12.6548 0.453104C7.6599 0.273109 3.52001 4.278 3.52001 9.27287V13.6378C3.52001 13.8628 3.34001 14.0877 3.07002 14.0877H1.31507C0.640083 14.0877 0.100098 14.6277 0.100098 15.3027V31.2323C0.100098 31.9073 0.640083 32.4473 1.31507 32.4473H23.2745C23.9495 32.4473 24.4895 31.9073 24.4895 31.2323V15.2577C24.5345 14.5827 23.9945 14.0427 23.3195 14.0427ZM6.26494 9.27287C6.26494 5.80796 9.14486 3.01804 12.6548 3.19803C15.9397 3.37803 18.4596 6.16795 18.4596 9.45287V13.6378C18.4596 13.8628 18.2796 14.0877 18.0096 14.0877H6.66992C6.44493 14.0877 6.21994 13.9078 6.21994 13.6378V9.27287H6.26494Z" fill="#0AC27B"/>
</svg>
