<svg width="38" height="62" viewBox="0 0 38 62" fill="none" xmlns="http://www.w3.org/2000/svg">
<path d="M35.6477 45.0834C34.7791 45.0834 34.076 44.3803 34.076 43.5117V5.00467C34.076 4.50834 33.8692 4.05337 33.497 3.68112C33.1247 3.30887 32.587 3.10207 32.008 3.10207H5.90923C4.79248 3.10207 3.84118 3.97065 3.84118 5.00467V6.08005H29.6917C30.5603 6.08005 31.2635 6.78319 31.2635 7.65177C31.2635 8.52035 30.5603 9.22348 29.6917 9.22348H2.26947C1.85586 9.22348 1.44225 9.05804 1.15272 8.76851C0.863198 8.47899 0.697754 8.06538 0.697754 7.65177V5.04603C0.697754 2.27485 3.01397 0 5.86787 0H31.9666C33.3315 0 34.6551 0.496331 35.6064 1.44763C36.599 2.39893 37.1367 3.68112 37.1367 5.04603V43.553C37.2194 44.3803 36.5163 45.0834 35.6477 45.0834Z" fill="#333333"/>
<path d="M32.0494 62.0001H5.95063C4.58572 62.0001 3.26217 61.5038 2.31087 60.5525C1.31821 59.6012 0.780518 58.319 0.780518 56.9541V13.6078C0.780518 12.7393 1.48365 12.0361 2.35223 12.0361C3.22081 12.0361 3.92395 12.7393 3.92395 13.6078V56.9541C3.92395 57.4504 4.13075 57.9054 4.503 58.2776C4.87525 58.6499 5.41294 58.8567 5.99199 58.8567H32.0907C32.6698 58.8567 33.1661 58.6499 33.5797 58.2776C33.952 57.9054 34.1588 57.4504 34.1588 56.9541V50.5845H8.3082C7.43962 50.5845 6.73649 49.8814 6.73649 49.0128C6.73649 48.1442 7.43962 47.4411 8.3082 47.4411H35.7305C36.1441 47.4411 36.5577 47.6065 36.8472 47.896C37.1368 48.1856 37.3022 48.5992 37.3022 49.0128V56.9541C37.3022 58.319 36.7645 59.6012 35.7719 60.5525C34.6965 61.5038 33.4143 62.0001 32.0494 62.0001Z" fill="#333333"/>
<path d="M22.8259 56.2921H15.1327C14.2642 56.2921 13.561 55.589 13.561 54.7204C13.561 53.8518 14.2642 53.1487 15.1327 53.1487H22.8259C23.6945 53.1487 24.3976 53.8518 24.3976 54.7204C24.3976 55.589 23.6945 56.2921 22.8259 56.2921Z" fill="#333333"/>
</svg>
