<svg width="62" height="62" viewBox="0 0 62 62" fill="none" xmlns="http://www.w3.org/2000/svg">
<path d="M62 0H0V54H4.404C5.679 58.605 9.896 62 14.901 62C16.796 62 18.667 61.503 20.31 60.563L31 54.455L41.689 60.563C43.333 61.503 45.204 62 47.099 62C52.104 62 56.321 58.605 57.596 54H62V0ZM60 2V8H2V2H60ZM56 51.099C56 56.007 52.007 60 47.099 60C45.552 60 44.025 59.595 42.682 58.827L33.016 53.304L35.031 52.153L43.675 57.091C44.714 57.686 45.898 58 47.099 58C50.904 58 54 54.904 54 51.099V50.902C54 47.096 50.904 44 47.099 44C45.899 44 44.714 44.314 43.674 44.909L19.318 58.827C17.976 59.595 16.448 60 14.901 60C9.993 60 6 56.007 6 51.099V50.902C6 45.993 9.993 42 14.901 42C16.448 42 17.975 42.405 19.318 43.173L28.984 48.696L26.969 49.848L18.325 44.909C17.286 44.314 16.102 44 14.901 44C11.096 44 8 47.096 8 50.901V51.098C8 54.904 11.096 58 14.901 58C16.101 58 17.286 57.686 18.326 57.091L42.681 43.173C44.024 42.405 45.552 42 47.099 42C52.007 42 56 45.993 56 50.901V51.099ZM37.046 51L44.666 46.646C45.404 46.224 46.246 46 47.099 46C49.801 46 52 48.199 52 50.901V51.098C52 53.801 49.801 56 47.099 56C46.246 56 45.405 55.776 44.666 55.354L37.046 51ZM24.954 51L17.334 55.354C16.596 55.776 15.754 56 14.901 56C12.199 56 10 53.801 10 51.099V50.902C10 48.199 12.199 46 14.901 46C15.754 46 16.595 46.224 17.334 46.646L24.954 51ZM57.954 52C57.979 51.702 58 51.403 58 51.099V50.902C58 44.891 53.109 40 47.099 40C45.204 40 43.333 40.497 41.69 41.437L31 47.545L20.311 41.437C18.667 40.497 16.796 40 14.901 40C8.891 40 4 44.891 4 50.901V51.098C4 51.403 4.021 51.702 4.046 52H2V10H60V52H57.954Z" fill="#333333"/>
<path d="M4 38H30V12H4V38ZM6 14H28V36H6V14Z" fill="#333333"/>
<path d="M26 16H8V18H26V16Z" fill="#333333"/>
<path d="M22 20H8V22H22V20Z" fill="#333333"/>
<path d="M26 20H24V22H26V20Z" fill="#333333"/>
<path d="M26 24H12V26H26V24Z" fill="#333333"/>
<path d="M10 24H8V26H10V24Z" fill="#333333"/>
<path d="M26 28H8V30H26V28Z" fill="#333333"/>
<path d="M22 32H8V34H22V32Z" fill="#333333"/>
<path d="M32 38H58V12H32V38ZM34 14H56V36H34V14Z" fill="#333333"/>
<path d="M54 16H36V18H54V16Z" fill="#333333"/>
<path d="M38 20H36V22H38V20Z" fill="#333333"/>
<path d="M54 20H40V22H54V20Z" fill="#333333"/>
<path d="M54 24H36V26H54V24Z" fill="#333333"/>
<path d="M54 28H36V30H54V28Z" fill="#333333"/>
<path d="M50 32H36V34H50V32Z" fill="#333333"/>
<path d="M6 4H4V6H6V4Z" fill="#333333"/>
<path d="M10 4H8V6H10V4Z" fill="#333333"/>
<path d="M14 4H12V6H14V4Z" fill="#333333"/>
<path d="M54 32H52V34H54V32Z" fill="#333333"/>
<path d="M26 32H24V34H26V32Z" fill="#333333"/>
</svg>
