<svg width="48" height="62" viewBox="0 0 48 62" fill="none" xmlns="http://www.w3.org/2000/svg">
<path d="M42.6862 12.4131H9.96033V31.6636H42.6198V12.4131H42.6862ZM12.6156 15.0683H39.9646V28.3446L34.9196 21.0426C34.2558 20.1133 32.7291 20.1133 32.0652 21.0426L27.0867 28.4773L24.7633 25.0919C24.0995 24.1625 22.5727 24.1625 21.9089 25.0919L19.4528 28.6765C19.3864 28.8092 19.3201 28.942 19.2537 29.0747H12.6156V15.0683Z" fill="#333333"/>
<path d="M17.5278 23.3661C19.3975 23.3661 20.9132 21.8504 20.9132 19.9807C20.9132 18.1109 19.3975 16.5952 17.5278 16.5952C15.658 16.5952 14.1423 18.1109 14.1423 19.9807C14.1423 21.8504 15.658 23.3661 17.5278 23.3661Z" fill="#333333"/>
<path d="M42.0224 34.8501H10.3586C9.82758 34.8501 9.36292 35.3148 9.36292 35.8458C9.36292 36.3769 9.82758 36.8415 10.3586 36.8415H42.0888C42.6199 36.8415 43.0845 36.3769 43.0845 35.8458C43.0845 35.3148 42.5535 34.8501 42.0224 34.8501Z" fill="#333333"/>
<path d="M42.0224 41.4883H10.3586C9.82758 41.4883 9.36292 41.9529 9.36292 42.484C9.36292 43.015 9.82758 43.4797 10.3586 43.4797H42.0888C42.6199 43.4797 43.0845 43.015 43.0845 42.484C43.0845 41.9529 42.5535 41.4883 42.0224 41.4883Z" fill="#333333"/>
<path d="M42.0224 6.96997H10.3586C9.82758 6.96997 9.36292 7.43464 9.36292 7.96569C9.36292 8.49674 9.82758 8.9614 10.3586 8.9614H42.0888C42.6199 8.9614 43.0845 8.49674 43.0845 7.96569C43.0845 7.43464 42.5535 6.96997 42.0224 6.96997Z" fill="#333333"/>
<path d="M42.0224 48.1265H10.3586C9.82758 48.1265 9.36292 48.5911 9.36292 49.1222C9.36292 49.6532 9.82758 50.1179 10.3586 50.1179H42.0888C42.6199 50.1179 43.0845 49.6532 43.0845 49.1222C43.0845 48.5911 42.5535 48.1265 42.0224 48.1265Z" fill="#333333"/>
<path d="M43.6156 0H9.03104C6.84046 0 5.04817 1.79229 5.04817 3.98287V5.70878H4.38436C2.19378 5.70878 0.401489 7.50107 0.401489 9.69165V58.0171C0.401489 60.2077 2.19378 62 4.38436 62H38.1724C40.3629 62 42.1552 60.2077 42.1552 58.0171V57.3533H43.6156C45.8062 57.3533 47.5985 55.561 47.5985 53.3704V3.98287C47.5985 1.79229 45.8062 0 43.6156 0ZM39.5 58.0171C39.5 58.7473 38.9025 59.3447 38.1724 59.3447H4.38436C3.65416 59.3447 3.05673 58.7473 3.05673 58.0171V9.69165C3.05673 8.96145 3.65416 8.36402 4.38436 8.36402H5.04817V53.3704C5.04817 55.561 6.84046 57.3533 9.03104 57.3533H39.5V58.0171ZM44.9432 53.3704C44.9432 54.1006 44.3458 54.6981 43.6156 54.6981H9.03104C8.30084 54.6981 7.70341 54.1006 7.70341 53.3704V3.98287C7.70341 3.25268 8.30084 2.65525 9.03104 2.65525H43.6156C44.3458 2.65525 44.9432 3.25268 44.9432 3.98287V53.3704Z" fill="#333333"/>
</svg>
