<svg width="51" height="51" viewBox="0 0 51 51" fill="none" xmlns="http://www.w3.org/2000/svg">
<path d="M32.0913 8.64941H17.7006C16.1983 8.64941 15.0122 9.83546 15.0122 11.3378V39.961C15.0122 41.4238 16.1983 42.6494 17.7006 42.6494H32.0913C33.5541 42.6494 34.7796 41.4634 34.7796 39.961V11.3378C34.7796 9.83546 33.5936 8.64941 32.0913 8.64941ZM33.1983 39.961C33.1983 40.5541 32.6843 41.068 32.0913 41.068H17.7006C17.1076 41.068 16.5936 40.5541 16.5936 39.961V11.3378C16.5936 10.7448 17.1076 10.2308 17.7006 10.2308H20.5471C20.5471 11.1006 21.2587 11.8122 22.1285 11.8122H27.6634C28.5331 11.8122 29.2448 11.1006 29.2448 10.2308H32.0913C32.6843 10.2308 33.1983 10.7448 33.1983 11.3378V39.961Z" fill="#005DAA" stroke="#005DAA"/>
</svg>
