<svg width="32" height="32" viewBox="0 0 32 32" fill="none" xmlns="http://www.w3.org/2000/svg">
<path fill-rule="evenodd" clip-rule="evenodd" d="M10.2857 4C9.69279 4 9 4.59141 9 5.6V26.4C9 27.4086 9.69279 28 10.2857 28H21.7143C22.3072 28 23 27.4086 23 26.4V5.6C23 4.59141 22.3072 4 21.7143 4H10.2857ZM7 5.6C7 3.73671 8.35391 2 10.2857 2H21.7143C23.6461 2 25 3.73671 25 5.6V26.4C25 28.2633 23.6461 30 21.7143 30H10.2857C8.35391 30 7 28.2633 7 26.4V5.6Z" fill="#1C1C45"/>
<path d="M13 4H19C19 4.55228 18.5523 5 18 5H14C13.4477 5 13 4.55228 13 4Z" fill="#333333"/>
</svg>
