<?xml version="1.0" encoding="UTF-8"?>
<svg id="Layer_2" data-name="Layer 2" xmlns="http://www.w3.org/2000/svg" viewBox="0 0 183.53 191.4">
  <defs>
    <style>
      .cls-1 {
        fill: #005db0;
      }

      .cls-2, .cls-3 {
        fill: #fff;
      }

      .cls-4, .cls-5 {
        fill: #4d4d4d;
      }

      .cls-5, .cls-3 {
        stroke-miterlimit: 10;
      }

      .cls-5, .cls-3, .cls-6 {
        stroke: #4d4d4d;
      }

      .cls-3, .cls-6 {
        stroke-width: 7px;
      }

      .cls-6 {
        fill: none;
        stroke-linecap: round;
        stroke-linejoin: round;
      }
    </style>
  </defs>
  <g id="Layer_1-2" data-name="Layer 1">
    <g>
      <rect class="cls-4" width="99.81" height="191.4" rx="19.14" ry="19.14" transform="translate(99.81 191.4) rotate(180)"/>
      <rect class="cls-2" x="7.19" y="7.19" width="85.55" height="177.24" rx="12.9" ry="12.9" transform="translate(99.93 191.62) rotate(180)"/>
    </g>
    <g>
      <g>
        <path class="cls-3" d="M58.49,90.62c-6.48,0-11.73,6.65-11.73,14.86v70.94c0,6.31,4.38,11.43,9.78,11.43h113.71c5.4,0,9.78-5.12,9.78-11.43V105.48c0-2.99-.7-5.77-1.89-8.1-2.09-4.07-5.72-6.76-9.83-6.76H58.49Z"/>
        <path class="cls-5" d="M150.72,173.55c-1.35-.49-2.53-1.21-3.53-2.15s-1.78-2.12-2.33-3.51-.83-2.99-.83-4.78h0c0-1.68,.26-3.19,.79-4.56s1.28-2.55,2.25-3.54,2.13-1.76,3.46-2.3,2.8-.81,4.41-.81c2.04,0,3.86,.42,5.46,1.25s2.85,2.02,3.77,3.55c.92,1.53,1.37,3.35,1.37,5.45h0c0,1.5-.19,2.74-.57,3.74s-.91,1.76-1.57,2.27-1.4,.76-2.22,.76-1.51-.23-2.05-.7-.92-1.04-1.14-1.71l-.04-.12h-.12c-.31,.81-.79,1.42-1.43,1.82s-1.39,.6-2.24,.6c-.92,0-1.72-.24-2.41-.71s-1.23-1.14-1.61-1.99-.57-1.84-.57-2.98h0c0-1.11,.2-2.08,.59-2.91s.93-1.48,1.63-1.95,1.49-.7,2.39-.7c.7,0,1.35,.17,1.94,.52s1.01,.8,1.26,1.38h.11v-1.64h2v6.53c0,.92,.16,1.61,.49,2.07s.75,.68,1.27,.68c.47,0,.87-.18,1.22-.55s.62-.91,.82-1.64,.3-1.64,.3-2.73h0c0-1.75-.37-3.25-1.1-4.51s-1.76-2.23-3.08-2.92-2.85-1.03-4.59-1.03c-1.27,0-2.44,.23-3.5,.68s-1.99,1.1-2.77,1.94-1.39,1.83-1.82,2.98-.65,2.41-.65,3.79h0c0,2.02,.4,3.71,1.2,5.11s1.89,2.44,3.27,3.16c1.38,.72,2.94,1.07,4.68,1.07,.59,0,1.17-.03,1.74-.08s1.09-.13,1.57-.23,.85-.21,1.13-.34v1.82c-.58,.21-1.26,.37-2.03,.48s-1.58,.17-2.44,.17c-1.61,0-3.09-.24-4.45-.73Zm5.91-7.67c.54-.68,.81-1.59,.81-2.74h0c0-1.16-.27-2.07-.81-2.74s-1.25-1.01-2.14-1.01c-.59,0-1.09,.15-1.51,.44s-.74,.72-.96,1.27-.34,1.22-.34,2h0c0,.8,.11,1.47,.34,2.03s.55,.99,.96,1.29,.91,.46,1.49,.46c.91,0,1.63-.34,2.17-1.02Z"/>
      </g>
      <polyline class="cls-6" points="180.03 110.59 113.4 147.33 46.77 110.59"/>
    </g>
    <g>
      <g>
        <path class="cls-4" d="M89.78,99.45h-2.49v-15.6c0-10.45-7.8-18.96-17.38-18.96h-5.2c-9.58,0-17.38,8.5-17.38,18.96v15.59h-2.49c-1.79,.02-3.59,.02-5.4,.02-1.61,0-7.3-.02-7.3-.02v-15.59c0-19.28,14.61-34.96,32.57-34.96h5.2c17.96,0,32.57,15.68,32.57,34.96v15.59h-2.49c-1.7,.02-3.4,.02-5.11,.02,0,0-3.57,0-5.1-.01Z"/>
        <path class="cls-2" d="M69.92,51.4c16.58,0,30.07,14.56,30.07,32.46v13.1c-1.69,0-3.39,.01-5.09,.01-.16,0-.32,0-.49,0-1.54,0-3.08,0-4.62-.01v-13.1c0-11.83-8.92-21.46-19.88-21.46h-5.2c-10.96,0-19.88,9.63-19.88,21.46v13.1c-1.69,0-3.39,.01-5.09,.01-.1,0-.2,0-.3,0-1.61,0-3.21,0-4.8-.01v-13.1c0-17.9,13.49-32.46,30.07-32.46h5.2m0-5h-5.2c-19.34,0-35.07,16.8-35.07,37.46v18.07l4.98,.02c1.6,0,3.21,.01,4.83,.01h.3c1.71,0,3.41,0,5.11-.01l4.98-.02v-18.07c0-9.07,6.67-16.46,14.88-16.46h5.2c8.2,0,14.88,7.38,14.88,16.46v18.07l4.98,.02c1.54,0,3.09,.01,4.64,.01h.49c1.71,0,3.42,0,5.11-.01l4.98-.02v-18.07c0-20.65-15.73-37.46-35.07-37.46h0Z"/>
      </g>
      <g>
        <path class="cls-1" d="M39.34,156.63c-11.26,0-20.42-8.05-20.42-17.96v-34.76c0-9.9,9.16-17.96,20.42-17.96h53.81c11.26,0,20.42,8.05,20.42,17.96v34.76c0,9.9-9.16,17.96-20.42,17.96H39.34Zm29.08-27.06l-1.57-11.14,1.19-.88c.78-.58,1.23-1.47,1.23-2.44,0-1.67-1.36-3.03-3.04-3.03s-3.04,1.36-3.04,3.03c0,.97,.45,1.85,1.23,2.44l1.19,.88-1.57,11.14h4.35Z"/>
        <path class="cls-2" d="M93.15,88.46c9.9,0,17.92,6.92,17.92,15.46v34.76c0,8.54-8.02,15.46-17.92,15.46H39.34c-9.9,0-17.92-6.92-17.92-15.46v-34.76c0-8.54,8.02-15.46,17.92-15.46h53.81m-31.96,43.62h10.11l-1.76-12.52c1.36-1.01,2.24-2.62,2.24-4.44,0-3.06-2.48-5.54-5.54-5.54s-5.54,2.48-5.54,5.54c0,1.82,.88,3.43,2.24,4.44l-1.76,12.52m31.96-48.62H39.34c-12.64,0-22.92,9.18-22.92,20.46v34.76c0,11.28,10.28,20.46,22.92,20.46h53.81c12.64,0,22.92-9.18,22.92-20.46v-34.76c0-11.28-10.28-20.46-22.92-20.46h0Zm-26.9,32.32l-.31-.23c-.08-.06-.22-.2-.22-.43,0-.3,.24-.54,.54-.54s.54,.24,.54,.54c0,.23-.14,.37-.22,.43l-.31,.23h0Z"/>
      </g>
    </g>
  </g>
</svg>