<svg width="108" height="110" viewBox="0 0 108 110" fill="none" xmlns="http://www.w3.org/2000/svg">
<path d="M17.8337 58.8583H18.0421C20.1829 58.8583 21.925 60.5919 21.925 62.7229C21.925 64.8539 20.1829 66.5875 18.0421 66.5875C15.9014 66.5875 14.1593 64.8539 14.1593 62.7229C14.1593 62.0329 13.6003 61.4745 12.9109 61.4745C12.2215 61.4745 11.6626 62.0329 11.6626 62.7229C11.6626 65.7286 13.7702 68.24 16.5853 68.9012V70.0595C16.5853 70.7495 17.1443 71.3078 17.8337 71.3078C18.5231 71.3078 19.082 70.7495 19.082 70.0595V68.9793C22.104 68.4803 24.4217 65.8752 24.4217 62.7229C24.4217 59.2155 21.5599 56.3616 18.0421 56.3616H17.8337C15.6929 56.3616 13.9508 54.628 13.9508 52.497C13.9508 50.366 15.6929 48.6325 17.8337 48.6325C19.9744 48.6325 21.7165 50.366 21.7165 52.497C21.7165 53.1871 22.2755 53.7454 22.9649 53.7454C23.6543 53.7454 24.2132 53.1871 24.2132 52.497C24.2132 49.4159 22.0037 46.8425 19.082 46.2616V45.1605C19.082 44.4705 18.5231 43.9121 17.8337 43.9121C17.1443 43.9121 16.5853 44.4705 16.5853 45.1605V46.2616C13.6637 46.8425 11.4541 49.4159 11.4541 52.497C11.4541 56.0044 14.3159 58.8583 17.8337 58.8583Z" fill="#6F6F6F"/>
<path d="M79.513 88.0391H12.7025C12.0131 88.0391 11.4541 88.5974 11.4541 89.2874C11.4541 89.9774 12.0131 90.5358 12.7025 90.5358H79.513C80.2025 90.5358 80.7614 89.9774 80.7614 89.2874C80.7614 88.5974 80.2025 88.0391 79.513 88.0391Z" fill="#6F6F6F"/>
<path d="M79.513 77.4453H12.7025C12.0131 77.4453 11.4541 78.0037 11.4541 78.6937C11.4541 79.3837 12.0131 79.942 12.7025 79.942H79.513C80.2025 79.942 80.7614 79.3837 80.7614 78.6937C80.7614 78.0037 80.2025 77.4453 79.513 77.4453Z" fill="#6F6F6F"/>
<path d="M31.7904 69.0749H53.2637C53.9531 69.0749 54.512 68.5165 54.512 67.8265C54.512 67.1365 53.9531 66.5781 53.2637 66.5781H31.7904C31.101 66.5781 30.542 67.1365 30.542 67.8265C30.542 68.5165 31.101 69.0749 31.7904 69.0749Z" fill="#6F6F6F"/>
<path d="M31.7904 58.6022H46.1075C46.7969 58.6022 47.3559 58.0438 47.3559 57.3538C47.3559 56.6638 46.7969 56.1055 46.1075 56.1055H31.7904C31.101 56.1055 30.542 56.6638 30.542 57.3538C30.542 58.0438 31.101 58.6022 31.7904 58.6022Z" fill="#6F6F6F"/>
<path d="M31.7904 47.9342H39.4762C40.1656 47.9342 40.7246 47.3759 40.7246 46.6859C40.7246 45.9958 40.1656 45.4375 39.4762 45.4375H31.7904C31.101 45.4375 30.542 45.9958 30.542 46.6859C30.542 47.3759 31.101 47.9342 31.7904 47.9342Z" fill="#6F6F6F"/>
<path fill-rule="evenodd" clip-rule="evenodd" d="M106.682 43.9745L83.6279 4.04388C82.1828 1.54131 79.5144 0 76.6242 0C73.734 0 71.0648 1.5406 69.6197 4.04388L59.2582 21.9924H6.23438C2.92067 21.9924 0.234375 24.6787 0.234375 27.9924V103.492C0.234375 106.806 2.92067 109.492 6.23437 109.492H85.2344C88.5481 109.492 91.2344 106.806 91.2344 103.492V56.1061H99.6779C102.567 56.1061 105.237 54.5648 106.682 52.063C108.127 49.5597 108.127 46.4763 106.682 43.9745ZM51.0318 36.2424L57.5263 24.9924H6.23438C4.57752 24.9924 3.23438 26.3356 3.23438 27.9924V36.2424H51.0318ZM49.3 39.2424H3.23438V103.492C3.23438 105.149 4.57752 106.492 6.23437 106.492H85.2344C86.8912 106.492 88.2344 105.149 88.2344 103.492V56.1061H53.572C50.6817 56.1061 48.0126 54.5641 46.5682 52.063C45.1231 49.5597 45.1231 46.4763 46.5682 43.9745L49.3 39.2424ZM79.0808 45.0657C79.0808 46.3528 78.037 47.3959 76.7505 47.3959H76.6242C75.3377 47.3959 74.2946 46.3528 74.2946 45.0657V44.94C74.2946 43.6529 75.3377 42.6105 76.6242 42.6105H76.7505C78.037 42.6105 79.0808 43.6529 79.0808 44.94V45.0657ZM78.9538 37.8875C78.9538 39.1746 77.9114 40.2177 76.6242 40.2177C75.3377 40.2177 74.2946 39.1746 74.2946 37.8875L72.7842 16.7298C72.7842 15.4433 75.3384 13.8962 76.6249 13.8962C77.9121 13.8962 80.4664 15.4433 80.4664 16.7298L78.9538 37.8875Z" fill="#6F6F6F"/>
</svg>
