<svg width="150" height="150" viewBox="0 0 150 150" fill="none" xmlns="http://www.w3.org/2000/svg">
<path d="M149.942 16.4725C149.963 15.646 149.439 14.9036 148.652 14.6475L104.494 0.193847C104.115 0.0694988 103.707 0.0694988 103.33 0.193847L59.1068 14.6475C58.3204 14.9036 57.7956 15.646 57.8166 16.4725C57.8203 16.617 57.8102 16.8931 57.7993 17.2936C57.7333 19.6816 57.7401 22.5366 57.8915 25.7237H1.87254C0.838439 25.7237 0 26.5612 0 27.5963V148.026C0 149.061 0.838439 149.899 1.87254 149.899H137.248C138.282 149.899 139.121 149.061 139.121 148.026V67.199C149.145 48.3153 150.258 28.1125 149.959 17.2936C149.948 16.8931 149.938 16.617 149.942 16.4725ZM58.1307 29.4688C58.6655 36.1267 59.8751 43.9034 62.3562 51.9704H3.74509V29.4688H58.1307ZM135.375 146.154H3.74509V55.7155H63.6057C69.4753 72.2594 80.9589 89.4371 103.061 100.163C103.319 100.289 103.599 100.351 103.879 100.351C104.158 100.351 104.438 100.289 104.696 100.163C118.833 93.3025 128.613 83.7973 135.375 73.5114V146.154Z" fill="#0AC27B"/>
<path d="M125.415 21.1229C125.006 20.8412 124.505 20.7242 124.013 20.8211C123.525 20.9089 123.091 21.1887 122.809 21.5965L102.046 51.5974L87.5624 41.5745C86.7111 40.9839 85.5463 41.1997 84.9575 42.0482L78.7547 51.0104C78.4721 51.42 78.3633 51.9229 78.452 52.4112C78.5407 52.9012 78.8205 53.3328 79.2292 53.6162L104.216 70.908C104.511 71.1128 104.854 71.2061 105.201 71.2061C105.852 71.2061 106.515 70.8751 106.899 70.321L134.851 29.9315C135.439 29.0812 135.227 27.9145 134.377 27.3257L125.415 21.1229ZM104.807 66.7625L82.9002 51.6029L86.9717 45.7201L101.456 55.743C102.304 56.3318 103.471 56.1179 104.061 55.2694L124.823 25.2684L130.706 29.339L104.807 66.7625Z" fill="#F5F5F5"/>
<path d="M27.1491 88.1054H27.4618C30.6729 88.1054 33.286 90.7057 33.286 93.9022C33.286 97.0987 30.6729 99.6991 27.4618 99.6991C24.2507 99.6991 21.6375 97.0987 21.6375 93.9022C21.6375 92.8672 20.7991 92.0297 19.765 92.0297C18.7309 92.0297 17.8924 92.8672 17.8924 93.9022C17.8924 98.4108 21.0539 102.178 25.2765 103.17V104.907C25.2765 105.942 26.115 106.78 27.1491 106.78C28.1832 106.78 29.0216 105.942 29.0216 104.907V103.287C33.5545 102.538 37.0311 98.6307 37.0311 93.9022C37.0311 88.6412 32.7384 84.3603 27.4618 84.3603H27.1491C23.938 84.3603 21.3248 81.7599 21.3248 78.5634C21.3248 75.3669 23.938 72.7666 27.1491 72.7666C30.3602 72.7666 32.9733 75.3669 32.9733 78.5634C32.9733 79.5985 33.8118 80.436 34.8459 80.436C35.88 80.436 36.7184 79.5985 36.7184 78.5634C36.7184 73.9417 33.4041 70.0816 29.0216 69.2103V67.5586C29.0216 66.5236 28.1832 65.686 27.1491 65.686C26.115 65.686 25.2765 66.5236 25.2765 67.5586V69.2103C20.894 70.0816 17.5797 73.9417 17.5797 78.5634C17.5797 83.8245 21.8725 88.1054 27.1491 88.1054Z" fill="#0AC27B"/>
<path d="M119.668 131.875H19.4523C18.4182 131.875 17.5797 132.713 17.5797 133.748C17.5797 134.783 18.4182 135.621 19.4523 135.621H119.668C120.702 135.621 121.541 134.783 121.541 133.748C121.541 132.713 120.702 131.875 119.668 131.875Z" fill="#0AC27B"/>
<path d="M119.668 115.986H19.4523C18.4182 115.986 17.5797 116.823 17.5797 117.858C17.5797 118.893 18.4182 119.731 19.4523 119.731H119.668C120.702 119.731 121.541 118.893 121.541 117.858C121.541 116.823 120.702 115.986 119.668 115.986Z" fill="#0AC27B"/>
<path d="M48.0846 103.43H80.2945C81.3286 103.43 82.1671 102.593 82.1671 101.558C82.1671 100.523 81.3286 99.6851 80.2945 99.6851H48.0846C47.0505 99.6851 46.212 100.523 46.212 101.558C46.212 102.593 47.0505 103.43 48.0846 103.43Z" fill="#0AC27B"/>
<path d="M48.0846 87.7226H69.5603C70.5944 87.7226 71.4329 86.8851 71.4329 85.8501C71.4329 84.8151 70.5944 83.9775 69.5603 83.9775H48.0846C47.0505 83.9775 46.212 84.8151 46.212 85.8501C46.212 86.8851 47.0505 87.7226 48.0846 87.7226Z" fill="#0AC27B"/>
<path d="M48.0846 71.7197H59.6133C60.6475 71.7197 61.4859 70.8822 61.4859 69.8472C61.4859 68.8121 60.6475 67.9746 59.6133 67.9746H48.0846C47.0505 67.9746 46.212 68.8121 46.212 69.8472C46.212 70.8822 47.0505 71.7197 48.0846 71.7197Z" fill="#0AC27B"/>
</svg>
