<svg width="32" height="32" viewBox="0 0 32 32" fill="none" xmlns="http://www.w3.org/2000/svg">
<path fill-rule="evenodd" clip-rule="evenodd" d="M5.36364 8C4.56352 8 4 8.6055 4 9.25V22.75C4 23.3945 4.56352 24 5.36364 24H26.6364C27.4365 24 28 23.3945 28 22.75V9.25C28 8.6055 27.4365 8 26.6364 8H5.36364ZM2 9.25C2 7.40922 3.55295 6 5.36364 6H26.6364C28.447 6 30 7.40922 30 9.25V22.75C30 24.5908 28.447 26 26.6364 26H5.36364C3.55295 26 2 24.5908 2 22.75V9.25Z" fill="#1C1C45"/>
<path fill-rule="evenodd" clip-rule="evenodd" d="M2 15C2 14.4477 2.44772 14 3 14H29C29.5523 14 30 14.4477 30 15C30 15.5523 29.5523 16 29 16H3C2.44772 16 2 15.5523 2 15Z" fill="#1C1C45"/>
</svg>
