<?xml version="1.0" encoding="UTF-8"?>
<svg id="Layer_2" data-name="Layer 2" xmlns="http://www.w3.org/2000/svg" viewBox="0 0 129.27 191.4">
  <defs>
    <style>
      .cls-1 {
        fill: #005db0;
      }

      .cls-2 {
        fill: #fff;
      }

      .cls-3 {
        fill: #4d4d4d;
      }
    </style>
  </defs>
  <g id="Layer_1-2" data-name="Layer 1">
    <g>
      <g>
        <rect class="cls-3" width="99.81" height="191.4" rx="19.14" ry="19.14" transform="translate(99.81 191.4) rotate(180)"/>
        <rect class="cls-2" x="7.19" y="7.19" width="85.55" height="177.24" rx="12.9" ry="12.9" transform="translate(99.93 191.62) rotate(180)"/>
      </g>
      <g>
        <g>
          <path class="cls-1" d="M39.21,120.15c-12.84,0-23.28-10.45-23.28-23.28s10.45-23.28,23.28-23.28H103.48c12.84,0,23.28,10.45,23.28,23.28s-10.45,23.28-23.28,23.28H39.21Z"/>
          <path class="cls-2" d="M103.48,76.09c11.48,0,20.78,9.31,20.78,20.78h0c0,11.48-9.31,20.78-20.78,20.78H39.21c-11.48,0-20.78-9.31-20.78-20.78h0c0-11.48,9.31-20.78,20.78-20.78H103.48m0-5H39.21c-14.22,0-25.78,11.57-25.78,25.78s11.57,25.78,25.78,25.78H103.48c14.22,0,25.78-11.57,25.78-25.78s-11.57-25.78-25.78-25.78h0Z"/>
        </g>
        <g>
          <g>
            <path class="cls-2" d="M51.09,97.96l-1.88-1.08,1.88-1.09c1.05-.61,1.42-1.96,.81-3.02-.61-1.06-1.96-1.42-3.02-.81l-1.88,1.09v-2.17c0-1.22-.99-2.21-2.21-2.21s-2.21,.99-2.21,2.21v2.17l-1.88-1.09c-1.06-.61-2.41-.25-3.02,.81-.61,1.06-.25,2.41,.81,3.02l1.88,1.09-1.88,1.08c-1.06,.61-1.42,1.96-.81,3.02,.61,1.06,1.96,1.42,3.02,.81l1.88-1.08v2.17c0,1.22,.99,2.21,2.21,2.21s2.21-.99,2.21-2.21v-2.17l1.88,1.09c1.06,.61,2.41,.25,3.02-.81,.61-1.06,.25-2.41-.81-3.02Z"/>
            <path class="cls-2" d="M77.5,97.96l-1.88-1.08,1.88-1.09c1.05-.61,1.42-1.96,.81-3.02-.61-1.06-1.96-1.42-3.02-.81l-1.88,1.09v-2.17c0-1.22-.99-2.21-2.21-2.21s-2.21,.99-2.21,2.21v2.17l-1.88-1.09c-1.06-.61-2.41-.25-3.02,.81-.61,1.06-.25,2.41,.81,3.02l1.88,1.09-1.88,1.08c-1.06,.61-1.42,1.96-.81,3.02,.61,1.06,1.96,1.42,3.02,.81l1.88-1.08v2.17c0,1.22,.99,2.21,2.21,2.21s2.21-.99,2.21-2.21v-2.17l1.88,1.09c1.06,.61,2.41,.25,3.02-.81,.61-1.06,.25-2.41-.81-3.02Z"/>
          </g>
          <path class="cls-2" d="M104.2,97.96l-1.88-1.08,1.88-1.09c1.05-.61,1.42-1.96,.81-3.02-.61-1.06-1.96-1.42-3.02-.81l-1.88,1.09v-2.17c0-1.22-.99-2.21-2.21-2.21s-2.21,.99-2.21,2.21v2.17l-1.88-1.09c-1.06-.61-2.41-.25-3.02,.81-.61,1.06-.25,2.41,.81,3.02l1.88,1.09-1.88,1.08c-1.06,.61-1.42,1.96-.81,3.02,.61,1.06,1.96,1.42,3.02,.81l1.88-1.08v2.17c0,1.22,.99,2.21,2.21,2.21s2.21-.99,2.21-2.21v-2.17l1.88,1.09c1.06,.61,2.41,.25,3.02-.81,.61-1.06,.25-2.41-.81-3.02Z"/>
        </g>
      </g>
    </g>
  </g>
</svg>