<svg width="32" height="33" viewBox="0 0 32 33" fill="none" xmlns="http://www.w3.org/2000/svg">
<g clip-path="url(#clip0_161_35973)">
<path d="M25.2134 23.5389C25.1438 23.5389 25.0757 23.5211 25.0139 23.4837C23.1563 22.3649 18.995 22.7933 16.8289 23.5187C16.7895 23.5335 16.7485 23.5389 16.7067 23.5389H15.9334C15.8916 23.5389 15.8506 23.5319 15.8112 23.5187C13.6459 22.7941 9.48377 22.3642 7.62623 23.4837C7.50636 23.556 7.35788 23.5591 7.23647 23.49C7.11583 23.4192 7.04004 23.2894 7.04004 23.1502V10.7106C7.04004 10.5737 7.11119 10.4478 7.22796 10.377C9.37009 9.08565 14.522 9.1735 16.8985 10.5434C17.0191 10.6126 17.0934 10.7417 17.0934 10.8808V21.2057C17.0934 21.4203 16.9194 21.5945 16.7067 21.5945C16.494 21.5945 16.32 21.4203 16.32 21.2057V11.1133C14.0611 9.95953 9.6338 10.0217 7.81337 10.9407V22.529C10.0282 21.6466 13.8245 22.0501 15.9952 22.7615H16.6448C18.8148 22.0501 22.6126 21.6466 24.8275 22.529V10.9392C23.2414 10.1244 20.0143 10.0077 17.9959 10.7191C17.7948 10.7922 17.5744 10.6841 17.5032 10.4804C17.4321 10.2775 17.538 10.0559 17.7391 9.98441C20.1001 9.15173 23.6853 9.33522 25.4137 10.3763C25.5289 10.4462 25.6 10.573 25.6 10.7098V23.1494C25.6 23.2901 25.5258 23.42 25.4052 23.49C25.3448 23.5226 25.2783 23.5389 25.2134 23.5389Z" fill="#1C1C45" stroke="#1C1C45"/>
</g>
<defs>
<clipPath id="clip0_161_35973">
<rect width="32" height="32" fill="white" transform="translate(0 0.5)"/>
</clipPath>
</defs>
</svg>
