<svg width="50" height="50" viewBox="0 0 50 50" fill="none" xmlns="http://www.w3.org/2000/svg">
<path d="M43.5231 38.6936C43.3794 38.6936 43.2389 38.6571 43.1111 38.5811C39.2758 36.3009 30.6838 37.174 26.2114 38.6524C26.1299 38.6825 26.0453 38.6936 25.9591 38.6936H24.3624C24.2761 38.6936 24.1915 38.6793 24.1101 38.6524C19.6392 37.1756 11.0457 36.2993 7.21032 38.5811C6.96283 38.7284 6.65625 38.7348 6.40557 38.5937C6.15648 38.4495 6 38.1849 6 37.9013V12.5488C6 12.2699 6.1469 12.0132 6.388 11.869C10.8109 9.23713 21.4483 9.41618 26.3551 12.2081C26.6042 12.3491 26.7574 12.6122 26.7574 12.8958V33.9384C26.7574 34.3757 26.3982 34.7306 25.9591 34.7306C25.52 34.7306 25.1607 34.3757 25.1607 33.9384V13.3696C20.4967 11.0181 11.3554 11.1449 7.59673 13.0178V36.6353C12.1698 34.8368 20.0081 35.6592 24.4901 37.109H25.8313C30.3118 35.6592 38.1533 34.8368 42.7263 36.6353V13.0147C39.4514 11.3541 32.7883 11.1164 28.6208 12.5662C28.2057 12.7152 27.7506 12.4949 27.6037 12.0798C27.4568 11.6662 27.6756 11.2146 28.0907 11.0688C32.9655 9.37182 40.3679 9.74577 43.9366 11.8675C44.1745 12.0101 44.3214 12.2683 44.3214 12.5472V37.8997C44.3214 38.1865 44.1681 38.4511 43.9191 38.5937C43.7945 38.6603 43.6572 38.6936 43.5231 38.6936Z" fill="#005DAA" stroke="#005DAA"/>
</svg>
