<svg width="32" height="32" viewBox="0 0 32 32" fill="none" xmlns="http://www.w3.org/2000/svg">
<path fill-rule="evenodd" clip-rule="evenodd" d="M24.5 17C22.0147 17 20 19.0147 20 21.5C20 23.9853 22.0147 26 24.5 26C26.9853 26 29 23.9853 29 21.5C29 19.0147 26.9853 17 24.5 17ZM18 21.5C18 17.9101 20.9101 15 24.5 15C28.0899 15 31 17.9101 31 21.5C31 25.0899 28.0899 28 24.5 28C20.9101 28 18 25.0899 18 21.5Z" fill="#1C1C45"/>
<path fill-rule="evenodd" clip-rule="evenodd" d="M23 19C23.5523 19 24 19.4477 24 20V23C24 23.5523 23.5523 24 23 24C22.4477 24 22 23.5523 22 23V20C22 19.4477 22.4477 19 23 19Z" fill="#1C1C45"/>
<path fill-rule="evenodd" clip-rule="evenodd" d="M26 19C26.5523 19 27 19.4477 27 20V23C27 23.5523 26.5523 24 26 24C25.4477 24 25 23.5523 25 23V20C25 19.4477 25.4477 19 26 19Z" fill="#1C1C45"/>
<path fill-rule="evenodd" clip-rule="evenodd" d="M9 20C9 19.4477 9.44772 19 10 19L16 19C16.5523 19 17 19.4477 17 20C17 20.5523 16.5523 21 16 21L10 21C9.44772 21 9 20.5523 9 20Z" fill="#1C1C45"/>
<path fill-rule="evenodd" clip-rule="evenodd" d="M9 17C9 16.4477 9.44772 16 10 16L16 16C16.5523 16 17 16.4477 17 17C17 17.5523 16.5523 18 16 18L10 18C9.44772 18 9 17.5523 9 17Z" fill="#1C1C45"/>
<path fill-rule="evenodd" clip-rule="evenodd" d="M11 11V13H20V11H11ZM10 9C9.44772 9 9 9.44772 9 10V14C9 14.5523 9.44772 15 10 15H21C21.5523 15 22 14.5523 22 14V10C22 9.44772 21.5523 9 21 9H10Z" fill="#1C1C45"/>
<path fill-rule="evenodd" clip-rule="evenodd" d="M3 24C3 23.4477 3.44772 23 4 23L16 23C16.5523 23 17 23.4477 17 24C17 24.5523 16.5523 25 16 25L4 25C3.44771 25 3 24.5523 3 24Z" fill="#1C1C45"/>
<path fill-rule="evenodd" clip-rule="evenodd" d="M5 13H4C3.44772 13 3 13.4477 3 14V22C3 22.5523 3.44772 23 4 23C4.55228 23 5 22.5523 5 22V13ZM4 11C2.34315 11 1 12.3431 1 14V22C1 23.6569 2.34315 25 4 25C5.65685 25 7 23.6569 7 22V11H4Z" fill="#1C1C45"/>
<path fill-rule="evenodd" clip-rule="evenodd" d="M25 5.99999L25 9.99998L29 9.99999L29 12L25 12L25 11L25 12C23.8954 12 23 11.1045 23 9.99997L23 5.99999L25 5.99999Z" fill="#1C1C45"/>
<path fill-rule="evenodd" clip-rule="evenodd" d="M5 9C5 6.79086 6.79086 5 9 5H24.4169C24.932 5 25.4272 5.1987 25.7994 5.55472L29.3824 8.98201C29.7769 9.35931 30 9.88144 30 10.4273V14C30 14.5523 29.5523 15 29 15C28.4477 15 28 14.5523 28 14V10.4273L24.4169 7H9C7.89543 7 7 7.89543 7 9V21C7 21.5523 6.55228 22 6 22C5.44772 22 5 21.5523 5 21V9Z" fill="#1C1C45"/>
</svg>
