<svg width="50" height="50" viewBox="0 0 50 50" fill="none" xmlns="http://www.w3.org/2000/svg">
<path d="M25 11C32.7317 11 39 17.2683 39 25.0002C39 32.732 32.7317 39 25 39C17.2683 39 11 32.732 11 25.0002C11 17.268 17.2679 11 25 11ZM15.5221 29.9244L32.4916 17.3901C30.5639 15.4921 27.9186 14.3214 25 14.3214C19.1021 14.3214 14.3214 19.1022 14.3214 25.0002C14.3214 26.7761 14.7552 28.4511 15.5221 29.9244ZM34.464 20.0495L17.4871 32.5893C19.4165 34.4988 22.0706 35.6789 25 35.6789C30.8976 35.6789 35.6786 30.8978 35.6786 25.0002C35.6786 23.2135 35.2395 21.5294 34.464 20.0495Z" fill="#005DAA"/>
</svg>
