<svg class='user-loggedin' width="50" height="50" viewBox="0 0 50 50" fill="none" xmlns="http://www.w3.org/2000/svg">
<g clip-path="url(#clip0)">
<path d="M25 25.1968C18.6944 25.1968 13.085 27.995 9.3999 32.4092C12.2251 37.9268 18.1621 41.7498 25 41.7498C31.8378 41.7498 37.7748 37.9268 40.6 32.4092C36.915 27.995 31.3055 25.1968 25 25.1968Z" fill="#005DAA"/>
<path d="M25.2046 24.0148C29.7273 24.0148 33.3936 20.4857 33.3936 16.1324C33.3936 11.7791 29.7273 8.25 25.2046 8.25C20.682 8.25 17.0156 11.7791 17.0156 16.1324C17.0156 20.4857 20.682 24.0148 25.2046 24.0148Z" fill="#005DAA"/>
<circle cx="25" cy="47.5" r="2.5" fill="#6FCF97"/>
</g>
<defs>
<clipPath id="clip0">
<path d="M0 0H50V50H0V0Z" fill="white"/>
</clipPath>
</defs>
</svg>
