<svg width="32" height="32" viewBox="0 0 32 32" fill="none" xmlns="http://www.w3.org/2000/svg">
	<path fill-rule="evenodd" clip-rule="evenodd" d="M5.91477 19.8442C7.13595 18.66 8.78585 18 10.5 18H21.5C23.2141 18 24.864 18.66 26.0852 19.8442C27.3075 21.0294 28 22.6435 28 24.3333V27C28 27.5523 27.5523 28 27 28C26.4477 28 26 27.5523 26 27V24.3333C26 23.1942 25.5336 22.0952 24.6929 21.28C23.8512 20.4638 22.7032 20 21.5 20H10.5C9.29677 20 8.14878 20.4638 7.30706 21.28C6.46639 22.0952 6 23.1942 6 24.3333V27C6 27.5523 5.55228 28 5 28C4.44772 28 4 27.5523 4 27V24.3333C4 22.6435 4.69254 21.0294 5.91477 19.8442Z" fill="#005DAA"/>
	<path fill-rule="evenodd" clip-rule="evenodd" d="M16 6C13.7909 6 12 7.79086 12 10C12 12.2091 13.7909 14 16 14C18.2091 14 20 12.2091 20 10C20 7.79086 18.2091 6 16 6ZM10 10C10 6.68629 12.6863 4 16 4C19.3137 4 22 6.68629 22 10C22 13.3137 19.3137 16 16 16C12.6863 16 10 13.3137 10 10Z" fill="#005DAA"/>
</svg>
