<svg class='user-default' width="50" height="50" viewBox="0 0 50 50" fill="none" xmlns="http://www.w3.org/2000/svg">
<g clip-path="url(#clip0)">
  <path d="M25 40.7498C18.7846 40.7498 13.3736 37.4081 10.6076 32.5417C14.1046 28.6455 19.2424 26.1968 25 26.1968C30.7575 26.1968 35.8953 28.6455 39.3923 32.5417C36.6263 37.4081 31.2153 40.7498 25 40.7498Z" stroke="#333333" stroke-width="2"/>
  <path d="M32.3936 16.1324C32.3936 19.8978 29.2113 23.0148 25.2046 23.0148C21.1979 23.0148 18.0156 19.8978 18.0156 16.1324C18.0156 12.367 21.1979 9.25 25.2046 9.25C29.2113 9.25 32.3936 12.367 32.3936 16.1324Z" stroke="#333333" stroke-width="2"/>
</g>
<defs>
  <clipPath id="clip0">
    <path d="M0 0H50V50H0V0Z" fill="white"/>
  </clipPath>
</defs>
</svg>
