<svg width="351" height="158" viewBox="0 0 351 158" fill="none" xmlns="http://www.w3.org/2000/svg">
<path d="M89.9106 0.829712C92.8051 0.829712 94.2523 1.63375 94.2523 3.24182V97.3141H104.142C106.554 97.3141 107.76 102.138 107.76 111.787C107.76 112.269 107.599 112.752 107.278 113.234C106.956 113.556 106.635 113.797 106.313 113.958L105.589 114.199H94.2523V155.205C90.393 156.652 85.0863 157.376 78.3324 157.376C69.0056 157.376 64.3422 156.33 64.3422 154.24V114.199H4.28067C1.86856 111.787 0.662506 107.927 0.662506 102.621L83.3979 4.20667C85.3275 1.95536 87.4984 0.829712 89.9106 0.829712ZM64.3422 97.3141V48.8307C64.3422 47.3834 64.101 46.6598 63.6186 46.6598C63.2969 46.8206 63.0557 46.9814 62.8949 47.1422L23.3363 94.4196C23.1755 94.5804 23.0951 94.8216 23.0951 95.1432C23.0951 96.5905 23.6579 97.3141 24.7836 97.3141H64.3422ZM153.831 80.9117C153.831 99.4046 156.002 114.601 160.344 126.501C164.847 138.4 170.234 144.35 176.505 144.35C183.581 144.35 188.807 138.561 192.184 126.983C195.722 115.405 197.491 99.6458 197.491 79.7057C197.491 60.5696 195.641 45.4537 191.943 34.358C188.244 23.1015 183.098 17.4733 176.505 17.4733C169.43 17.4733 163.882 23.2623 159.862 34.8405C155.842 46.4186 153.831 61.7757 153.831 80.9117ZM136.947 134.461C125.69 119.505 120.062 101.736 120.062 81.153C120.062 60.5696 125.69 42.8004 136.947 27.8453C148.364 12.8903 161.47 5.41272 176.264 5.41272C190.898 5.41272 203.682 12.8903 214.617 27.8453C225.712 42.6396 231.26 60.4088 231.26 81.153C231.26 101.897 225.712 119.747 214.617 134.702C203.682 149.496 190.898 156.893 176.264 156.893C161.47 156.893 148.364 149.416 136.947 134.461ZM332.81 0.829712C335.704 0.829712 337.152 1.63375 337.152 3.24182V97.3141H347.041C349.454 97.3141 350.66 102.138 350.66 111.787C350.66 112.269 350.499 112.752 350.177 113.234C349.856 113.556 349.534 113.797 349.212 113.958L348.489 114.199H337.152V155.205C333.292 156.652 327.986 157.376 321.232 157.376C311.905 157.376 307.242 156.33 307.242 154.24V114.199H247.18C244.768 111.787 243.562 107.927 243.562 102.621L326.297 4.20667C328.227 1.95536 330.398 0.829712 332.81 0.829712ZM307.242 97.3141V48.8307C307.242 47.3834 307 46.6598 306.518 46.6598C306.196 46.8206 305.955 46.9814 305.794 47.1422L266.236 94.4196C266.075 94.5804 265.995 94.8216 265.995 95.1432C265.995 96.5905 266.557 97.3141 267.683 97.3141H307.242Z" fill="#005DAA"/>
</svg>
