<svg width="92" height="69" viewBox="0 0 92 69" fill="none" xmlns="http://www.w3.org/2000/svg">
<path d="M39.8897 69C39.8092 69 39.7229 68.9971 39.6425 68.9942C37.5466 68.8936 35.8044 67.528 35.2007 65.5185L28.1916 42.154C27.999 41.5043 27.493 41.004 26.8433 40.8057L3.48171 33.7995C1.47214 33.1957 0.10655 31.4535 0.00592792 29.3577C-0.0946943 27.2619 1.09265 25.3961 3.03609 24.6026L62.2537 0.375659C64.1138 -0.38332 66.1406 0.0249184 67.5579 1.44513C68.9724 2.86246 69.3835 4.89216 68.6245 6.74648L44.3976 65.967C43.6357 67.8299 41.882 69 39.8897 69ZM63.3433 3.03496L4.12569 27.2619C2.90385 27.7593 2.8636 28.8834 2.87797 29.2169C2.89235 29.5503 3.04472 30.6658 4.30681 31.0453L27.6684 38.0544C29.2467 38.5287 30.4715 39.7534 30.9429 41.3289L37.952 64.6934C38.3315 65.9555 39.4498 66.105 39.7804 66.1222C40.1456 66.1682 41.238 66.0906 41.7383 64.8745L65.9652 5.65401C66.2815 4.88066 66.1205 4.06418 65.5282 3.47482C64.936 2.88259 64.1138 2.71297 63.3433 3.03496Z" fill="#0AC27B"/>
<path d="M66.0334 1.02258L26.7139 40.3421L28.7467 42.3749L68.0662 3.05544L66.0334 1.02258Z" fill="#0AC27B"/>
<circle cx="68" cy="42" r="24" fill="#0AC27B"/>
<path d="M79.3285 26.2235C79.0561 26.0358 78.722 25.9577 78.3941 26.0223C78.0686 26.0809 77.7796 26.2674 77.5913 26.5393L63.7496 46.5399L54.0937 39.858C53.5262 39.4642 52.7496 39.608 52.3571 40.1737L48.2219 46.1485C48.0335 46.4216 47.961 46.7569 48.0201 47.0824C48.0792 47.4091 48.2657 47.6968 48.5382 47.8858L65.1961 59.4136C65.3929 59.5502 65.6215 59.6123 65.8525 59.6123C66.2865 59.6123 66.7285 59.3917 66.9845 59.0223L85.6191 32.0959C86.0117 31.529 85.8702 30.7513 85.3034 30.3587L79.3285 26.2235ZM65.5898 56.6499L50.9856 46.5435L53.6999 42.6217L63.3558 49.3036C63.9215 49.6961 64.6993 49.5535 65.0924 48.9878L78.9341 28.9872L82.856 31.7009L65.5898 56.6499Z" fill="#F5F5F5"/>
</svg>
