<svg width="137" height="130" viewBox="0 0 137 130" fill="none" xmlns="http://www.w3.org/2000/svg">
<g clip-path="url(#clip0_9533_6206)">
<path d="M111.736 10.7439H32.2314V49.4216H111.736V10.7439Z" fill="#EEEEEE"/>
<path d="M70.6097 18.6152H38.9824V34.8419H70.6097V18.6152Z" fill="#BECDDF"/>
<path d="M36.5783 22.6535C36.5393 22.6548 36.5004 22.6482 36.464 22.6339C36.4277 22.6196 36.3947 22.5981 36.3671 22.5705C36.3394 22.543 36.3178 22.51 36.3035 22.4738C36.2892 22.4375 36.2825 22.3987 36.2839 22.3598V16.339C36.2825 16.3001 36.2892 16.2613 36.3035 16.225C36.3178 16.1888 36.3394 16.1559 36.3671 16.1283C36.3947 16.1008 36.4277 16.0792 36.464 16.0649C36.5004 16.0506 36.5393 16.044 36.5783 16.0453H42.9087C42.9867 16.0453 43.0616 16.0763 43.1169 16.1314C43.1721 16.1864 43.2031 16.2611 43.2031 16.339C43.2031 16.4169 43.1721 16.4916 43.1169 16.5467C43.0616 16.6018 42.9867 16.6327 42.9087 16.6327H36.8727V22.3353C36.8769 22.376 36.8724 22.4172 36.8594 22.4561C36.8464 22.4949 36.8253 22.5306 36.7975 22.5606C36.7696 22.5907 36.7357 22.6146 36.6979 22.6306C36.6601 22.6466 36.6193 22.6544 36.5783 22.6535Z" fill="#BECDDF"/>
<path d="M42.7617 37.4362H36.7258C36.6867 37.4376 36.6478 37.431 36.6115 37.4167C36.5751 37.4024 36.5421 37.3808 36.5145 37.3533C36.4869 37.3257 36.4653 37.2928 36.4509 37.2565C36.4366 37.2203 36.43 37.1815 36.4313 37.1426V30.8281C36.4313 30.7502 36.4623 30.6755 36.5176 30.6204C36.5728 30.5654 36.6477 30.5344 36.7258 30.5344C36.8038 30.5344 36.8787 30.5654 36.934 30.6204C36.9892 30.6755 37.0202 30.7502 37.0202 30.8281V36.8489H42.7371C42.7762 36.8475 42.8151 36.8542 42.8514 36.8684C42.8878 36.8827 42.9208 36.9043 42.9484 36.9318C42.976 36.9594 42.9977 36.9923 43.012 37.0286C43.0263 37.0648 43.033 37.1036 43.0316 37.1426C43.0362 37.1802 43.0326 37.2183 43.0211 37.2544C43.0095 37.2904 42.9902 37.3236 42.9645 37.3515C42.9389 37.3794 42.9075 37.4015 42.8724 37.4161C42.8374 37.4307 42.7996 37.4376 42.7617 37.4362Z" fill="#BECDDF"/>
<path d="M73.1385 37.4365H66.8081C66.73 37.4365 66.6551 37.4056 66.5999 37.3505C66.5447 37.2954 66.5137 37.2207 66.5137 37.1428C66.5137 37.0649 66.5447 36.9902 66.5999 36.9351C66.6551 36.8801 66.73 36.8491 66.8081 36.8491H72.844V31.1221C72.844 31.0442 72.875 30.9695 72.9303 30.9144C72.9855 30.8593 73.0604 30.8284 73.1385 30.8284C73.2165 30.8284 73.2914 30.8593 73.3466 30.9144C73.4019 30.9695 73.4329 31.0442 73.4329 31.1221V37.1428C73.4277 37.219 73.395 37.2908 73.3409 37.3448C73.2868 37.3988 73.2148 37.4314 73.1385 37.4365Z" fill="#BECDDF"/>
<path d="M72.965 22.9472C72.926 22.9486 72.8871 22.9419 72.8507 22.9276C72.8144 22.9133 72.7814 22.8918 72.7538 22.8642C72.7262 22.8367 72.7045 22.8037 72.6902 22.7675C72.6759 22.7312 72.6692 22.6924 72.6706 22.6535V16.6327H66.9536C66.8755 16.6327 66.8006 16.6018 66.7454 16.5467C66.6902 16.4916 66.6592 16.4169 66.6592 16.339C66.6592 16.2611 66.6902 16.1864 66.7454 16.1314C66.8006 16.0763 66.8755 16.0453 66.9536 16.0453H72.9896C73.0286 16.044 73.0675 16.0506 73.1038 16.0649C73.1402 16.0792 73.1732 16.1008 73.2008 16.1283C73.2284 16.1559 73.2501 16.1888 73.2644 16.225C73.2787 16.2613 73.2854 16.3001 73.284 16.339V22.6535C73.2827 22.6938 73.2734 22.7334 73.2567 22.7701C73.2399 22.8068 73.216 22.8397 73.1863 22.8671C73.1566 22.8944 73.1217 22.9156 73.0837 22.9293C73.0457 22.9431 73.0054 22.9492 72.965 22.9472Z" fill="#BECDDF"/>
<path d="M108.028 19.5938H79.3209C79.2395 19.5938 79.1615 19.626 79.104 19.6834C79.0465 19.7407 79.0142 19.8185 79.0142 19.8997C79.0142 19.9808 79.0465 20.0586 79.104 20.116C79.1615 20.1734 79.2395 20.2056 79.3209 20.2056H108.028C108.103 20.1962 108.172 20.1599 108.221 20.1036C108.271 20.0473 108.299 19.9748 108.299 19.8997C108.299 19.8246 108.271 19.7521 108.221 19.6958C108.172 19.6395 108.103 19.6032 108.028 19.5938Z" fill="#BECDDF"/>
<path d="M108.028 23.9509H79.3209C79.2395 23.9509 79.1615 23.9832 79.104 24.0405C79.0465 24.0979 79.0142 24.1757 79.0142 24.2569C79.0142 24.338 79.0465 24.4158 79.104 24.4732C79.1615 24.5306 79.2395 24.5628 79.3209 24.5628H108.028C108.396 24.5383 108.396 23.9509 108.028 23.9509Z" fill="#BECDDF"/>
<path d="M108.028 28.2827H79.3209C79.2395 28.2827 79.1615 28.3149 79.104 28.3723C79.0465 28.4297 79.0142 28.5075 79.0142 28.5887C79.0142 28.6698 79.0465 28.7476 79.104 28.805C79.1615 28.8624 79.2395 28.8946 79.3209 28.8946H108.028C108.103 28.8851 108.172 28.8489 108.221 28.7925C108.271 28.7362 108.299 28.6637 108.299 28.5887C108.299 28.5136 108.271 28.4411 108.221 28.3848C108.172 28.3284 108.103 28.2922 108.028 28.2827Z" fill="#BECDDF"/>
<path d="M108.028 32.6147H79.3209C79.2395 32.6147 79.1615 32.647 79.104 32.7043C79.0465 32.7617 79.0142 32.8395 79.0142 32.9207C79.0142 33.0018 79.0465 33.0796 79.104 33.137C79.1615 33.1944 79.2395 33.2266 79.3209 33.2266H108.028C108.103 33.2172 108.172 33.1809 108.221 33.1246C108.271 33.0682 108.299 32.9958 108.299 32.9207C108.299 32.8456 108.271 32.7731 108.221 32.7168C108.172 32.6605 108.103 32.6242 108.028 32.6147Z" fill="#BECDDF"/>
<path d="M107.611 36.3347H98.5815V45.3414H107.611V36.3347Z" fill="#BECDDF"/>
<path d="M35.2249 7.93924C35.2985 8.7469 34.5624 9.43219 33.7282 9.43219C33.5313 9.43349 33.3361 9.39576 33.1539 9.3212C32.9717 9.24663 32.8062 9.13671 32.667 8.99782C32.5277 8.85892 32.4175 8.69382 32.3428 8.5121C32.268 8.33038 32.2302 8.13566 32.2315 7.93924C32.2328 7.54368 32.3909 7.16469 32.6713 6.88499C32.9517 6.60529 33.3316 6.44758 33.7282 6.44629C34.5624 6.44629 35.1268 6.93578 35.2249 7.93924Z" fill="#BECDDF"/>
<path d="M40.3528 7.93924C40.4265 8.7469 39.6904 9.43219 38.8561 9.43219C38.6592 9.43349 38.464 9.39576 38.2818 9.3212C38.0996 9.24663 37.9341 9.13671 37.7949 8.99782C37.6556 8.85892 37.5454 8.69382 37.4707 8.5121C37.3959 8.33038 37.3581 8.13566 37.3594 7.93924C37.3607 7.54368 37.5188 7.16469 37.7992 6.88499C38.0796 6.60529 38.4596 6.44758 38.8561 6.44629C39.6904 6.44629 40.2547 6.93578 40.3528 7.93924Z" fill="#BECDDF"/>
<path d="M43.2271 69.4655C32.1857 68.2662 29.2659 66.553 26.9595 76.5876C24.6531 86.6222 22.7393 105.835 22.7393 105.835L39.7184 115.16H72.0572C72.0572 115.16 73.0632 68.6823 61.2122 68.7802C52.4036 68.8536 43.2271 69.4655 43.2271 69.4655Z" fill="#EBEBEB"/>
<path d="M56.0344 103.094C45.1158 104.978 38.5891 108.136 36.1846 109.139L36.2827 115.037L65.7999 115.135C64.1805 110.314 60.3283 105.517 56.0344 103.094Z" fill="#F5E2D6"/>
<path d="M56.8196 83.0001C56.8196 82.9612 56.8041 82.9238 56.7765 82.8963C56.7489 82.8687 56.7114 82.8533 56.6724 82.8533C56.6333 82.8533 56.5959 82.8687 56.5683 82.8963C56.5407 82.9238 56.5252 82.9612 56.5252 83.0001L56.0835 102.164C56.0833 102.196 56.0937 102.227 56.113 102.252C56.1323 102.277 56.1594 102.295 56.1902 102.304C56.2209 102.312 56.2536 102.31 56.2832 102.298C56.3127 102.286 56.3374 102.265 56.3534 102.237C56.4516 102.066 56.8196 83.0001 56.8196 83.0001Z" fill="#D8D8D8"/>
<path d="M38.1236 103.338C37.9763 102.996 27.0331 86.2795 18.838 78.0071C18.8135 77.9826 18.8135 77.9336 18.7889 77.9092C17.6613 76.5142 16.3099 75.315 14.7895 74.3603C14.4705 74.1646 14.127 73.9688 13.759 73.7485C12.9984 73.1856 12.2377 72.5737 11.5262 71.9374C10.9619 71.4479 9.75957 69.7591 8.80266 70.0283C8.6462 70.0737 8.50854 70.1681 8.41008 70.2976C8.38554 70.322 8.38555 70.322 8.38555 70.3465C8.29902 70.5115 8.24978 70.6935 8.24131 70.8795C8.23283 71.0656 8.26531 71.2512 8.33647 71.4234C8.55658 72.0548 8.96819 72.6022 9.51421 72.9898C10.373 74.0911 9.93133 74.8498 9.12164 74.5317C8.3888 74.0803 7.59583 73.7343 6.76615 73.5037C6.47171 73.3814 6.17727 73.259 5.8583 73.1611C5.02407 71.4723 3.72364 69.1962 3.06116 69.6612C2.69439 70.0153 2.42844 70.4602 2.2905 70.9504C2.15255 71.4406 2.14754 71.9586 2.276 72.4513C1.76074 72.8184 1.95703 74.2624 2.20239 74.9233C2.91395 76.8812 3.28199 77.6889 4.68056 79.2797C6.15274 80.944 9.85772 81.5559 11.6734 82.6572C13.6363 84.2236 24.4568 106.3 23.8679 106.177C23.8189 106.177 38.5161 104.195 38.1236 103.338Z" fill="#F5E2D6"/>
<path d="M12.8017 77.9093C11.6297 77.0443 10.7829 75.8118 10.3971 74.4094C10.348 74.2136 10.0536 74.3115 10.1027 74.4828C10.5151 75.9516 11.4038 77.2426 12.6299 78.154C12.8017 78.3009 12.9489 78.0316 12.8017 77.9093Z" fill="#CDB09D"/>
<path d="M6.61935 76.7831C6.25453 76.4767 5.81385 76.2739 5.34345 76.1957C4.97541 76.0978 5.07355 76.2447 4.97541 75.8531C4.92634 75.6573 4.92634 75.4125 4.87727 75.2167C4.64399 74.1193 4.14723 73.0946 3.42962 72.2308C3.30694 72.084 3.08612 72.3042 3.2088 72.4511C4.10467 73.5575 4.62072 74.9216 4.68098 76.3426C4.68381 76.3806 4.70023 76.4163 4.72725 76.4433C4.75427 76.4702 4.79009 76.4866 4.8282 76.4894C5.10763 76.4613 5.38988 76.4925 5.65632 76.5811C5.92277 76.6697 6.16736 76.8136 6.37398 77.0034C6.54574 77.1013 6.76656 76.9055 6.61935 76.7831Z" fill="#CDB09D"/>
<path d="M7.0365 74.997C6.83869 74.8113 6.60115 74.673 6.34185 74.5925C6.08255 74.5119 5.80828 74.4912 5.53978 74.532C5.24863 73.0142 4.42161 71.6509 3.20883 70.6894C3.06161 70.567 2.84079 70.7873 2.988 70.9097C4.20026 71.8637 5.01358 73.2333 5.26988 74.7522C5.2852 74.7895 5.31353 74.8199 5.34962 74.8379C5.38571 74.8559 5.42711 74.8602 5.46617 74.8501C5.70748 74.7877 5.96089 74.7887 6.2017 74.853C6.4425 74.9174 6.66249 75.0429 6.8402 75.2172C6.98742 75.3396 7.18372 75.1193 7.0365 74.997Z" fill="#CDB09D"/>
<path d="M5.85781 78.1538C5.5143 77.493 4.7046 77.4196 4.38563 76.7098C3.91944 75.7308 3.60047 74.654 3.23242 73.6505C3.15881 73.4792 2.86438 73.5526 2.93798 73.7239C3.33057 74.7518 3.67407 75.8287 4.11573 76.8322C4.21895 77.0848 4.37837 77.3108 4.58193 77.493C4.92544 77.7867 5.39162 77.8601 5.61245 78.3007C5.68606 78.4965 5.95596 78.3496 5.85781 78.1538Z" fill="#CDB09D"/>
<path d="M32.9468 79.8182C32.775 83.5139 32.6278 87.2341 32.4561 90.9297C32.4561 90.9687 32.4716 91.006 32.4992 91.0336C32.5268 91.0611 32.5642 91.0766 32.6033 91.0766C32.6423 91.0766 32.6798 91.0611 32.7074 91.0336C32.735 91.006 32.7505 90.9687 32.7505 90.9297C32.9223 87.2341 33.0695 83.5139 33.2412 79.8182C33.2412 79.7793 33.2257 79.7419 33.1981 79.7144C33.1705 79.6869 33.1331 79.6714 33.094 79.6714C33.055 79.6714 33.0175 79.6869 32.9899 79.7144C32.9623 79.7419 32.9468 79.7793 32.9468 79.8182Z" fill="#D8D8D8"/>
<path d="M21.9786 114.866C17.7338 117.631 15.501 123.652 18.4208 141.005C21.1443 157.256 23.1808 166.483 24.5549 172.259C25.6835 172.259 37.3874 172.454 40.8224 172.454C40.9252 162.953 40.4253 153.454 39.3257 144.015C53.3114 143.501 51.2504 128.155 48.5514 114.89H21.9786V114.866Z" fill="#009AE0"/>
<path d="M41.0428 114.866C39.178 118.439 38.9081 125.463 40.7729 138.875C42.9075 154.196 44.0607 165.748 44.7232 172.161C49.7041 172.136 56.9178 172.357 61.8986 172.063C62.8801 156.277 61.8005 144.627 61.8005 144.627C66.6342 144.455 69.4558 142.424 70.9526 139.316C73.7742 133.442 71.8849 123.628 70.0447 114.89H41.0428V114.866Z" fill="#009AE0"/>
<path d="M52.4277 114.866C56.8688 119.687 64.3524 121.082 71.0508 119.883C70.7318 118.194 70.3883 116.506 70.0203 114.866H52.4277Z" fill="#009AE0"/>
<path d="M41.9019 114.866H41.3621C39.1783 116.506 39.0311 119.956 39.0311 122.551C39.0184 126.763 39.3384 130.969 39.988 135.131C40.0126 135.326 40.307 135.253 40.2825 135.057C39.6939 131.308 39.3741 127.521 39.3256 123.726C39.301 120.862 39.1047 116.506 41.9019 114.866Z" fill="#4B6D7C"/>
<path d="M43.9148 76.6365C45.4606 77.7134 46.9328 77.7134 48.1596 77.1015C48.6749 73.8954 49.3373 69.9305 49.46 69.7836L42.5653 67.0425L40.627 69.7347C40.8723 72.0598 42.001 75.3149 43.9148 76.6365Z" fill="#F5E2D6"/>
<path d="M48.503 74.9731C48.9447 72.3788 49.3618 69.9069 49.46 69.7845L45.7305 68.4629C45.436 70.7635 46.7855 73.162 48.503 74.9731Z" fill="#CDB09D"/>
<path d="M38.1002 59.284C38.8608 56.812 43.3755 55.2946 46.4426 55.7841C47.7921 56.0044 48.3809 55.0499 48.749 56.1023C49.6568 58.7211 52.7729 66.7243 51.7915 69.2451C50.3929 72.8919 45.6083 72.4268 43.0566 70.1997C40.5048 67.9725 37.0206 62.8083 38.1002 59.284Z" fill="#F5E2D6"/>
<path d="M48.2084 53.9488C46.8098 53.6551 44.896 54.8543 44.1109 55.7599C41.2892 55.3438 38.3448 56.7878 37.756 58.6968C34.2227 59.9451 37.2162 67.3364 40.4059 67.1895C41.2892 66.5287 41.3628 65.5742 41.9517 64.4728C44.6997 62.5394 44.0618 60.043 43.89 58.6968C44.8224 59.015 48.6991 57.3507 49.1163 56.2494C49.5825 54.6096 48.6501 54.0467 48.2084 53.9488Z" fill="#474D55"/>
<path d="M50.2692 63.4693C50.171 63.2735 49.9011 63.4448 49.9992 63.6406C50.0413 63.7647 50.0371 63.8998 49.9875 64.0211C49.938 64.1424 49.8464 64.2419 49.7293 64.3014C49.5023 64.4299 49.2522 64.5131 48.9932 64.5462C48.797 64.5951 48.8706 64.8888 49.0914 64.8643C49.4832 64.8235 49.8523 64.6608 50.1465 64.3993C50.2494 64.2699 50.3151 64.115 50.3367 63.9512C50.3583 63.7874 50.335 63.6209 50.2692 63.4693Z" fill="#CDB09D"/>
<path d="M48.7232 68.2422C48.5935 68.2641 48.4604 68.2532 48.3361 68.2104C48.2118 68.1676 48.1002 68.0944 48.0116 67.9975C47.9978 67.9804 47.9805 67.9664 47.9609 67.9564C47.9413 67.9464 47.9198 67.9406 47.8978 67.9394C47.8758 67.9383 47.8538 67.9417 47.8332 67.9496C47.8127 67.9575 47.794 67.9696 47.7784 67.9851C47.7628 68.0006 47.7507 68.0192 47.7428 68.0398C47.735 68.0603 47.7315 68.0822 47.7326 68.1042C47.7338 68.1261 47.7396 68.1475 47.7496 68.1671C47.7596 68.1867 47.7737 68.2039 47.7908 68.2177C47.9208 68.3554 48.0829 68.4588 48.2628 68.5186C48.4426 68.5784 48.6345 68.5928 48.8213 68.5604C49.0176 68.5114 48.944 68.1933 48.7232 68.2422Z" fill="#CDB09D"/>
<path d="M47.9143 61.0466C47.8162 60.8753 47.4972 60.9977 47.6199 61.169C48.1842 62.099 47.9634 63.3228 46.9083 63.7878C46.6589 63.8967 46.3881 63.948 46.1161 63.9379C45.844 63.9278 45.5778 63.8566 45.3372 63.7295C45.0966 63.6024 44.8879 63.4228 44.7266 63.2041C44.5653 62.9853 44.4556 62.7331 44.4056 62.4662C44.3566 62.2704 44.0376 62.3193 44.0867 62.5151C44.3566 63.7633 45.5834 64.5954 46.8347 64.1549C48.1842 63.7388 48.6259 62.1969 47.9143 61.0466Z" fill="white"/>
<path d="M52.1594 59.3577C52.0613 59.1863 51.7423 59.3087 51.865 59.48C52.4293 60.4101 52.2085 61.6338 51.1535 62.0988C50.9041 62.2077 50.6332 62.259 50.3612 62.2489C50.0892 62.2388 49.8229 62.1676 49.5823 62.0406C49.3417 61.9135 49.133 61.7339 48.9717 61.5151C48.8104 61.2964 48.7007 61.0441 48.6507 60.7772C48.6017 60.5814 48.2827 60.6303 48.3318 60.8261C48.6017 62.0744 49.8285 62.9065 51.0798 62.466C52.4048 62.0254 52.8465 60.508 52.1594 59.3577Z" fill="white"/>
<path d="M48.6008 61.2669L48.1101 61.5117C47.9138 61.6096 48.0856 61.8788 48.2819 61.7809L48.7726 61.5362C48.9443 61.4383 48.7971 61.169 48.6008 61.2669Z" fill="white"/>
<path d="M44.4547 63.2002C43.1052 63.5184 41.4858 64.1057 40.1363 64.3994C39.94 64.4484 40.0136 64.7665 40.2345 64.7176C41.6085 64.3994 43.2769 63.812 44.651 63.4939C44.5772 63.4018 44.5115 63.3036 44.4547 63.2002Z" fill="white"/>
<path d="M38.1238 66.5779C38.1729 65.1094 40.0376 63.7144 41.9515 64.4731C42.4667 65.9905 43.0556 67.4835 43.6445 68.9764C42.9575 69.6128 41.289 70.1757 40.0867 69.7107C38.6881 69.1722 38.0747 68.1443 38.1238 66.5779Z" fill="#F5E2D6"/>
<path d="M40.4546 66.3818C40.2583 66.2839 40.1111 66.5776 40.2828 66.6511C40.7981 66.8958 41.2888 67.165 41.8041 67.4098C41.8314 67.4248 41.8624 67.4318 41.8936 67.4302C41.9247 67.4285 41.9547 67.4182 41.9803 67.4003C42.0058 67.3825 42.0259 67.3579 42.0381 67.3292C42.0503 67.3006 42.0543 67.2692 42.0495 67.2384C42.0249 67.1895 40.8717 66.6021 40.4546 66.3818Z" fill="#CDB09D"/>
<path d="M114.554 70.0773C114.873 70.1997 121.621 80.0874 121.621 80.0874L128.687 72.0352L119.461 65.1824L114.554 70.0773Z" fill="#F5E2D6"/>
<path d="M116.713 73.0143C115.585 71.3989 114.652 70.1262 114.53 70.0773L116.345 68.2417C117.106 69.7347 117.376 71.6192 116.713 73.0143Z" fill="#CDB09D"/>
<path d="M117.915 54.1931C115.952 52.2596 110.972 53.1407 108.346 55.1476C107.193 56.0287 106.138 55.4413 106.334 56.6161C106.8 59.5285 108.346 68.9023 110.162 70.4442C113.352 73.1119 117.547 70.2974 118.823 66.9199C120.099 63.5424 120.713 56.9587 117.915 54.1931Z" fill="#F5E2D6"/>
<path d="M105.476 56.2737C105.966 58.5988 110.26 57.3995 112.444 56.2981C113.033 58.7946 114.799 64.9866 119.731 65.3293C121.719 60.8994 121.522 54.2423 118.652 54.4625C116.026 50.8158 110.947 53.1654 108.322 55.1968C107.12 54.022 105.623 54.2912 105.476 56.2737Z" fill="#474D55"/>
<path d="M118.111 60.0918C117.301 58.7457 114.872 58.4031 113.474 60.0429C113.744 61.7316 113.964 63.3959 114.185 65.1091C115.142 65.3539 116.982 65.0357 117.89 64.0078C118.896 62.833 118.97 61.5358 118.111 60.0918Z" fill="#F5E2D6"/>
<path d="M106.604 63.4937C106.59 63.3414 106.61 63.188 106.662 63.044C106.713 62.9 106.796 62.7688 106.903 62.6596C107.01 62.5503 107.14 62.4654 107.283 62.4109C107.426 62.3563 107.579 62.3333 107.732 62.3434C107.831 62.3573 107.922 62.4078 107.985 62.4848C108.049 62.5618 108.081 62.6598 108.076 62.7595C108.076 62.7839 108.051 62.7839 108.051 62.8084C108.125 62.8084 108.174 62.8329 108.248 62.8329C108.714 62.9797 108.444 63.6895 107.978 63.5426C107.978 63.5426 107.953 63.5671 108.002 63.5671C108.084 63.5795 108.16 63.6174 108.219 63.6754C108.278 63.7334 108.317 63.8084 108.33 63.8899C108.344 63.9713 108.332 64.055 108.295 64.1289C108.258 64.2028 108.198 64.2631 108.125 64.3014C107.462 64.5706 106.677 64.179 106.604 63.4937Z" fill="#F5E2D6"/>
<path d="M116.296 60.8749C116.075 61.1441 115.855 61.4133 115.634 61.707L115.462 61.9273C115.339 62.0986 115.56 62.3189 115.707 62.172C115.977 61.8294 116.272 61.4867 116.542 61.1196C116.664 60.9483 116.419 60.7036 116.296 60.8749Z" fill="#CDB09D"/>
<path d="M112.42 67.3119C112.395 67.0916 112.076 67.1895 112.101 67.4098C112.148 67.7212 112.103 68.0395 111.972 68.3261C111.842 68.6128 111.631 68.8556 111.365 69.0251C111.193 69.1475 111.365 69.4167 111.536 69.3188C111.858 69.1012 112.112 68.7974 112.268 68.4424C112.424 68.0873 112.477 67.6954 112.42 67.3119Z" fill="#CDB09D"/>
<path d="M119.215 83.7098C112.664 92.5207 110.947 97.1464 110.947 97.1464C110.947 97.1464 103.782 82.5595 100.887 79.5736C100.887 79.5736 92.4217 76.5388 91.3667 78.0807C90.3116 79.6226 90.7533 82.6574 91.3912 84.4686C92.0291 86.2797 94.5073 87.2831 96.8873 87.0384C96.8873 87.0384 102.359 112.296 107.193 113.349C112.026 114.401 116.835 113.814 117.424 113.74C120.663 113.349 133.275 89.5103 133.299 88.7027C133.324 87.895 119.215 83.7098 119.215 83.7098Z" fill="#F5E2D6"/>
<path d="M111.682 98.639C111.51 98.2229 111.338 97.7824 111.167 97.3663C111.093 97.195 110.798 97.2684 110.872 97.4397C111.044 97.8558 111.216 98.2963 111.387 98.7124C111.461 98.8837 111.755 98.8103 111.682 98.639Z" fill="#CDB09D"/>
<path d="M93.0895 76.1073L91.667 85.1997L98.8186 86.313L100.241 77.2206L93.0895 76.1073Z" fill="#7FADE7"/>
<path d="M95.2681 78.105C94.9983 79.9161 94.7284 81.7027 94.483 83.5138C94.4339 83.8809 94.9983 84.0523 95.0719 83.6851C95.3418 81.874 95.6117 80.0874 95.857 78.2763C95.9061 77.8847 95.3172 77.7134 95.2681 78.105Z" fill="white"/>
<path d="M97.6723 71.1053C97.0296 71.4189 96.5206 71.9515 96.2371 72.6068C95.9536 73.2621 95.9144 73.997 96.1265 74.6786C96.1493 74.7565 96.2022 74.8221 96.2735 74.8612C96.3448 74.9002 96.4288 74.9093 96.5068 74.8866C96.5849 74.8639 96.6508 74.8112 96.6899 74.74C96.729 74.6689 96.7382 74.5851 96.7154 74.5072C96.5424 73.9533 96.5763 73.3557 96.8108 72.8248C97.0454 72.2939 97.4647 71.8656 97.9913 71.6192C98.3348 71.4479 98.0158 70.934 97.6723 71.1053Z" fill="#BCD7FD"/>
<path d="M98.507 72.1333C98.0908 72.397 97.7602 72.7756 97.5555 73.2231C97.3508 73.6706 97.2807 74.1678 97.3538 74.6542C97.4029 75.0458 97.9918 74.8745 97.9427 74.4829C97.8948 74.1244 97.9529 73.7597 98.1098 73.4336C98.2667 73.1075 98.5156 72.8343 98.826 72.6473C99.1205 72.4515 98.826 71.9375 98.507 72.1333Z" fill="#BCD7FD"/>
<path d="M92.5687 77.9337C92.2743 77.8358 92.127 78.1785 92.2497 78.3743C92.0513 78.3682 91.8581 78.4383 91.7099 78.5701C91.5981 78.6689 91.5104 78.7918 91.4534 78.9296C91.3964 79.0673 91.3717 79.2162 91.3812 79.365C91.3907 79.5137 91.4341 79.6583 91.508 79.7877C91.582 79.9172 91.6846 80.0281 91.8081 80.112C91.8571 80.1493 91.9185 80.1667 91.9798 80.1609C91.9935 80.4138 92.0516 80.6624 92.1516 80.8952C92.1516 80.9197 92.127 80.9686 92.127 80.9931C91.9279 81.0325 91.747 81.1356 91.6118 81.2868C91.4694 81.4541 91.376 81.6574 91.3419 81.8742C90.8512 82.535 90.2868 83.3916 90.704 84.2482C90.8183 84.4964 91.015 84.6977 91.2608 84.8181C91.5067 84.9385 91.7866 84.9706 92.0534 84.909C92.8631 84.6888 93.1085 83.7832 92.8631 83.049C92.8877 83 92.8877 82.951 92.9122 82.9021C92.9367 82.8531 92.9613 82.7797 92.9858 82.7063C93.0354 82.5637 93.0684 82.4159 93.084 82.2658C93.3702 81.9607 93.5283 81.5578 93.5256 81.1399C93.7654 80.882 93.9418 80.572 94.0409 80.2344C94.2617 79.2064 93.5501 78.2764 92.5687 77.9337ZM92.127 79.0351V79.1575C92.1285 79.2178 92.1454 79.2768 92.1761 79.3288C92.129 79.3858 92.0954 79.4528 92.078 79.5246C92.0462 79.4905 92.0221 79.4501 92.0073 79.4059C91.9924 79.3618 91.9871 79.3151 91.9918 79.2688C91.9964 79.2225 92.0109 79.1777 92.0342 79.1374C92.0575 79.0971 92.0892 79.0622 92.127 79.0351Z" fill="#F5E2D6"/>
<path d="M93.1823 80.5033C92.8033 80.4066 92.4603 80.2027 92.1948 79.9161C91.9292 79.6295 91.7524 79.2725 91.6856 78.888C91.661 78.7411 91.4157 78.7901 91.4402 78.9614C91.518 79.3871 91.7166 79.7817 92.0123 80.0983C92.308 80.415 92.6885 80.6404 93.1087 80.748C93.2805 80.7725 93.3295 80.5278 93.1823 80.5033Z" fill="#CDB09D"/>
<path d="M92.4459 82.0703C92.1989 82.0151 91.9709 81.8953 91.7855 81.7233C91.6002 81.5512 91.464 81.3331 91.3909 81.0913C91.3811 81.0588 91.3589 81.0316 91.3289 81.0155C91.299 80.9995 91.2639 80.9959 91.2314 81.0056C91.1989 81.0154 91.1716 81.0376 91.1555 81.0674C91.1393 81.0973 91.1358 81.1323 91.1455 81.1647C91.2256 81.4497 91.3822 81.7075 91.5984 81.9102C91.8146 82.1129 92.0822 82.2529 92.3723 82.315C92.5441 82.3395 92.5931 82.0948 92.4459 82.0703Z" fill="#CDB09D"/>
<path d="M92.3481 83.881C92.104 83.8333 91.8807 83.7111 91.7093 83.5313C91.5379 83.3515 91.4267 83.1231 91.3911 82.8775C91.3666 82.7306 91.1212 82.7796 91.1458 82.9509C91.1969 83.2359 91.3313 83.4995 91.5321 83.7085C91.7329 83.9175 91.9912 84.0627 92.2745 84.1257C92.4462 84.1502 92.5198 83.9054 92.3481 83.881Z" fill="#CDB09D"/>
<path d="M103.684 83.9304C103.61 82.4864 102.923 80.6018 101.697 79.5739C98.2861 77.3956 97.8444 77.1509 97.4273 77.518C96.5931 78.2523 97.3046 79.1578 98.0652 79.6963C98.3127 80.0323 98.5921 80.3437 98.8995 80.6263C98.9485 80.8221 100.372 83.9304 100.789 84.4443C100.821 84.483 100.861 84.5137 100.907 84.534C100.953 84.5543 101.003 84.5636 101.053 84.5612C101.103 84.5589 101.151 84.5448 101.195 84.5203C101.239 84.4957 101.276 84.4613 101.304 84.4198C101.426 84.4456 101.553 84.4458 101.675 84.4205C101.798 84.3953 101.914 84.345 102.016 84.273C102.21 84.2463 102.396 84.1777 102.562 84.072C102.727 83.9664 102.867 83.8262 102.973 83.6611C103.022 83.808 103.046 83.9304 103.095 84.0772C103.193 84.3464 103.709 84.2485 103.684 83.9304Z" fill="#F5E2D6"/>
<path d="M100.714 83.8565C100.445 83.3425 100.15 82.8285 99.8802 82.3146C99.8066 82.1677 99.5857 82.2901 99.6593 82.437L100.494 83.9788C100.502 83.9933 100.512 84.006 100.525 84.0163C100.538 84.0266 100.553 84.0342 100.569 84.0388C100.585 84.0433 100.602 84.0447 100.618 84.0428C100.635 84.0409 100.651 84.0358 100.665 84.0278C100.68 84.0197 100.693 84.0089 100.703 83.996C100.713 83.983 100.721 83.9682 100.725 83.9523C100.73 83.9363 100.731 83.9197 100.729 83.9033C100.728 83.8868 100.722 83.8709 100.714 83.8565Z" fill="#CDB09D"/>
<path d="M148.463 114.523C138.943 114.352 129.398 113.862 119.878 114.18C120.025 116.04 120.099 117.142 120.099 117.142C120.099 117.142 115.29 117.754 96.004 119.247C76.7184 120.739 71.2959 125.561 80.3498 153.487C89.4037 181.412 94.0165 182.929 88.3732 184.324C81.135 186.136 80.3989 189.048 80.448 190.321H105.794C103.365 157.672 97.5007 141.151 97.5007 141.151L114.676 141.445C154.842 142.179 150.499 129.526 148.463 114.523Z" fill="#F5E2D6"/>
<path d="M148.463 114.523C138.942 114.352 129.398 113.862 119.878 114.18C120.025 116.04 120.099 117.142 120.099 117.142C120.099 117.142 115.29 117.754 96.004 119.247C76.7184 120.739 71.2959 125.561 80.3498 153.487C83.9567 164.647 86.8519 171.573 88.6922 175.979C93.8448 175.171 99.0219 174.608 104.199 174.045C101.451 152.189 97.5252 141.151 97.5252 141.151L114.701 141.445C154.842 142.179 151.039 138.875 148.463 114.523Z" fill="#EBEBEB"/>
<path d="M125.741 117.582L121.325 117.729C121.129 117.729 121.129 118.047 121.325 118.023L125.741 117.876C125.781 117.876 125.818 117.861 125.846 117.833C125.873 117.805 125.889 117.768 125.889 117.729C125.889 117.69 125.873 117.653 125.846 117.625C125.818 117.598 125.781 117.582 125.741 117.582Z" fill="white"/>
<path d="M148.463 114.449H119.878C119.853 114.082 119.804 113.691 119.78 113.25C119.632 111.659 119.461 109.677 119.289 107.45C119.264 107.058 119.215 106.667 119.191 106.25C119.142 105.737 119.117 105.198 119.068 104.635C119.043 104.244 119.019 103.852 118.97 103.436C118.823 101.576 118.7 99.6179 118.577 97.6354C118.553 97.2438 118.528 96.8278 118.504 96.4362C118.479 95.8977 118.43 95.3593 118.406 94.8453C118.381 94.4537 118.356 94.0377 118.332 93.6461C118.234 91.8839 118.16 90.1462 118.087 88.433C118.062 88.0414 118.062 87.6253 118.037 87.2337C118.013 86.6953 118.013 86.1569 117.988 85.6429C117.988 85.2268 117.964 84.8352 117.964 84.4436C117.915 82.0941 117.915 79.8914 117.988 78.0313C118.013 77.6152 118.013 77.2236 118.037 76.832C118.062 76.5873 118.062 76.367 118.087 76.1223C118.111 75.8041 118.16 75.5104 118.209 75.2167C118.278 74.8104 118.377 74.4096 118.504 74.0175C119.755 70.1994 123.386 68.3394 125.423 69.4162C126.723 70.126 128.932 71.7168 128.932 71.7168C129.899 72.4301 130.825 73.1982 131.704 74.0175C132.121 74.4091 132.538 74.8007 132.931 75.2167C133.446 75.7307 133.937 76.2691 134.403 76.832C134.747 77.2236 135.09 77.6152 135.409 78.0313C137.009 80.0413 138.429 82.1869 139.654 84.4436C139.875 84.8352 140.096 85.2513 140.292 85.6429C140.562 86.1813 140.832 86.6953 141.077 87.2337C141.273 87.6253 141.445 88.0414 141.641 88.433C142.402 90.1217 143.089 91.8839 143.702 93.6461C143.85 94.0377 143.972 94.4537 144.12 94.8453C144.291 95.3838 144.463 95.8977 144.635 96.4362C144.758 96.8278 144.88 97.2438 145.003 97.6354C145.567 99.5689 146.058 101.502 146.5 103.436C146.598 103.828 146.671 104.244 146.769 104.635C146.892 105.174 146.99 105.712 147.088 106.25C147.162 106.642 147.236 107.058 147.309 107.45C147.677 109.408 147.972 111.366 148.242 113.25C148.291 113.593 148.34 113.911 148.389 114.254C148.438 114.307 148.464 114.377 148.463 114.449Z" fill="#A50034"/>
<path d="M125.128 93.9887C124.686 90.1952 124.269 86.4016 123.828 82.608C123.803 82.4122 123.509 82.4122 123.533 82.608C123.975 86.4016 124.392 90.1952 124.834 93.9887H125.128Z" fill="#A50034"/>
<path d="M148.463 114.45H119.878C119.853 114.083 119.804 113.691 119.78 113.25H148.316C148.365 113.593 148.414 113.911 148.463 114.254C148.438 114.303 148.463 114.376 148.463 114.45Z" fill="#A50034"/>
<path d="M146.795 104.635H119.044C119.019 104.244 118.995 103.852 118.946 103.436H146.525C146.623 103.828 146.721 104.219 146.795 104.635Z" fill="#A50034"/>
<path d="M147.358 107.425H119.264C119.24 107.034 119.191 106.642 119.166 106.226H147.113C147.211 106.642 147.285 107.034 147.358 107.425Z" fill="#A50034"/>
<path d="M132.955 75.1922H118.233C118.303 74.7859 118.401 74.3851 118.528 73.9929H131.728C132.145 74.3845 132.563 74.7761 132.955 75.1922Z" fill="#A50034"/>
<path d="M135.458 77.9825H118.013C118.037 77.5664 118.037 77.1748 118.062 76.7832H134.452C134.795 77.1748 135.114 77.5909 135.458 77.9825Z" fill="#A50034"/>
<path d="M140.341 85.594H118.013C118.013 85.1779 117.988 84.7864 117.988 84.3948H139.703C139.924 84.7864 140.12 85.2024 140.341 85.594Z" fill="#A50034"/>
<path d="M141.691 88.4082H118.087C118.062 88.0166 118.062 87.6006 118.038 87.209H141.126C141.323 87.6006 141.519 87.9922 141.691 88.4082Z" fill="#A50034"/>
<path d="M144.169 94.8208H118.406C118.381 94.4292 118.357 94.0132 118.332 93.6216H143.752C143.899 94.0132 144.046 94.4048 144.169 94.8208Z" fill="#A50034"/>
<path d="M140.463 97.1707C140.316 96.8036 129.079 96.3876 125.447 97.1218L125.693 99.7161C113.375 99.9119 105.376 102.041 100.813 103.828C97.8193 104.538 92.9366 105.492 91.5871 107.01C89.9922 108.821 88.7409 109.922 89.9677 111.072C89.8205 111.342 90.3603 112.443 90.9491 112.149C90.8265 112.345 91.1945 112.932 92.1514 112.981C92.863 113.593 94.3351 112.786 95.1939 111.488C95.9545 111.268 96.8624 111.097 97.5739 110.167C97.5739 110.167 101.156 111.904 105.671 109.335C105.671 109.335 115.142 114.474 133.691 112.786C145.272 111.733 144.07 106.324 140.463 97.1707Z" fill="#F5E2D6"/>
<path d="M127.238 99.7899L126.183 99.643C125.986 99.6186 125.913 99.9123 126.109 99.9367L127.164 100.084C127.36 100.108 127.434 99.8144 127.238 99.7899Z" fill="#CDB09D"/>
<path d="M139.409 142.18H102.065C101.824 142.18 101.593 142.084 101.423 141.914C101.252 141.745 101.157 141.514 101.157 141.274C101.157 141.034 101.252 140.804 101.423 140.634C101.593 140.464 101.824 140.369 102.065 140.369H139.409C141.503 140.371 143.538 139.673 145.188 138.386C146.838 137.1 148.008 135.299 148.512 133.271L162.031 78.9619C162.09 78.7282 162.239 78.5273 162.446 78.4034C162.653 78.2794 162.901 78.2426 163.135 78.301C163.37 78.3595 163.571 78.5083 163.695 78.7149C163.82 78.9214 163.856 79.1687 163.798 79.4024L150.278 133.712C149.67 136.128 148.27 138.274 146.302 139.808C144.333 141.342 141.907 142.176 139.409 142.18Z" fill="#A0A0A0"/>
<path d="M89.845 112.981C86.5081 105.076 84.6924 101.013 81.3555 93.1081C81.2082 92.7654 80.6194 92.9123 80.7666 93.2794C84.1035 101.185 85.9192 105.247 89.2561 113.153C89.4279 113.495 90.0168 113.349 89.845 112.981Z" fill="#CFCFCF"/>
<path d="M111.461 112.981H89.9185C89.8372 112.981 89.7592 113.014 89.7016 113.071C89.6441 113.128 89.6118 113.206 89.6118 113.287C89.6118 113.369 89.6441 113.446 89.7016 113.504C89.7592 113.561 89.8372 113.593 89.9185 113.593H111.461C111.543 113.593 111.621 113.561 111.678 113.504C111.736 113.446 111.768 113.369 111.768 113.287C111.768 113.206 111.736 113.128 111.678 113.071C111.621 113.014 111.543 112.981 111.461 112.981Z" fill="#CFCFCF"/>
<path d="M88.3482 87.846L85.1339 92.2514C84.9131 92.5696 85.4284 92.8633 85.6492 92.5451C86.7288 91.0767 87.7839 89.6082 88.8635 88.1397C89.0843 87.846 88.569 87.5523 88.3482 87.846Z" fill="#A50034"/>
<path d="M90.2373 91.9334L86.2134 94.1361C86.1478 94.1765 86.1005 94.2406 86.0815 94.3151C86.0624 94.3895 86.0732 94.4685 86.1114 94.5352C86.1496 94.6019 86.2123 94.6512 86.2863 94.6726C86.3603 94.6941 86.4397 94.686 86.5078 94.6501L90.5318 92.4474C90.8998 92.276 90.5808 91.7621 90.2373 91.9334Z" fill="#A50034"/>
<path d="M44.3555 87.0626C43.3495 88.4576 42.3435 89.8772 41.3376 91.2722C41.1167 91.5904 41.632 91.8841 41.8528 91.5659C42.8588 90.1709 43.8648 88.7513 44.8708 87.3563C45.1162 87.0381 44.5764 86.7444 44.3555 87.0626Z" fill="#A50034"/>
<path d="M47.4707 92.1532C45.9986 93.0098 44.5264 93.8909 43.0542 94.7475C42.9886 94.7878 42.9413 94.852 42.9223 94.9264C42.9033 95.0009 42.914 95.0798 42.9522 95.1466C42.9904 95.2133 43.0532 95.2626 43.1271 95.284C43.2011 95.3054 43.2806 95.2974 43.3487 95.2615C44.8208 94.4048 46.293 93.5237 47.7652 92.6671C47.8004 92.6486 47.8315 92.6231 47.8566 92.5924C47.8818 92.5616 47.9005 92.526 47.9116 92.4879C47.9227 92.4498 47.926 92.4098 47.9213 92.3704C47.9166 92.3309 47.904 92.2928 47.8843 92.2584C47.8645 92.2239 47.838 92.1937 47.8063 92.1696C47.7746 92.1456 47.7384 92.1281 47.6999 92.1183C47.6613 92.1085 47.6211 92.1065 47.5817 92.1125C47.5424 92.1185 47.5046 92.1323 47.4707 92.1532Z" fill="#A50034"/>
<path d="M38.3196 87.9192C38.1233 88.5801 37.927 89.2653 37.7062 89.9262C37.5835 90.2933 38.1724 90.4646 38.295 90.0975C38.4913 89.4367 38.6876 88.7514 38.9084 88.0906C39.0066 87.7235 38.4177 87.5521 38.3196 87.9192Z" fill="#A50034"/>
<path d="M44.5267 115.037H14.2489L8.97363 92.9609H39.2514L44.5267 115.037Z" fill="#A50034"/>
<path d="M50.415 112.981H28.8721C28.7908 112.981 28.7128 113.013 28.6553 113.071C28.5977 113.128 28.5654 113.206 28.5654 113.287C28.5654 113.368 28.5977 113.446 28.6553 113.503C28.7128 113.561 28.7908 113.593 28.8721 113.593H50.415C50.4964 113.593 50.5744 113.561 50.6319 113.503C50.6894 113.446 50.7217 113.368 50.7217 113.287C50.7217 113.206 50.6894 113.128 50.6319 113.071C50.5744 113.013 50.4964 112.981 50.415 112.981Z" fill="#A50034"/>
<path d="M22.0511 104.635C21.4377 103.583 20.7998 102.53 20.1864 101.454C20.146 101.388 20.0816 101.341 20.007 101.322C19.9323 101.303 19.8532 101.314 19.7863 101.352C19.7194 101.39 19.67 101.452 19.6485 101.526C19.627 101.6 19.6351 101.679 19.6711 101.747C20.2845 102.8 20.9225 103.852 21.5359 104.929C21.5545 104.964 21.5799 104.995 21.6108 105.02C21.6417 105.045 21.6773 105.064 21.7155 105.075C21.7538 105.086 21.7938 105.089 21.8334 105.085C21.8729 105.08 21.9111 105.067 21.9457 105.048C21.9802 105.028 22.0105 105.002 22.0346 104.97C22.0587 104.938 22.0762 104.902 22.086 104.864C22.0959 104.825 22.0979 104.785 22.0919 104.746C22.0859 104.707 22.072 104.669 22.0511 104.635Z" fill="white"/>
<path d="M23.7692 104.684C23.1558 103.681 22.5669 102.677 21.9535 101.674C21.913 101.608 21.8487 101.561 21.7741 101.542C21.6994 101.523 21.6203 101.534 21.5534 101.572C21.4865 101.61 21.4371 101.673 21.4156 101.746C21.3941 101.82 21.4022 101.9 21.4382 101.967C22.0516 102.971 22.6405 103.974 23.2539 104.978C23.4502 105.32 23.99 105.027 23.7692 104.684Z" fill="white"/>
<path d="M-18.6294 123.065L-28.861 122.257L-27.4134 114.352H-61.3471C-63.31 140.589 -65.4201 145.288 -31.879 143.477L-23.6348 142.865C-23.6348 142.865 -28.0513 153.487 -30.1615 161.588C-24.8125 162.078 -10.4343 165.357 -10.2871 165.504C-9.33015 163.032 3.23244 124.778 -18.6294 123.065Z" fill="#EBEBEB"/>
<path d="M0.656644 113.545L-3.85804 109.041C-4.12793 108.772 -4.56958 109.188 -4.27515 109.457L0.239525 113.961C0.294838 114.016 0.36986 114.047 0.448085 114.047C0.526309 114.047 0.601331 114.016 0.656644 113.961C0.711957 113.905 0.743032 113.831 0.743032 113.753C0.743032 113.675 0.711957 113.6 0.656644 113.545Z" fill="#CFCFCF"/>
<path d="M13.6598 104.684H6.27441V113.838H13.6598V104.684Z" fill="#7FADE7"/>
<path d="M7.52565 111.684C6.10255 112.883 4.33593 111.611 4.06604 110.044C3.79614 108.551 5.04749 106.177 6.78956 107.45C7.10853 107.67 7.40297 107.156 7.08399 106.936C4.94934 105.394 3.10912 108.16 3.45263 110.142C3.82067 112.222 6.15162 113.617 7.94276 112.124C8.2372 111.855 7.82009 111.439 7.52565 111.684Z" fill="#7FADE7"/>
<path d="M9.12084 101.062C9.41528 100.793 8.97362 100.377 8.70372 100.646C8.23682 101.095 7.96699 101.71 7.95319 102.356C7.9394 103.003 8.18277 103.629 8.63012 104.097C8.68543 104.152 8.76045 104.183 8.83867 104.183C8.91689 104.183 8.99192 104.152 9.04723 104.097C9.10254 104.042 9.13362 103.967 9.13362 103.889C9.13362 103.811 9.10254 103.736 9.04723 103.681C8.8773 103.505 8.74421 103.298 8.65576 103.07C8.5673 102.843 8.52528 102.6 8.53213 102.356C8.53899 102.112 8.59459 101.872 8.69568 101.65C8.79677 101.428 8.94132 101.228 9.12084 101.062Z" fill="#BCD7FD"/>
<path d="M10.4944 101.184C10.7888 100.915 10.3472 100.499 10.0773 100.768C9.61036 101.217 9.34052 101.832 9.32673 102.479C9.31293 103.125 9.5563 103.751 10.0036 104.219C10.059 104.274 10.134 104.305 10.2122 104.305C10.2904 104.305 10.3655 104.274 10.4208 104.219C10.4761 104.164 10.5072 104.089 10.5072 104.011C10.5072 103.933 10.4761 103.858 10.4208 103.803C10.0824 103.446 9.90013 102.97 9.91394 102.479C9.92774 101.987 10.1365 101.522 10.4944 101.184Z" fill="#BCD7FD"/>
<path d="M121.522 113.544H-64.2671C-64.3653 113.544 -64.537 114.744 -64.4879 115.331H121.522C122.7 115.356 122.7 113.544 121.522 113.544Z" fill="#969696"/>
<path fill-rule="evenodd" clip-rule="evenodd" d="M40.7586 32.2819C40.4563 32.4204 40.3236 32.7777 40.4621 33.08C40.6007 33.3822 40.958 33.515 41.2602 33.3764L55.0859 27.0396L69.0125 33.4897C69.3142 33.6295 69.672 33.4982 69.8118 33.1965C69.9515 32.8948 69.8202 32.5369 69.5185 32.3972L56.5259 26.3796L69.0628 20.6336C69.365 20.495 69.4978 20.1377 69.3592 19.8355C69.2207 19.5332 68.8634 19.4005 68.5611 19.539L55.0886 25.7139L41.7653 19.5432C41.4636 19.4035 41.1058 19.5348 40.966 19.8365C40.8263 20.1382 40.9576 20.4961 41.2593 20.6358L53.6486 26.3739L40.7586 32.2819Z" fill="#D1E1F5"/>
</g>
<defs>
<clipPath id="clip0_9533_6206">
<rect width="136.446" height="130" fill="white"/>
</clipPath>
</defs>
</svg>
