<svg width="147" height="130" viewBox="0 0 147 130" fill="none" xmlns="http://www.w3.org/2000/svg">
<g clip-path="url(#clip0_9533_6402)">
<path d="M120.701 127.181V179.193C120.701 180.677 123.026 180.677 123.026 179.193V127.181C123.026 125.67 120.701 125.67 120.701 127.181Z" fill="#969696"/>
<path d="M128.514 117.388V148.52C128.514 149.092 128.286 149.641 127.88 150.046C127.475 150.451 126.925 150.678 126.351 150.678H-13.0705C-13.644 150.678 -14.194 150.451 -14.5995 150.046C-15.0051 149.641 -15.2329 149.092 -15.2329 148.52V117.388C-15.2329 116.816 -15.0051 116.267 -14.5995 115.862C-14.194 115.458 -13.644 115.23 -13.0705 115.23H126.351C126.925 115.23 127.475 115.458 127.88 115.862C128.286 116.267 128.514 116.816 128.514 117.388Z" fill="#969696"/>
<path d="M128.514 126.345H-15.2329V127.019H128.514V126.345Z" fill="white"/>
<path d="M65.7089 136.36C64.9776 136.36 64.226 136.36 63.4948 136.339C63.4274 136.337 63.3639 136.307 63.3182 136.258C63.2725 136.209 63.2483 136.143 63.251 136.076C63.2537 136.009 63.283 135.945 63.3326 135.9C63.3821 135.854 63.4477 135.83 63.5151 135.833C64.5104 135.853 65.5058 135.853 66.5011 135.853C66.5658 135.853 66.6278 135.878 66.6735 135.924C66.7192 135.97 66.7449 136.032 66.7449 136.096C66.7449 136.161 66.7192 136.222 66.6735 136.268C66.6278 136.314 66.5658 136.339 66.5011 136.339C66.2371 136.36 65.973 136.36 65.7089 136.36ZM69.4872 136.258C69.4548 136.259 69.4226 136.254 69.3926 136.242C69.3625 136.23 69.3351 136.212 69.3123 136.19C69.2894 136.167 69.2715 136.139 69.2596 136.109C69.2478 136.079 69.2423 136.047 69.2434 136.015C69.2418 135.982 69.2468 135.948 69.2582 135.917C69.2697 135.886 69.2872 135.857 69.3099 135.832C69.3326 135.808 69.36 135.788 69.3904 135.774C69.4208 135.76 69.4537 135.752 69.4872 135.751C70.4825 135.711 71.4779 135.63 72.4529 135.549C72.4849 135.546 72.5171 135.55 72.5477 135.559C72.5783 135.569 72.6067 135.585 72.6312 135.606C72.6557 135.626 72.6759 135.652 72.6906 135.68C72.7054 135.709 72.7143 135.74 72.717 135.772C72.7196 135.804 72.716 135.836 72.7062 135.866C72.6964 135.897 72.6807 135.925 72.6599 135.95C72.6392 135.974 72.6138 135.994 72.5853 136.009C72.5567 136.024 72.5255 136.033 72.4935 136.035C71.4982 136.137 70.5028 136.218 69.4872 136.258ZM60.5291 136.238C59.5134 136.197 58.518 136.116 57.5227 136.035C57.458 136.03 57.3982 135.999 57.3563 135.95C57.3144 135.9 57.2939 135.836 57.2992 135.772C57.3046 135.707 57.3355 135.647 57.385 135.606C57.4345 135.564 57.4987 135.543 57.5633 135.549C58.5383 135.63 59.5337 135.691 60.5291 135.731C60.5625 135.732 60.5954 135.74 60.6258 135.754C60.6563 135.768 60.6836 135.787 60.7063 135.812C60.729 135.836 60.7466 135.865 60.758 135.897C60.7694 135.928 60.7744 135.961 60.7728 135.995C60.7685 136.058 60.7415 136.117 60.6967 136.162C60.6518 136.207 60.5923 136.234 60.5291 136.238ZM54.5773 135.751H54.557C53.5616 135.63 52.5663 135.508 51.5912 135.366C51.5573 135.363 51.5243 135.353 51.4944 135.337C51.4645 135.32 51.4383 135.298 51.4174 135.271C51.3965 135.244 51.3815 135.213 51.3732 135.18C51.3648 135.147 51.3634 135.113 51.3691 135.079C51.3747 135.046 51.3872 135.014 51.4058 134.985C51.4244 134.957 51.4487 134.932 51.4771 134.913C51.5056 134.895 51.5377 134.882 51.5713 134.876C51.6049 134.87 51.6394 134.872 51.6725 134.88C52.6475 135.022 53.6429 135.143 54.6179 135.265C54.6515 135.268 54.684 135.279 54.7135 135.295C54.743 135.311 54.769 135.333 54.7898 135.36C54.8107 135.386 54.826 135.416 54.8348 135.449C54.8437 135.481 54.8459 135.515 54.8414 135.549C54.8214 135.604 54.7859 135.653 54.7391 135.689C54.6923 135.725 54.6361 135.746 54.5773 135.751ZM75.4389 135.731C75.3787 135.728 75.3214 135.704 75.277 135.663C75.2325 135.623 75.2036 135.568 75.1952 135.508C75.1906 135.475 75.1929 135.441 75.2017 135.408C75.2106 135.376 75.2259 135.346 75.2467 135.319C75.2675 135.293 75.2935 135.271 75.323 135.254C75.3526 135.238 75.3851 135.228 75.4186 135.224C76.3937 135.103 77.389 134.961 78.364 134.778C78.4263 134.773 78.4884 134.791 78.5378 134.829C78.5873 134.867 78.6205 134.922 78.6307 134.984C78.641 135.046 78.6276 135.109 78.5932 135.161C78.5588 135.213 78.506 135.25 78.4453 135.265C77.4702 135.427 76.4546 135.569 75.4796 135.711C75.4592 135.731 75.4592 135.731 75.4389 135.731ZM48.6661 134.88H48.6255C47.6505 134.697 46.6551 134.495 45.6801 134.292C45.6195 134.272 45.5687 134.23 45.5378 134.174C45.507 134.119 45.4984 134.054 45.5139 133.992C45.5293 133.93 45.5676 133.877 45.6211 133.842C45.6746 133.807 45.7392 133.794 45.802 133.805C46.7567 134.008 47.752 134.211 48.7271 134.393C48.7916 134.404 48.8493 134.44 48.8873 134.493C48.9254 134.546 48.9408 134.612 48.9302 134.677C48.9137 134.734 48.8792 134.785 48.8316 134.822C48.7841 134.858 48.7261 134.879 48.6661 134.88ZM81.3298 134.738C81.2715 134.739 81.2147 134.719 81.1699 134.682C81.1251 134.645 81.0953 134.592 81.086 134.535C81.0754 134.468 81.0904 134.4 81.1281 134.343C81.1657 134.287 81.2232 134.247 81.2891 134.231C82.2439 134.028 83.2392 133.805 84.1939 133.562C84.2268 133.551 84.2615 133.547 84.2959 133.551C84.3303 133.554 84.3637 133.564 84.394 133.581C84.4242 133.598 84.4507 133.62 84.4718 133.648C84.4928 133.675 84.508 133.706 84.5164 133.74C84.5248 133.773 84.5262 133.808 84.5205 133.842C84.5148 133.876 84.5022 133.909 84.4833 133.938C84.4645 133.967 84.4399 133.991 84.4111 134.011C84.3823 134.03 84.3498 134.042 84.3158 134.048C83.3408 134.292 82.3657 134.515 81.3907 134.717C81.3827 134.725 81.3731 134.731 81.3625 134.734C81.352 134.738 81.3408 134.739 81.3298 134.738ZM42.8363 133.602H42.7753C41.8003 133.339 40.8252 133.075 39.8908 132.792C39.8289 132.773 39.777 132.73 39.7465 132.673C39.716 132.616 39.7095 132.549 39.7283 132.487C39.7472 132.426 39.7899 132.374 39.847 132.343C39.9042 132.313 39.9711 132.306 40.033 132.325C40.9674 132.609 41.9222 132.873 42.8972 133.136C42.9612 133.153 43.016 133.195 43.0501 133.251C43.0842 133.308 43.0949 133.376 43.08 133.44C43.0566 133.486 43.0219 133.525 42.9793 133.553C42.9366 133.581 42.8874 133.598 42.8363 133.602ZM87.1393 133.298C87.0845 133.298 87.0312 133.28 86.9873 133.247C86.9434 133.214 86.9113 133.168 86.8956 133.116C86.8862 133.085 86.8829 133.053 86.886 133.021C86.8891 132.989 86.8985 132.958 86.9136 132.93C86.9287 132.902 86.9492 132.877 86.974 132.857C86.9988 132.836 87.0274 132.821 87.0581 132.812C88.0128 132.528 88.9675 132.244 89.9019 131.92C89.9339 131.909 89.9677 131.905 90.0014 131.907C90.0351 131.91 90.0679 131.919 90.0981 131.934C90.1283 131.949 90.1552 131.97 90.1773 131.995C90.1994 132.02 90.2163 132.05 90.2269 132.082C90.2376 132.114 90.2419 132.148 90.2395 132.181C90.2371 132.215 90.2281 132.248 90.213 132.278C90.1979 132.308 90.177 132.335 90.1515 132.357C90.126 132.379 90.0964 132.396 90.0644 132.406C89.1097 132.731 88.155 133.015 87.2003 133.298H87.1393ZM37.1079 131.859C37.0793 131.862 37.0505 131.855 37.0267 131.839C36.072 131.514 35.1376 131.149 34.2235 130.784C34.1928 130.773 34.1648 130.755 34.141 130.732C34.1173 130.709 34.0983 130.682 34.085 130.652C34.0718 130.622 34.0647 130.589 34.0641 130.556C34.0634 130.523 34.0693 130.491 34.0813 130.46C34.0933 130.43 34.1112 130.402 34.134 130.378C34.1569 130.354 34.1841 130.335 34.2143 130.322C34.2445 130.309 34.277 130.302 34.3099 130.301C34.3429 130.3 34.3756 130.306 34.4063 130.318C35.3204 130.683 36.2548 131.048 37.1892 131.372C37.2208 131.383 37.2499 131.4 37.2745 131.423C37.2992 131.445 37.3188 131.473 37.3322 131.503C37.3456 131.534 37.3524 131.567 37.3523 131.6C37.3521 131.633 37.345 131.666 37.3314 131.697C37.3184 131.745 37.2891 131.788 37.2484 131.817C37.2078 131.847 37.1582 131.862 37.1079 131.859ZM92.8067 131.413C92.7565 131.416 92.7069 131.401 92.6662 131.371C92.6255 131.342 92.5962 131.299 92.5833 131.251C92.5646 131.189 92.5687 131.122 92.5947 131.063C92.6208 131.003 92.6671 130.955 92.7255 130.926C93.6599 130.582 94.574 130.197 95.4881 129.811C95.55 129.787 95.6191 129.789 95.68 129.815C95.741 129.842 95.7888 129.891 95.8131 129.953C95.8373 130.015 95.836 130.084 95.8093 130.145C95.7826 130.206 95.7328 130.253 95.6709 130.278C94.7568 130.663 93.8224 131.048 92.888 131.393C92.8641 131.409 92.8354 131.416 92.8067 131.413ZM31.5827 129.629C31.5476 129.632 31.5124 129.625 31.4812 129.609C30.5671 129.183 29.6733 128.737 28.7998 128.291C28.7406 128.259 28.6966 128.204 28.6775 128.14C28.6585 128.075 28.6659 128.005 28.6983 127.946C28.7306 127.887 28.7851 127.843 28.8499 127.824C28.9147 127.805 28.9843 127.813 29.0436 127.845C29.9171 128.291 30.8108 128.737 31.7046 129.163C31.7341 129.176 31.7607 129.195 31.7828 129.218C31.805 129.242 31.8222 129.269 31.8335 129.299C31.8449 129.33 31.8501 129.362 31.8489 129.394C31.8477 129.426 31.8401 129.458 31.8265 129.487C31.8001 129.528 31.7642 129.563 31.7218 129.587C31.6794 129.612 31.6317 129.626 31.5827 129.629ZM98.2913 129.082C98.2445 129.081 98.1987 129.068 98.1592 129.043C98.1197 129.017 98.088 128.982 98.0678 128.94C98.0543 128.91 98.0467 128.879 98.0454 128.847C98.0442 128.814 98.0495 128.782 98.0608 128.752C98.0721 128.722 98.0894 128.694 98.1115 128.671C98.1336 128.647 98.1602 128.628 98.1897 128.615C99.0835 128.19 99.9773 127.744 100.851 127.297C100.91 127.265 100.98 127.258 101.044 127.277C101.109 127.296 101.164 127.34 101.196 127.399C101.228 127.458 101.236 127.528 101.217 127.592C101.198 127.657 101.154 127.711 101.094 127.743C100.221 128.21 99.3069 128.656 98.4132 129.082H98.2913ZM26.3013 126.851C26.2581 126.847 26.2165 126.833 26.1794 126.811C25.306 126.304 24.4528 125.757 23.6403 125.209C23.5864 125.172 23.5497 125.114 23.5383 125.05C23.5269 124.985 23.5416 124.918 23.5793 124.865C23.6171 124.811 23.6746 124.774 23.7394 124.763C23.8041 124.751 23.8708 124.766 23.9247 124.804C24.7372 125.351 25.5904 125.878 26.4435 126.385C26.4729 126.401 26.4987 126.423 26.519 126.45C26.5394 126.476 26.5538 126.507 26.5615 126.539C26.5692 126.572 26.5699 126.606 26.5635 126.639C26.5572 126.671 26.544 126.702 26.5248 126.73C26.4998 126.766 26.4665 126.796 26.4277 126.817C26.3888 126.839 26.3455 126.85 26.3013 126.851ZM103.593 126.324C103.549 126.323 103.506 126.311 103.467 126.29C103.428 126.269 103.395 126.239 103.37 126.203C103.34 126.143 103.334 126.074 103.353 126.011C103.372 125.947 103.414 125.892 103.471 125.858C104.324 125.372 105.177 124.844 106.01 124.317C106.067 124.282 106.135 124.271 106.2 124.286C106.232 124.294 106.262 124.308 106.289 124.327C106.316 124.346 106.338 124.37 106.356 124.398C106.373 124.426 106.385 124.457 106.39 124.49C106.395 124.522 106.394 124.556 106.387 124.588C106.379 124.62 106.365 124.65 106.346 124.676C106.327 124.703 106.302 124.726 106.274 124.743C105.442 125.27 104.568 125.797 103.715 126.284C103.678 126.306 103.636 126.32 103.593 126.324ZM21.3449 123.506C21.3182 123.507 21.2917 123.502 21.2671 123.492C21.2426 123.481 21.2206 123.465 21.2027 123.446C20.4105 122.837 19.6183 122.209 18.8667 121.56C18.8182 121.517 18.7888 121.457 18.785 121.392C18.7812 121.327 18.8033 121.264 18.8464 121.216C18.8895 121.167 18.9501 121.138 19.0148 121.134C19.0796 121.13 19.1432 121.152 19.1917 121.195C19.9433 121.824 20.7152 122.452 21.5074 123.06C21.5568 123.102 21.5885 123.161 21.5961 123.225C21.6036 123.289 21.5865 123.353 21.548 123.405C21.5247 123.437 21.4941 123.463 21.4588 123.48C21.4234 123.498 21.3844 123.507 21.3449 123.506ZM108.631 123.141C108.591 123.142 108.552 123.133 108.517 123.115C108.482 123.098 108.451 123.072 108.428 123.04C108.391 122.986 108.378 122.92 108.389 122.856C108.4 122.791 108.436 122.734 108.489 122.695C109.301 122.128 110.114 121.54 110.885 120.952C110.937 120.912 111.002 120.893 111.067 120.901C111.099 120.905 111.13 120.915 111.158 120.93C111.186 120.946 111.211 120.967 111.231 120.993C111.251 121.018 111.266 121.047 111.274 121.078C111.283 121.109 111.286 121.141 111.282 121.173C111.278 121.205 111.268 121.236 111.252 121.264C111.237 121.292 111.215 121.317 111.19 121.337C110.398 121.945 109.585 122.533 108.773 123.101C108.73 123.126 108.681 123.14 108.631 123.141ZM16.8151 119.634C16.7494 119.633 16.6857 119.612 16.6322 119.573C15.9213 118.884 15.2103 118.154 14.54 117.424C14.4969 117.376 14.4748 117.313 14.4786 117.248C14.4824 117.183 14.5118 117.123 14.5603 117.08C14.6088 117.037 14.6724 117.015 14.7372 117.019C14.8019 117.022 14.8625 117.052 14.9056 117.1C15.5759 117.83 16.2666 118.539 16.9776 119.229C17.0016 119.251 17.0208 119.277 17.0339 119.307C17.047 119.337 17.0538 119.369 17.0538 119.401C17.0538 119.433 17.047 119.466 17.0339 119.495C17.0208 119.525 17.0016 119.552 16.9776 119.573C16.9572 119.614 16.876 119.634 16.8151 119.634ZM113.384 119.513C113.35 119.512 113.316 119.504 113.284 119.49C113.253 119.476 113.225 119.456 113.201 119.431C113.18 119.407 113.164 119.378 113.154 119.347C113.145 119.315 113.142 119.283 113.145 119.25C113.149 119.218 113.16 119.187 113.176 119.158C113.193 119.13 113.215 119.106 113.242 119.087C113.993 118.458 114.765 117.789 115.476 117.141C115.525 117.098 115.588 117.076 115.653 117.079C115.718 117.083 115.778 117.112 115.822 117.161C115.865 117.209 115.887 117.273 115.883 117.337C115.879 117.402 115.85 117.462 115.801 117.505C115.07 118.175 114.298 118.844 113.546 119.472C113.5 119.506 113.441 119.521 113.384 119.513ZM117.792 115.498C117.757 115.498 117.723 115.491 117.692 115.477C117.66 115.463 117.632 115.443 117.609 115.417C117.585 115.396 117.566 115.369 117.553 115.339C117.54 115.31 117.533 115.277 117.533 115.245C117.533 115.213 117.54 115.181 117.553 115.151C117.566 115.121 117.585 115.095 117.609 115.073C118.3 114.383 119.011 113.654 119.661 112.924C119.682 112.9 119.708 112.88 119.737 112.866C119.766 112.852 119.797 112.844 119.829 112.842C119.861 112.84 119.893 112.845 119.924 112.855C119.954 112.866 119.982 112.882 120.006 112.903C120.03 112.925 120.05 112.951 120.064 112.979C120.078 113.008 120.086 113.04 120.088 113.072C120.09 113.104 120.085 113.136 120.075 113.166C120.064 113.196 120.048 113.224 120.026 113.248C119.356 113.978 118.665 114.708 117.954 115.417C117.934 115.478 117.873 115.498 117.792 115.498ZM12.8133 115.235C12.7743 115.233 12.7361 115.223 12.7011 115.205C12.6662 115.188 12.6352 115.164 12.6102 115.134C11.9805 114.363 11.3914 113.552 10.8023 112.741C10.7837 112.715 10.7704 112.685 10.7634 112.653C10.7563 112.621 10.7556 112.588 10.7613 112.556C10.767 112.524 10.7789 112.494 10.7964 112.466C10.8139 112.439 10.8366 112.415 10.8633 112.397C10.89 112.378 10.92 112.365 10.9518 112.358C10.9836 112.351 11.0165 112.35 11.0486 112.356C11.0806 112.361 11.1113 112.373 11.1387 112.391C11.1662 112.408 11.1899 112.431 11.2086 112.457C11.7774 113.268 12.3665 114.059 12.9962 114.829C13.0346 114.881 13.0518 114.946 13.0442 115.01C13.0367 115.074 13.005 115.133 12.9555 115.174C12.9377 115.194 12.9157 115.21 12.8911 115.22C12.8666 115.231 12.84 115.236 12.8133 115.235ZM121.834 111.099C121.774 111.101 121.716 111.079 121.672 111.038C121.622 110.997 121.591 110.938 121.583 110.874C121.576 110.81 121.593 110.746 121.631 110.694C122.261 109.944 122.891 109.153 123.48 108.362C123.52 108.311 123.579 108.278 123.644 108.271C123.709 108.263 123.774 108.281 123.825 108.322C123.876 108.362 123.909 108.421 123.917 108.486C123.924 108.55 123.906 108.615 123.866 108.666C123.256 109.457 122.647 110.248 121.997 111.018C121.978 111.043 121.953 111.064 121.925 111.078C121.897 111.092 121.866 111.099 121.834 111.099ZM9.38042 110.349C9.33854 110.35 9.29729 110.339 9.26137 110.317C9.22545 110.296 9.19632 110.265 9.17729 110.227C8.66946 109.376 8.16162 108.504 7.69442 107.632C7.67841 107.603 7.66835 107.571 7.66479 107.538C7.66123 107.505 7.66425 107.471 7.67368 107.439C7.68312 107.407 7.69877 107.377 7.71976 107.351C7.74074 107.325 7.76664 107.304 7.79599 107.288C7.82533 107.272 7.85754 107.262 7.89078 107.258C7.92401 107.255 7.95762 107.258 7.98968 107.267C8.02175 107.276 8.05164 107.292 8.07766 107.313C8.10368 107.334 8.12531 107.36 8.14131 107.389C8.60852 108.261 9.09603 109.133 9.62417 109.964C9.64278 109.991 9.65549 110.023 9.66148 110.055C9.66747 110.088 9.66662 110.122 9.65899 110.154C9.65136 110.186 9.63712 110.217 9.61714 110.243C9.59717 110.27 9.5719 110.292 9.54292 110.308C9.49437 110.339 9.43751 110.353 9.38042 110.349ZM125.43 106.315C125.38 106.311 125.332 106.297 125.288 106.274C125.26 106.256 125.236 106.233 125.218 106.206C125.199 106.178 125.187 106.148 125.181 106.115C125.175 106.083 125.176 106.05 125.184 106.018C125.192 105.986 125.206 105.956 125.227 105.929C125.775 105.119 126.323 104.267 126.831 103.436C126.849 103.408 126.871 103.384 126.898 103.364C126.925 103.345 126.955 103.331 126.987 103.324C127.019 103.316 127.052 103.315 127.085 103.321C127.117 103.326 127.149 103.337 127.177 103.355C127.205 103.372 127.229 103.395 127.248 103.421C127.267 103.448 127.281 103.478 127.289 103.51C127.296 103.542 127.298 103.575 127.292 103.608C127.287 103.64 127.275 103.671 127.258 103.699C126.73 104.551 126.202 105.402 125.633 106.213C125.609 106.245 125.579 106.271 125.543 106.288C125.508 106.306 125.469 106.315 125.43 106.315ZM6.5772 105.098C6.53037 105.098 6.48459 105.084 6.44508 105.059C6.40557 105.034 6.37393 104.999 6.35375 104.956C5.94749 104.064 5.54122 103.132 5.17558 102.199C5.16358 102.169 5.15774 102.136 5.15839 102.103C5.15904 102.07 5.16617 102.038 5.17937 102.008C5.19257 101.977 5.21159 101.95 5.23534 101.927C5.25909 101.905 5.2871 101.887 5.31778 101.875C5.34846 101.863 5.3812 101.857 5.41413 101.858C5.44707 101.858 5.47955 101.865 5.50973 101.879C5.53991 101.892 5.5672 101.911 5.59003 101.934C5.61285 101.958 5.63078 101.986 5.64279 102.017C6.00843 102.949 6.39438 103.862 6.80064 104.754C6.81421 104.783 6.82182 104.815 6.82303 104.847C6.82423 104.879 6.81902 104.911 6.80768 104.941C6.79634 104.971 6.7791 104.999 6.75697 105.023C6.73484 105.046 6.70825 105.065 6.67876 105.078C6.64832 105.096 6.61239 105.104 6.5772 105.098ZM128.538 101.246C128.516 101.249 128.493 101.247 128.472 101.24C128.451 101.233 128.432 101.221 128.416 101.206C128.358 101.173 128.314 101.118 128.296 101.054C128.277 100.99 128.283 100.921 128.314 100.861C128.781 99.9894 129.249 99.1176 129.675 98.2256C129.687 98.1946 129.706 98.1664 129.729 98.1427C129.753 98.119 129.781 98.1004 129.812 98.0878C129.843 98.0753 129.876 98.0692 129.909 98.0699C129.942 98.0706 129.975 98.0781 130.006 98.0919C130.036 98.1056 130.063 98.1254 130.086 98.1501C130.108 98.1747 130.125 98.2037 130.136 98.2352C130.147 98.2666 130.152 98.3 130.149 98.3332C130.147 98.3664 130.137 98.3988 130.122 98.4284C129.695 99.3204 129.228 100.212 128.741 101.084C128.731 101.131 128.706 101.172 128.669 101.202C128.632 101.232 128.585 101.247 128.538 101.246ZM4.40369 99.5637C4.35155 99.5637 4.30058 99.5483 4.2572 99.5194C4.21383 99.4905 4.17998 99.4495 4.15992 99.4015C3.85523 98.4689 3.55053 97.4958 3.28646 96.5429C3.27574 96.5101 3.2719 96.4755 3.27517 96.4411C3.27845 96.4068 3.28878 96.3735 3.30551 96.3433C3.32224 96.3131 3.34502 96.2867 3.37243 96.2657C3.39984 96.2446 3.43129 96.2295 3.46483 96.2211C3.49837 96.2127 3.53327 96.2113 3.56737 96.217C3.60147 96.2227 3.63403 96.2353 3.66303 96.2541C3.69203 96.2729 3.71685 96.2974 3.73593 96.3262C3.75502 96.3549 3.76797 96.3873 3.77398 96.4213C4.03805 97.3741 4.32243 98.327 4.62713 99.2596C4.64628 99.3241 4.64016 99.3935 4.60999 99.4537C4.57982 99.514 4.52786 99.5605 4.46462 99.5839C4.4566 99.5763 4.44697 99.5705 4.43643 99.567C4.4259 99.5635 4.41471 99.5623 4.40369 99.5637ZM131.158 95.8739C131.123 95.8771 131.088 95.87 131.056 95.8536C131.027 95.8405 131 95.8217 130.978 95.7982C130.956 95.7747 130.939 95.7471 130.928 95.7169C130.916 95.6867 130.911 95.6546 130.912 95.6224C130.913 95.5902 130.921 95.5585 130.935 95.5293C131.321 94.617 131.686 93.7047 132.032 92.7721C132.056 92.7103 132.104 92.6606 132.165 92.634C132.226 92.6074 132.295 92.606 132.357 92.6302C132.418 92.6544 132.468 92.7022 132.495 92.763C132.522 92.8238 132.523 92.8927 132.499 92.9546C132.153 93.8871 131.788 94.8197 131.381 95.732C131.359 95.7725 131.327 95.8066 131.288 95.8314C131.249 95.8562 131.204 95.8708 131.158 95.8739ZM2.81926 93.8263C2.76096 93.8276 2.70418 93.8077 2.65938 93.7705C2.61459 93.7332 2.58479 93.681 2.5755 93.6236C2.35205 92.6707 2.16923 91.6774 1.98641 90.684C1.9808 90.6218 1.99891 90.5599 2.03713 90.5105C2.07534 90.4612 2.13084 90.428 2.19249 90.4178C2.25415 90.4075 2.3174 90.4209 2.36959 90.4552C2.42179 90.4895 2.45905 90.5423 2.47393 90.6029C2.63644 91.576 2.83957 92.5694 3.0427 93.5222C3.05335 93.5863 3.04081 93.6521 3.00732 93.7078C2.97382 93.7635 2.92156 93.8055 2.85988 93.8263H2.81926ZM133.23 90.2988C133.202 90.2996 133.173 90.2926 133.149 90.2785C133.088 90.258 133.037 90.2151 133.007 90.1586C132.977 90.1021 132.969 90.0362 132.986 89.9744C133.291 89.0418 133.555 88.089 133.819 87.1159C133.825 87.0819 133.838 87.0495 133.857 87.0208C133.876 86.992 133.901 86.9674 133.93 86.9487C133.959 86.9299 133.992 86.9173 134.026 86.9116C134.06 86.9059 134.095 86.9073 134.128 86.9157C134.162 86.924 134.193 86.9392 134.221 86.9602C134.248 86.9812 134.271 87.0077 134.288 87.0379C134.304 87.0681 134.315 87.1014 134.318 87.1357C134.321 87.1701 134.317 87.2047 134.307 87.2375C134.042 88.1904 133.758 89.1635 133.474 90.1163C133.455 90.1667 133.422 90.2106 133.378 90.2429C133.335 90.2752 133.284 90.2946 133.23 90.2988ZM134.753 84.5412H134.693C134.659 84.5356 134.628 84.5229 134.6 84.5039C134.572 84.4849 134.548 84.4601 134.531 84.4312C134.513 84.4023 134.503 84.37 134.499 84.3364C134.495 84.3029 134.499 84.269 134.51 84.2371C134.713 83.2842 134.916 82.2908 135.078 81.3177C135.089 81.2533 135.125 81.1958 135.179 81.1578C135.232 81.1198 135.298 81.1044 135.363 81.115C135.395 81.1191 135.427 81.1298 135.455 81.1466C135.483 81.1634 135.508 81.1858 135.527 81.2125C135.546 81.2391 135.559 81.2695 135.566 81.3015C135.573 81.3336 135.573 81.3667 135.566 81.3988C135.403 82.3719 135.2 83.3653 134.997 84.3384C134.988 84.3959 134.958 84.4481 134.913 84.4853C134.869 84.5226 134.812 84.5424 134.753 84.5412ZM1.25514 82.0273C1.19082 82.0262 1.12942 82.0003 1.08393 81.9549C1.03844 81.9095 1.01243 81.8482 1.01138 81.784C0.95044 80.8109 0.930126 79.7972 0.909813 78.8038C0.908678 78.7716 0.914209 78.7394 0.926058 78.7094C0.937906 78.6794 0.95582 78.6521 0.978685 78.6293C1.00155 78.6065 1.02888 78.5886 1.05896 78.5768C1.08905 78.5649 1.12126 78.5594 1.15357 78.5606C1.18589 78.5594 1.21809 78.5649 1.24818 78.5768C1.27827 78.5886 1.30559 78.6065 1.32846 78.6293C1.35133 78.6521 1.36924 78.6794 1.38109 78.7094C1.39294 78.7394 1.39847 78.7716 1.39733 78.8038C1.41764 79.7972 1.43796 80.7906 1.4989 81.784C1.49462 81.8471 1.46756 81.9065 1.42274 81.9513C1.37793 81.996 1.31838 82.023 1.25514 82.0273ZM135.769 78.6619H135.729C135.695 78.6584 135.662 78.6482 135.633 78.632C135.603 78.6157 135.577 78.5937 135.557 78.5672C135.536 78.5407 135.52 78.5103 135.512 78.4779C135.503 78.4454 135.501 78.4115 135.505 78.3781C135.627 77.405 135.729 76.4116 135.81 75.4182C135.815 75.3537 135.846 75.2939 135.896 75.2521C135.945 75.2103 136.009 75.1898 136.074 75.1952C136.138 75.2006 136.198 75.2314 136.24 75.2808C136.282 75.3302 136.303 75.3942 136.297 75.4587C136.216 76.4521 136.114 77.4455 135.993 78.4389C135.992 78.4979 135.968 78.5543 135.927 78.596C135.885 78.6377 135.828 78.6614 135.769 78.6619ZM1.15357 76.0669C1.08925 76.0659 1.02786 76.0399 0.982367 75.9945C0.936879 75.9491 0.910859 75.8879 0.909813 75.8237C0.930126 74.8911 0.950441 73.9382 0.991068 72.9854V72.8435C0.992402 72.8102 1.00029 72.7775 1.01428 72.7473C1.02828 72.717 1.0481 72.6899 1.07262 72.6673C1.09714 72.6447 1.12588 72.6271 1.1572 72.6156C1.18851 72.6041 1.2218 72.5989 1.25514 72.6002C1.28848 72.6015 1.32124 72.6094 1.35154 72.6234C1.38183 72.6373 1.40907 72.6571 1.43171 72.6816C1.45434 72.7061 1.47193 72.7348 1.48346 72.766C1.49498 72.7973 1.50023 72.8305 1.4989 72.8638V73.0057C1.45827 73.9382 1.41764 74.8911 1.41764 75.8237C1.40878 75.8885 1.37758 75.9482 1.3294 75.9926C1.28121 76.037 1.21905 76.0633 1.15357 76.0669ZM1.47858 70.1066H1.45827C1.39374 70.1009 1.33407 70.07 1.29223 70.0207C1.25039 69.9713 1.22976 69.9075 1.23483 69.843C1.33639 68.8497 1.45827 67.8563 1.62078 66.8831C1.63565 66.8226 1.67292 66.7698 1.72511 66.7355C1.7773 66.7012 1.84056 66.6878 1.90221 66.6981C1.96387 66.7083 2.01936 66.7414 2.05758 66.7908C2.09579 66.8402 2.11391 66.9021 2.10829 66.9642C1.94579 67.9374 1.82391 68.9307 1.72234 69.9039C1.70951 69.9596 1.67873 70.0096 1.6347 70.0462C1.59068 70.0829 1.53584 70.1041 1.47858 70.1066ZM136.236 66.6399C136.204 66.641 136.172 66.6355 136.142 66.6237C136.112 66.6118 136.084 66.594 136.061 66.5711C136.039 66.5483 136.021 66.521 136.009 66.491C135.997 66.461 135.991 66.4288 135.993 66.3966C135.952 65.4032 135.871 64.4098 135.789 63.4367C135.787 63.4047 135.79 63.3726 135.8 63.3421C135.81 63.3115 135.826 63.2832 135.846 63.2587C135.867 63.2343 135.893 63.2141 135.921 63.1994C135.95 63.1847 135.981 63.1758 136.013 63.1731C136.045 63.1705 136.077 63.1741 136.108 63.1839C136.138 63.1937 136.167 63.2094 136.191 63.2301C136.216 63.2508 136.236 63.2761 136.251 63.3046C136.265 63.3331 136.274 63.3642 136.277 63.3961C136.379 64.3895 136.439 65.3829 136.5 66.3763C136.502 66.4112 136.495 66.446 136.483 66.4785C136.47 66.511 136.45 66.5405 136.426 66.5652C136.401 66.5899 136.371 66.6093 136.339 66.6221C136.306 66.6349 136.271 66.641 136.236 66.6399ZM2.41299 64.2273H2.35205C2.31874 64.2218 2.28704 64.2091 2.25913 64.1901C2.23122 64.1711 2.20776 64.1463 2.19039 64.1174C2.17301 64.0885 2.16212 64.0561 2.15847 64.0226C2.15481 63.9891 2.15849 63.9552 2.16923 63.9232C2.37237 62.9501 2.61612 61.977 2.85988 61.0242C2.86589 60.9902 2.87884 60.9578 2.89792 60.9291C2.91701 60.9003 2.94182 60.8757 2.97082 60.857C2.99982 60.8382 3.03239 60.8256 3.06648 60.8199C3.10058 60.8142 3.13549 60.8156 3.16902 60.824C3.20256 60.8323 3.23401 60.8475 3.26142 60.8685C3.28883 60.8895 3.31161 60.916 3.32835 60.9462C3.34508 60.9764 3.3554 61.0097 3.35868 61.044C3.36196 61.0784 3.35812 61.113 3.3474 61.1458C3.10364 62.0987 2.85988 63.0718 2.65675 64.0246C2.64192 64.0793 2.61056 64.1281 2.56694 64.1644C2.52333 64.2007 2.46957 64.2227 2.41299 64.2273ZM135.668 60.7201C135.606 60.7208 135.547 60.6981 135.501 60.6567C135.456 60.6153 135.428 60.5582 135.424 60.4971C135.282 59.524 135.119 58.5306 134.936 57.5777C134.928 57.5447 134.927 57.5103 134.933 57.4767C134.939 57.4432 134.951 57.4112 134.97 57.3828C134.989 57.3543 135.013 57.3301 135.042 57.3115C135.07 57.2929 135.103 57.2805 135.136 57.2749C135.17 57.2693 135.204 57.2707 135.237 57.279C135.271 57.2873 135.302 57.3023 135.329 57.3231C135.355 57.3439 135.378 57.3701 135.394 57.4C135.411 57.4298 135.421 57.4627 135.424 57.4966C135.607 58.4697 135.769 59.4631 135.911 60.4565C135.92 60.5208 135.904 60.5861 135.866 60.6389C135.829 60.6917 135.772 60.728 135.708 60.7403C135.688 60.7201 135.688 60.7201 135.668 60.7201ZM3.93648 58.4697C3.90804 58.4706 3.87992 58.4636 3.85523 58.4495C3.79442 58.429 3.74374 58.3861 3.71354 58.3296C3.68334 58.2731 3.6759 58.2072 3.69272 58.1454C3.99742 57.2128 4.32243 56.26 4.66775 55.3274C4.692 55.2656 4.73986 55.2159 4.80081 55.1893C4.86176 55.1626 4.93081 55.1613 4.99277 55.1855C5.05472 55.2097 5.10451 55.2574 5.13117 55.3183C5.15784 55.3791 5.1592 55.448 5.13496 55.5098C4.78963 56.4424 4.46462 57.375 4.18024 58.3076C4.16019 58.3556 4.12634 58.3966 4.08296 58.4255C4.03958 58.4543 3.98862 58.4697 3.93648 58.4697ZM134.55 54.8611C134.495 54.8629 134.441 54.8457 134.396 54.8126C134.352 54.7794 134.32 54.7322 134.307 54.6786C134.083 53.7258 133.819 52.7527 133.535 51.8201C133.516 51.7583 133.522 51.6915 133.553 51.6345C133.583 51.5774 133.635 51.5348 133.697 51.516C133.759 51.4972 133.826 51.5037 133.883 51.5341C133.94 51.5645 133.983 51.6164 134.002 51.6782C134.286 52.631 134.55 53.6042 134.774 54.5773C134.784 54.6092 134.786 54.6429 134.782 54.6761C134.778 54.7092 134.767 54.7411 134.75 54.7698C134.733 54.7984 134.71 54.8232 134.682 54.8424C134.655 54.8616 134.624 54.8749 134.591 54.8814C134.591 54.8611 134.571 54.8611 134.55 54.8611ZM5.98811 52.8946C5.95301 52.8977 5.91774 52.8907 5.88655 52.8743C5.82819 52.8458 5.78186 52.7976 5.75582 52.7382C5.72978 52.6788 5.72571 52.6121 5.74435 52.5499C6.13031 51.6377 6.53657 50.7254 6.96315 49.8333C6.97533 49.8023 6.99371 49.7741 7.01717 49.7504C7.04064 49.7267 7.06868 49.7081 7.09961 49.6956C7.13054 49.683 7.16369 49.6769 7.19706 49.6776C7.23043 49.6783 7.2633 49.6858 7.29369 49.6996C7.32407 49.7133 7.35132 49.7332 7.37378 49.7578C7.39624 49.7824 7.41343 49.8114 7.42432 49.8429C7.43521 49.8743 7.43955 49.9077 7.4371 49.9409C7.43464 49.9741 7.42543 50.0065 7.41004 50.0361C6.98346 50.9281 6.5772 51.8404 6.19124 52.7324C6.18563 52.7807 6.16114 52.8248 6.1231 52.8552C6.08507 52.8856 6.03655 52.8997 5.98811 52.8946ZM132.864 49.144C132.812 49.144 132.761 49.1286 132.718 49.0998C132.674 49.0709 132.641 49.0299 132.621 48.9819C132.296 48.0493 131.95 47.1167 131.585 46.2044C131.561 46.1425 131.563 46.0739 131.59 46.0133C131.616 45.9527 131.665 45.9049 131.727 45.88C131.789 45.8614 131.856 45.8655 131.915 45.8915C131.975 45.9175 132.023 45.9637 132.052 46.022C132.417 46.9343 132.763 47.8871 133.088 48.8197C133.107 48.8842 133.101 48.9536 133.071 49.0138C133.04 49.0741 132.989 49.1206 132.925 49.144H132.864ZM130.65 43.6094C130.603 43.6091 130.558 43.5956 130.518 43.5705C130.479 43.5454 130.447 43.5097 130.427 43.4675C130.02 42.5755 129.574 41.6835 129.127 40.7915C129.111 40.7622 129.101 40.73 129.097 40.6969C129.094 40.6637 129.097 40.6301 129.106 40.5981C129.115 40.5661 129.131 40.5363 129.152 40.5103C129.173 40.4844 129.199 40.4628 129.228 40.4468C129.258 40.4308 129.29 40.4208 129.323 40.4172C129.356 40.4137 129.39 40.4167 129.422 40.4261C129.454 40.4355 129.484 40.4511 129.51 40.4721C129.536 40.493 129.558 40.5189 129.574 40.5482C130.02 41.4199 130.467 42.3322 130.874 43.2445C130.887 43.2738 130.895 43.3054 130.896 43.3376C130.897 43.3698 130.892 43.402 130.881 43.4321C130.869 43.4623 130.852 43.49 130.83 43.5134C130.808 43.5369 130.781 43.5558 130.752 43.5689C130.731 43.6094 130.691 43.6094 130.65 43.6094ZM11.5539 42.393C11.5043 42.3891 11.456 42.3753 11.4117 42.3525C11.357 42.316 11.3181 42.2601 11.3031 42.1962C11.288 42.1322 11.2978 42.0649 11.3305 42.0079C11.8586 41.1766 12.4274 40.3454 12.9962 39.5345C13.0339 39.4807 13.0914 39.4441 13.1562 39.4327C13.221 39.4213 13.2876 39.4361 13.3415 39.4737C13.3954 39.5113 13.4321 39.5688 13.4435 39.6334C13.4549 39.6981 13.4401 39.7646 13.4024 39.8183C12.8337 40.6293 12.2852 41.4605 11.7571 42.2917C11.7336 42.3234 11.703 42.3491 11.6677 42.3667C11.6324 42.3843 11.5934 42.3934 11.5539 42.393ZM127.928 38.3181C127.884 38.3169 127.841 38.3052 127.802 38.2841C127.763 38.2629 127.73 38.2329 127.705 38.1965C127.217 37.345 126.689 36.4935 126.161 35.6623C126.126 35.6059 126.115 35.5378 126.13 35.4732C126.145 35.4086 126.186 35.3526 126.242 35.3177C126.299 35.2827 126.367 35.2716 126.432 35.2868C126.496 35.302 126.553 35.3423 126.588 35.3988C127.116 36.23 127.644 37.1017 128.131 37.9532C128.161 38.0129 128.167 38.0814 128.148 38.1453C128.129 38.2091 128.087 38.2635 128.03 38.2978C127.999 38.3162 127.963 38.3234 127.928 38.3181ZM14.9665 37.5072C14.9165 37.506 14.8675 37.492 14.8244 37.4666C14.7749 37.4251 14.7432 37.3664 14.7357 37.3023C14.7281 37.2383 14.7453 37.1738 14.7837 37.122C15.3728 36.3313 16.0025 35.5407 16.6322 34.7703C16.6726 34.7192 16.7317 34.6862 16.7965 34.6786C16.8612 34.671 16.9264 34.6894 16.9776 34.7297C17.0287 34.7701 17.0618 34.829 17.0694 34.8937C17.077 34.9583 17.0586 35.0233 17.0182 35.0744C16.3885 35.8448 15.7791 36.6152 15.1697 37.4058C15.1447 37.4358 15.1137 37.4603 15.0788 37.4778C15.0438 37.4952 15.0056 37.5052 14.9665 37.5072ZM124.719 33.3106C124.679 33.3109 124.64 33.3019 124.605 33.2843C124.57 33.2667 124.539 33.241 124.516 33.2093C123.947 32.3983 123.358 31.6077 122.748 30.8373C122.728 30.812 122.714 30.783 122.705 30.752C122.696 30.721 122.693 30.6886 122.697 30.6566C122.705 30.5919 122.738 30.533 122.789 30.4926C122.84 30.4523 122.905 30.4339 122.97 30.4415C123.035 30.4491 123.094 30.4821 123.134 30.5332C123.744 31.3238 124.353 32.1145 124.922 32.9254C124.942 32.9515 124.956 32.9815 124.964 33.0135C124.972 33.0455 124.973 33.0787 124.967 33.1111C124.962 33.1436 124.949 33.1744 124.931 33.2018C124.913 33.2292 124.889 33.2524 124.861 33.2701C124.818 33.2954 124.769 33.3094 124.719 33.3106ZM18.7448 32.8849C18.6848 32.8864 18.6265 32.8646 18.5823 32.8241C18.5569 32.8037 18.5361 32.7782 18.5212 32.7493C18.5063 32.7204 18.4976 32.6887 18.4957 32.6562C18.4938 32.6238 18.4987 32.5913 18.5101 32.5608C18.5215 32.5304 18.5392 32.5026 18.562 32.4794C19.212 31.7293 19.9027 30.9995 20.5933 30.2696C20.6391 30.2239 20.7012 30.1982 20.766 30.1982C20.8307 30.1982 20.8928 30.2239 20.9386 30.2696C20.9844 30.3153 21.0101 30.3773 21.0101 30.4419C21.0101 30.5066 20.9844 30.5686 20.9386 30.6143C20.2683 31.3238 19.5776 32.0739 18.9276 32.8038C18.9057 32.8307 18.8777 32.852 18.8459 32.8661C18.8142 32.8802 18.7795 32.8866 18.7448 32.8849ZM121.042 28.6072C121.007 28.609 120.973 28.6025 120.941 28.5885C120.909 28.5744 120.881 28.553 120.859 28.5261C120.209 27.776 119.539 27.0462 118.869 26.3163C118.823 26.2706 118.797 26.2087 118.797 26.144C118.797 26.0794 118.823 26.0174 118.869 25.9717C118.914 25.926 118.976 25.9003 119.041 25.9003C119.106 25.9003 119.168 25.926 119.214 25.9717C119.905 26.7015 120.575 27.4516 121.225 28.2018C121.266 28.2509 121.287 28.314 121.283 28.3781C121.28 28.4422 121.251 28.5024 121.205 28.5464C121.16 28.5869 121.102 28.6087 121.042 28.6072ZM22.8481 28.5667C22.8136 28.5666 22.7796 28.5593 22.7481 28.5454C22.7166 28.5314 22.6884 28.511 22.6652 28.4856C22.6412 28.4637 22.622 28.4371 22.6089 28.4074C22.5958 28.3778 22.589 28.3457 22.589 28.3133C22.589 28.2808 22.5958 28.2487 22.6089 28.2191C22.622 28.1894 22.6412 28.1628 22.6652 28.1409C23.3762 27.4516 24.1075 26.7624 24.8388 26.0933C24.862 26.0706 24.8898 26.0529 24.9203 26.0416C24.9508 26.0302 24.9834 26.0253 25.0159 26.0272C25.0484 26.0291 25.0802 26.0378 25.1092 26.0526C25.1381 26.0675 25.1636 26.0883 25.1841 26.1136C25.2254 26.1628 25.2464 26.2259 25.2426 26.29C25.2388 26.354 25.2106 26.4143 25.1638 26.4583C24.4325 27.1273 23.7012 27.8166 22.9903 28.5059C22.9903 28.5464 22.909 28.5667 22.8481 28.5667ZM27.2763 24.5728C27.2416 24.5746 27.207 24.5682 27.1752 24.5541C27.1435 24.54 27.1155 24.5186 27.0935 24.4917C27.0522 24.4426 27.0313 24.3795 27.035 24.3154C27.0388 24.2513 27.067 24.1911 27.1138 24.1471C27.8857 23.4984 28.6576 22.8699 29.4295 22.2617C29.4807 22.2214 29.5459 22.203 29.6106 22.2106C29.6427 22.2143 29.6737 22.2244 29.7019 22.2401C29.7301 22.2558 29.7549 22.2769 29.7749 22.3022C29.7949 22.3275 29.8097 22.3565 29.8185 22.3875C29.8273 22.4185 29.8298 22.4509 29.8261 22.483C29.8223 22.515 29.8122 22.5459 29.7965 22.574C29.7807 22.6022 29.7596 22.6269 29.7342 22.6469C28.9623 23.2551 28.1904 23.8835 27.4185 24.5323C27.3767 24.5606 27.3269 24.5748 27.2763 24.5728ZM116.939 24.289C116.873 24.2875 116.809 24.2663 116.756 24.2282C116.045 23.5389 115.314 22.8699 114.562 22.2211C114.538 22.1998 114.519 22.174 114.505 22.1452C114.491 22.1163 114.482 22.085 114.48 22.053C114.479 22.021 114.483 21.989 114.494 21.9587C114.504 21.9284 114.52 21.9005 114.542 21.8765C114.563 21.8525 114.589 21.833 114.618 21.819C114.647 21.805 114.678 21.7969 114.71 21.795C114.742 21.7931 114.774 21.7975 114.805 21.808C114.835 21.8186 114.863 21.8349 114.887 21.8562C115.639 22.505 116.39 23.1943 117.101 23.8835C117.125 23.9054 117.145 23.932 117.158 23.9617C117.171 23.9914 117.178 24.0234 117.178 24.0559C117.178 24.0883 117.171 24.1204 117.158 24.1501C117.145 24.1797 117.125 24.2063 117.101 24.2282C117.054 24.2639 116.998 24.285 116.939 24.289ZM31.989 20.8831C31.9495 20.8834 31.9105 20.8744 31.8752 20.8568C31.8399 20.8392 31.8093 20.8134 31.7859 20.7817C31.7661 20.7555 31.7519 20.7255 31.7442 20.6936C31.7365 20.6617 31.7355 20.6285 31.7413 20.5962C31.747 20.5639 31.7593 20.5331 31.7774 20.5057C31.7956 20.4783 31.8192 20.455 31.8468 20.4371C32.6593 19.8492 33.4719 19.2815 34.3047 18.7139C34.3586 18.6762 34.4252 18.6615 34.49 18.6729C34.5548 18.6843 34.6123 18.7209 34.65 18.7747C34.6877 18.8285 34.7025 18.895 34.6911 18.9596C34.6797 19.0242 34.643 19.0817 34.5891 19.1193C33.7766 19.6667 32.9437 20.2344 32.1515 20.8223C32.1039 20.8569 32.0477 20.8779 31.989 20.8831ZM112.45 20.356C112.39 20.3541 112.333 20.3327 112.287 20.2952C111.515 19.687 110.723 19.0788 109.91 18.4909C109.884 18.4722 109.861 18.4485 109.844 18.4211C109.826 18.3937 109.814 18.3631 109.808 18.3311C109.803 18.2991 109.803 18.2663 109.811 18.2346C109.818 18.2029 109.831 18.1728 109.849 18.1462C109.868 18.1196 109.892 18.0969 109.919 18.0794C109.947 18.062 109.977 18.0501 110.01 18.0444C110.042 18.0388 110.074 18.0395 110.106 18.0465C110.138 18.0535 110.168 18.0668 110.195 18.0854C111.007 18.6733 111.8 19.2815 112.592 19.8897C112.641 19.9312 112.673 19.99 112.68 20.054C112.688 20.118 112.671 20.1825 112.632 20.2344C112.617 20.27 112.591 20.3004 112.559 20.322C112.526 20.3435 112.489 20.3554 112.45 20.356ZM36.9454 17.538C36.9035 17.5388 36.8623 17.5278 36.8264 17.5063C36.7905 17.4848 36.7613 17.4536 36.7423 17.4164C36.7237 17.3888 36.711 17.3577 36.705 17.325C36.699 17.2923 36.6998 17.2587 36.7075 17.2263C36.7151 17.194 36.7294 17.1635 36.7493 17.1369C36.7693 17.1103 36.7946 17.0881 36.8236 17.0717C37.6767 16.5446 38.5299 16.0378 39.4033 15.531C39.4626 15.4987 39.5323 15.4913 39.597 15.5103C39.6618 15.5293 39.7163 15.5732 39.7486 15.6323C39.781 15.6915 39.7884 15.761 39.7694 15.8256C39.7503 15.8903 39.7063 15.9447 39.6471 15.977C38.7939 16.4635 37.9205 16.9704 37.0876 17.4975C37.0464 17.527 36.9961 17.5413 36.9454 17.538ZM107.615 16.8487C107.565 16.8447 107.517 16.831 107.473 16.8082C106.64 16.2608 105.787 15.7337 104.934 15.2471C104.877 15.2122 104.837 15.1562 104.822 15.0916C104.806 15.027 104.817 14.9589 104.852 14.9025C104.887 14.846 104.944 14.8058 105.008 14.7906C105.073 14.7754 105.141 14.7864 105.198 14.8214C106.051 15.3282 106.924 15.8553 107.757 16.4027C107.805 16.4298 107.842 16.4725 107.862 16.5235C107.882 16.5746 107.884 16.631 107.867 16.6832C107.851 16.7355 107.816 16.7804 107.77 16.8105C107.725 16.8407 107.67 16.8542 107.615 16.8487ZM42.1456 14.5984C42.0985 14.5995 42.052 14.5866 42.0122 14.5614C41.9725 14.5361 41.9411 14.4996 41.9222 14.4565C41.8928 14.3968 41.8869 14.3282 41.9057 14.2644C41.9245 14.2006 41.9666 14.1461 42.0237 14.1118C42.9175 13.6455 43.8113 13.1995 44.7051 12.7738C44.7637 12.7509 44.8288 12.7512 44.8872 12.7748C44.9455 12.7985 44.9925 12.8435 45.0186 12.9007C45.0446 12.9578 45.0477 13.0228 45.0271 13.0822C45.0066 13.1416 44.964 13.1908 44.9082 13.2198C44.0144 13.6455 43.1206 14.0916 42.2269 14.5376C42.2269 14.5781 42.1862 14.5984 42.1456 14.5984ZM102.455 13.828C102.414 13.8312 102.372 13.8242 102.334 13.8077C101.46 13.3414 100.566 12.8954 99.6726 12.49C99.6167 12.461 99.5742 12.4117 99.5536 12.3524C99.5331 12.293 99.5362 12.228 99.5622 12.1708C99.5883 12.1136 99.6353 12.0686 99.6936 12.045C99.7519 12.0214 99.8171 12.021 99.8757 12.044C100.769 12.4697 101.684 12.9157 102.557 13.382C102.615 13.4153 102.658 13.4697 102.677 13.5339C102.696 13.5982 102.689 13.6672 102.659 13.7266C102.638 13.7875 102.537 13.828 102.455 13.828ZM47.5489 12.044C47.5021 12.0436 47.4563 12.0301 47.4168 12.005C47.3773 11.9799 47.3456 11.9442 47.3255 11.902C47.3115 11.8717 47.3041 11.8387 47.3038 11.8052C47.3035 11.7718 47.3103 11.7387 47.3237 11.7081C47.3372 11.6774 47.3569 11.65 47.3817 11.6275C47.4065 11.605 47.4358 11.5881 47.4677 11.5777C48.3818 11.1925 49.3162 10.8073 50.2506 10.4626C50.3128 10.444 50.3796 10.4481 50.4392 10.4741C50.4987 10.5001 50.547 10.5463 50.5756 10.6046C50.599 10.6665 50.5972 10.735 50.5707 10.7956C50.5441 10.8562 50.4948 10.9041 50.4334 10.9289C49.499 11.2736 48.5849 11.6588 47.6708 12.044C47.6302 12.0237 47.5895 12.044 47.5489 12.044ZM53.1554 9.93554C53.0955 9.93656 53.0372 9.91609 52.9912 9.87786C52.9452 9.83962 52.9145 9.78616 52.9046 9.72721C52.8948 9.66826 52.9065 9.60774 52.9376 9.55668C52.9687 9.50561 53.0171 9.46739 53.0741 9.44898C54.0288 9.14488 54.9835 8.84078 55.9383 8.57723C56.0002 8.56044 56.0662 8.56787 56.1228 8.59801C56.1795 8.62815 56.2224 8.67873 56.243 8.73942C56.2524 8.77003 56.2556 8.8022 56.2525 8.83407C56.2494 8.86594 56.2401 8.89689 56.225 8.92514C56.2099 8.95339 56.1893 8.97839 56.1645 8.9987C56.1397 9.01902 56.1112 9.03425 56.0805 9.04351C55.1257 9.30707 54.171 9.61117 53.2366 9.91527C53.2128 9.93139 53.184 9.93857 53.1554 9.93554ZM91.3848 9.30707C91.3564 9.30791 91.3282 9.3009 91.3035 9.2868C90.3556 9.00297 89.4009 8.73942 88.4394 8.49614C88.3788 8.47641 88.3279 8.43448 88.2971 8.37882C88.2662 8.32315 88.2577 8.25789 88.2731 8.19617C88.2886 8.13446 88.3269 8.08089 88.3804 8.04626C88.4339 8.01164 88.4985 7.99853 88.5613 8.00958C89.516 8.25286 90.491 8.51641 91.4457 8.80024C91.5065 8.82072 91.5572 8.8636 91.5874 8.92012C91.6176 8.97663 91.6251 9.04252 91.6082 9.10434C91.6084 9.13275 91.6025 9.16088 91.5911 9.1869C91.5796 9.21292 91.5628 9.23624 91.5417 9.25536C91.5207 9.27448 91.4958 9.28896 91.4688 9.29787C91.4417 9.30678 91.4131 9.30991 91.3848 9.30707ZM58.9243 8.31368C58.8689 8.31543 58.8146 8.29831 58.7703 8.26514C58.726 8.23198 58.6944 8.18474 58.6805 8.13122C58.6656 8.06677 58.6764 7.99906 58.7105 7.94235C58.7446 7.88563 58.7994 7.84432 58.8634 7.82712C59.8384 7.60411 60.8337 7.38111 61.8088 7.19865C61.871 7.19304 61.9331 7.21112 61.9826 7.24926C62.032 7.28741 62.0652 7.34279 62.0755 7.40432C62.0858 7.46585 62.0724 7.52899 62.038 7.58107C62.0036 7.63316 61.9507 7.67036 61.89 7.68521C60.915 7.86767 59.94 8.0704 58.9649 8.2934C58.954 8.30441 58.9397 8.31154 58.9243 8.31368ZM85.5955 7.86767H85.5549C84.5799 7.66493 83.6048 7.50275 82.6298 7.36083C82.5691 7.34599 82.5163 7.30879 82.4819 7.2567C82.4475 7.20461 82.4341 7.14148 82.4443 7.07995C82.4546 7.01842 82.4878 6.96303 82.5373 6.92489C82.5867 6.88675 82.6488 6.86867 82.7111 6.87428C83.6861 7.01619 84.6814 7.19865 85.6565 7.40138C85.721 7.41231 85.7786 7.44829 85.8167 7.50147C85.8548 7.55466 85.8702 7.62071 85.8596 7.68521C85.8387 7.73832 85.8024 7.78402 85.7554 7.81651C85.7084 7.849 85.6527 7.86681 85.5955 7.86767ZM64.7948 7.19865C64.7334 7.19934 64.674 7.17667 64.6287 7.13525C64.5835 7.09383 64.5557 7.03676 64.5511 6.97564C64.5421 6.91137 64.5581 6.84611 64.5959 6.7933C64.6337 6.7405 64.6904 6.70417 64.7542 6.69182C65.7495 6.5499 66.7449 6.44854 67.7402 6.34717C67.8049 6.34179 67.869 6.36227 67.9185 6.40409C67.9681 6.44591 67.9989 6.50566 68.0043 6.57018C68.0097 6.6347 67.9892 6.69871 67.9473 6.74814C67.9054 6.79756 67.8455 6.82835 67.7809 6.83373C66.8058 6.91482 65.8105 7.03646 64.8151 7.17838C64.8151 7.19865 64.8151 7.19865 64.7948 7.19865ZM79.7047 6.95537H79.6844C78.7094 6.854 77.714 6.77291 76.7187 6.71209C76.6513 6.7094 76.5878 6.68012 76.5421 6.6307C76.4964 6.58127 76.4722 6.51575 76.4749 6.44854C76.4776 6.38133 76.5069 6.31794 76.5565 6.27231C76.606 6.22669 76.6716 6.20257 76.739 6.20526C77.7343 6.26608 78.7297 6.34717 79.725 6.44854C79.7868 6.45846 79.8428 6.49065 79.8825 6.539C79.9221 6.58735 79.9426 6.64852 79.9401 6.71094C79.9376 6.77336 79.9123 6.83271 79.8689 6.87775C79.8255 6.92278 79.7671 6.9504 79.7047 6.95537ZM70.7466 6.67154C70.7143 6.67268 70.6821 6.66716 70.652 6.65533C70.6219 6.64351 70.5946 6.62563 70.5717 6.60281C70.5488 6.57999 70.5309 6.55271 70.5191 6.52269C70.5072 6.49266 70.5017 6.46052 70.5028 6.42826C70.5026 6.36174 70.5276 6.2976 70.5729 6.24872C70.6181 6.19984 70.6801 6.16983 70.7466 6.16471C71.7419 6.12417 72.7576 6.10389 73.7529 6.12416C73.8176 6.12416 73.8796 6.1498 73.9253 6.19542C73.971 6.24104 73.9967 6.30292 73.9967 6.36744C73.9967 6.43197 73.971 6.49384 73.9253 6.53947C73.8796 6.58509 73.8176 6.61072 73.7529 6.61072C72.7576 6.61072 71.7622 6.631 70.7466 6.67154Z" fill="#DEE7FF"/>
<path d="M11.2901 46.3057C11.2901 47.7248 10.3354 48.4141 9.17751 48.4141C8.61722 48.4141 8.07988 48.192 7.6837 47.7966C7.28751 47.4012 7.06494 46.8649 7.06494 46.3057C7.06494 45.7465 7.28751 45.2102 7.6837 44.8148C8.07988 44.4194 8.61722 44.1973 9.17751 44.1973C9.73681 44.2005 10.2723 44.4236 10.6678 44.8183C11.0633 45.2131 11.2869 45.7475 11.2901 46.3057Z" fill="#EBEBEB"/>
<path d="M138.064 71.2825C138.064 72.7016 137.11 73.3909 135.952 73.3909C135.392 73.3909 134.854 73.1688 134.458 72.7734C134.062 72.378 133.839 71.8417 133.839 71.2825C133.839 70.7233 134.062 70.187 134.458 69.7916C134.854 69.3962 135.392 69.1741 135.952 69.1741C136.229 69.1738 136.504 69.2282 136.761 69.334C137.017 69.4399 137.25 69.5952 137.446 69.791C137.643 69.9869 137.798 70.2194 137.904 70.4753C138.01 70.7312 138.065 71.0055 138.064 71.2825Z" fill="#EBEBEB"/>
<path d="M80.5781 6.87429C80.5781 8.29342 79.6234 8.98271 78.4655 8.98271C77.9052 8.9854 77.3668 8.76584 76.9687 8.37234C76.5706 7.97883 76.3455 7.44362 76.3428 6.88443C76.3401 6.32524 76.5601 5.78789 76.9544 5.39058C77.3487 4.99328 77.8849 4.76856 78.4452 4.76587C79.0077 4.76479 79.5478 4.98593 79.9474 5.38099C80.3471 5.77605 80.5738 6.31292 80.5781 6.87429Z" fill="#EBEBEB"/>
<path d="M67.1002 143.583C73.5604 144.716 80.0747 145.499 86.589 146.2C94.9953 147.09 103.456 147.846 111.835 148.871C113.754 129.15 113.971 105.815 112.862 100.366C110.457 88.55 91.995 90.87 91.995 90.87C91.995 90.87 67.6678 97.938 67.6678 98.9092C67.6678 99.7724 58.883 134.789 57.6396 141.83C60.8022 142.423 63.9377 143.044 67.1002 143.583Z" fill="#009AE0"/>
<path d="M52.801 120.788C50.963 129.312 50.6386 131.363 50.6386 131.363C50.6386 131.363 28.2847 133.359 20.527 139.321C18.4997 140.67 15.4994 145.31 15.6616 146.982C15.6886 147.36 15.6886 148.223 16.5806 147.9C16.959 149.167 17.5267 149.68 17.9051 149.464C18.8241 150.867 20.554 150.3 20.6351 149.302C21.2028 150.462 22.6624 151.164 25.2843 146.308C25.4465 146.227 29.5821 145.445 30.0957 145.391C32.4203 146.119 30.42 147.306 29.0956 148.547C28.555 149.06 28.4198 150.22 29.0145 150.274C31.5823 150.516 35.745 146.632 37.3938 145.148L67.0729 143.206L69.3975 120.976C63.8564 121.084 58.3422 121.192 52.801 120.788Z" fill="#F5E2D6"/>
<path d="M91.9946 90.8701L83.3179 95.6451L71.3706 102.227L69.2622 122.46C63.721 122.11 58.1799 121.624 52.6387 121.543C53.2874 118.549 54.1253 114.718 55.2336 109.808C58.8286 93.8376 63.3426 93.2171 81.2095 91.7873C84.3721 91.5445 87.9401 91.2478 91.9946 90.8701Z" fill="#009AE0"/>
<path d="M70.4515 101.499C70.2352 104.358 70.019 107.245 69.8028 110.104C69.7757 110.32 70.1271 110.32 70.1271 110.104C70.3433 107.245 70.5596 104.358 70.7758 101.499C70.8029 101.283 70.4785 101.283 70.4515 101.499Z" fill="white"/>
<path d="M69.8836 122.487H61.7475C61.5214 122.49 61.2996 122.425 61.1114 122.3C60.9232 122.174 60.7775 121.995 60.6934 121.786L54.6926 107.515C54.6192 107.341 54.59 107.152 54.6075 106.964C54.625 106.776 54.6887 106.595 54.793 106.437C54.8973 106.28 55.0389 106.151 55.2053 106.061C55.3717 105.971 55.5577 105.924 55.7468 105.923H63.8829C64.1091 105.92 64.3309 105.985 64.519 106.111C64.7072 106.236 64.853 106.415 64.9371 106.625L70.9378 120.895C71.0112 121.069 71.0405 121.259 71.023 121.447C71.0055 121.635 70.9418 121.815 70.8375 121.973C70.7332 122.13 70.5915 122.26 70.4251 122.349C70.2588 122.439 70.0727 122.486 69.8836 122.487Z" fill="#A50034"/>
<path d="M63.4777 106.867C62.6668 106.867 61.8559 106.894 61.045 106.894C61.002 106.894 60.9607 106.911 60.9303 106.942C60.8999 106.972 60.8828 107.013 60.8828 107.056C60.8828 107.099 60.8999 107.14 60.9303 107.171C60.9607 107.201 61.002 107.218 61.045 107.218C61.8559 107.218 62.6668 107.191 63.4777 107.191C63.5207 107.191 63.562 107.174 63.5924 107.144C63.6228 107.113 63.6399 107.072 63.6399 107.029C63.6399 106.986 63.6228 106.945 63.5924 106.915C63.562 106.884 63.5207 106.867 63.4777 106.867Z" fill="white"/>
<path d="M62.7211 108.837C62.4237 108.807 62.1251 108.882 61.8779 109.05C61.6307 109.218 61.4507 109.467 61.3696 109.754V109.835C61.3593 109.846 61.3516 109.858 61.3469 109.872C61.3423 109.886 61.3407 109.901 61.3425 109.916C61.3491 110.231 61.4757 110.532 61.6966 110.758C61.9175 110.983 62.2162 111.116 62.5318 111.13C62.8283 111.13 63.1131 111.014 63.3252 110.808C63.5373 110.601 63.6601 110.32 63.6671 110.024C63.6868 109.744 63.6006 109.466 63.4254 109.247C63.2503 109.027 62.999 108.881 62.7211 108.837ZM62.5859 110.833C62.35 110.831 62.1243 110.737 61.9575 110.57C61.7907 110.404 61.696 110.178 61.6939 109.943V109.889L61.7209 109.862C61.9372 108.945 63.3698 108.945 63.3698 109.97C63.3157 110.402 63.0454 110.833 62.5859 110.833Z" fill="white"/>
<path d="M67.64 115.959C66.6129 113.315 65.5858 110.644 64.5316 108C64.4505 107.811 64.1262 107.892 64.2072 108.081L67.3157 116.039C67.3968 116.255 67.7211 116.174 67.64 115.959Z" fill="white"/>
<path d="M63.3695 112.694C63.6083 112.694 63.802 112.501 63.802 112.263C63.802 112.024 63.6083 111.831 63.3695 111.831C63.1306 111.831 62.937 112.024 62.937 112.263C62.937 112.501 63.1306 112.694 63.3695 112.694Z" fill="white"/>
<path d="M112.754 119.169C109.537 118.468 106.348 117.766 103.158 116.984C101.183 116.469 99.1796 116.073 97.1575 115.797L95.7789 123.809C95.7789 123.809 77.3984 120.275 74.7495 119.978C74.2359 117.577 73.1817 114.61 71.9383 112.695C70.749 110.887 69.1542 110.105 68.4515 109.943C67.0459 109.619 67.5595 112.425 69.0731 113.18C69.2894 113.612 68.9921 117.496 66.6404 117.065C66.0728 116.741 65.5052 116.444 64.9375 116.148C64.3158 115.743 60.7749 114.799 58.18 112.398C57.6124 112.02 56.8555 111.049 56.1527 110.995C55.2337 110.914 54.639 111.615 54.9093 112.479C54.9904 112.775 57.3421 115.069 57.5853 115.311C57.7475 116.309 57.6123 116.876 58.0178 117.766C58.0385 118.641 58.2028 119.507 58.5043 120.329C58.4232 124.106 61.2344 126.426 64.505 127.91C65.5862 128.8 66.9378 129.798 68.5596 130.904C91.1027 146.308 104.699 149.707 111.835 148.061C116.781 146.901 119.809 132.711 119.836 121.327V120.761C117.43 120.194 115.105 119.682 112.754 119.169Z" fill="#F5E2D6"/>
<path d="M96.9952 116.849L100.563 96.0764L95.8599 93.2169L91.9946 90.8699C93.6164 90.735 95.4545 90.6001 97.3736 90.4922C106.591 89.9527 117.781 90.3303 118.565 99.1518C118.971 103.765 119.782 112.613 119.755 121.3C112.132 120.059 104.537 118.548 96.9952 116.849Z" fill="#009AE0"/>
<path d="M98.8866 125.913L96.535 124.132C96.3728 123.998 96.2107 124.294 96.3728 124.429L98.7244 126.21C98.8866 126.318 99.0488 126.021 98.8866 125.913Z" fill="#CDB09D"/>
<path d="M61.8286 118.359C60.8285 117.739 59.8554 117.118 58.8553 116.498C58.8164 116.482 58.773 116.481 58.7333 116.495C58.6937 116.508 58.6606 116.537 58.6404 116.573C58.6203 116.61 58.6145 116.653 58.6242 116.694C58.634 116.735 58.6585 116.771 58.6931 116.795C59.6932 117.415 60.6663 118.036 61.6664 118.656C61.8286 118.764 62.0178 118.467 61.8286 118.359Z" fill="#CDB09D"/>
<path d="M60.9375 120.14C60.0551 119.8 59.3061 119.185 58.8021 118.387C58.694 118.198 58.3966 118.387 58.5047 118.548C59.0707 119.408 59.8934 120.069 60.8564 120.437C61.0726 120.518 61.1537 120.221 60.9375 120.14Z" fill="#CDB09D"/>
<path d="M60.6129 122.595C60.0723 122.136 59.5317 121.678 58.9911 121.246C58.8289 121.111 58.5856 121.354 58.7478 121.489C59.2884 121.947 59.829 122.406 60.3696 122.838C60.5318 122.973 60.7751 122.73 60.6129 122.595Z" fill="#CDB09D"/>
<path d="M67.8837 130.418C64.1524 128.965 60.994 126.343 58.8826 122.946C58.7745 122.757 58.4772 122.919 58.5853 123.108C60.7386 126.579 63.964 129.259 67.7756 130.742C67.9918 130.796 68.0729 130.472 67.8837 130.418Z" fill="#CDB09D"/>
<path d="M97.9415 102.983C97.482 107.056 97.0495 111.157 96.59 115.23C96.5629 115.446 96.8873 115.446 96.9143 115.23C97.3738 111.157 97.8063 107.056 98.2658 102.983C98.3199 102.767 97.9685 102.767 97.9415 102.983Z" fill="white"/>
<path d="M91.9945 90.8699C87.94 91.2475 84.345 91.5443 81.2095 91.7871C81.4402 93.279 82.1859 94.6435 83.3178 95.6448C83.453 95.7527 83.5611 95.8606 83.6962 95.9685C84.5324 96.6067 85.4954 97.0596 86.5208 97.2968C87.5463 97.5341 88.6106 97.5503 89.6429 97.3443C92.3189 96.8588 94.4002 95.2941 95.8869 93.2169C96.4909 92.3673 96.9985 91.4535 97.4005 90.4922C95.4544 90.6001 93.6433 90.735 91.9945 90.8699Z" fill="#F5E2D6"/>
<path d="M96.3464 92.0301L84.3451 96.0767L82.7773 92.9204L80.7501 88.8738L77.2632 81.8598L85.9128 78.0291C86.3453 78.8923 96.3464 92.0301 96.3464 92.0301Z" fill="#F5E2D6"/>
<path d="M82.7777 92.92L82.8588 93.0819C84.3454 91.4902 85.1563 89.413 85.3996 87.1469C85.6969 84.1255 84.7238 81.6436 83.6697 79.0269L77.2905 81.8594L80.7774 88.8735L82.7777 92.92Z" fill="#CDB09D"/>
<path d="M85.21 70.6912C81.669 67.6428 71.0462 71.9321 72.0192 76.4373C72.7491 79.8094 74.8574 89.1165 76.9117 90.4384C81.0473 93.0821 85.7506 89.656 87.048 85.5825C88.3455 81.509 88.7509 73.7126 85.21 70.6912Z" fill="#F5E2D6"/>
<path d="M86.4532 72.1479C86.6738 71.6166 86.7025 71.0253 86.5343 70.4753C86.4641 70.178 86.3329 69.8985 86.1489 69.6545C85.9649 69.4105 85.7321 69.2072 85.4654 69.0576C85.1986 68.908 84.9036 68.8153 84.599 68.7854C84.2945 68.7554 83.9871 68.7889 83.6962 68.8836C83.0204 68.1013 81.777 67.7776 80.7769 67.9934C80.3254 68.1021 79.9018 68.3043 79.5335 68.5869C79.2628 68.4531 78.9695 68.3707 78.6686 68.3441C78.354 68.3402 78.0435 68.4146 77.765 68.5606C77.4866 68.7067 77.249 68.9197 77.0738 69.1804V69.2074C76.0737 69.2343 75.1276 69.612 74.6681 70.5562C74.607 70.6946 74.5617 70.8394 74.5329 70.9878C72.6949 70.3674 70.4514 70.3134 70.1541 72.4716C70.0892 72.8745 70.1456 73.2877 70.3162 73.6586C70.046 74.1061 69.9057 74.6198 69.9108 75.1423C69.9138 75.3461 69.9701 75.5456 70.074 75.721C70.1779 75.8964 70.326 76.0417 70.5034 76.1425C70.6809 76.2434 70.8817 76.2962 71.0859 76.2958C71.2901 76.2955 71.4906 76.2419 71.6677 76.1405C71.8238 76.0318 71.9862 75.9327 72.1543 75.8437C72.383 76.1291 72.6806 76.3519 73.0192 76.4912C74.56 77.1656 75.7763 76.2753 76.2358 74.9804C76.8669 75.0154 77.4983 74.9182 78.0894 74.6952C78.6806 74.4722 79.2185 74.1283 79.6687 73.6855C79.8327 73.9905 80.0793 74.2433 80.3805 74.4151C80.6816 74.5868 81.025 74.6705 81.3716 74.6567C81.7465 74.6658 82.1179 74.5824 82.4528 74.4139C83.1826 75.466 84.3179 76.5721 85.8586 76.2214C86.5884 76.0595 87.3452 78.8651 88.048 78.8382C87.9669 76.4102 87.5345 73.9553 86.4532 72.1479Z" fill="#474D55"/>
<path d="M78.2359 82.3453C77.9124 82.5383 77.5543 82.6666 77.1817 82.723C76.7492 82.7499 76.2086 82.4532 76.3438 81.9406C76.3978 81.7248 76.1005 81.6169 76.0464 81.8327C75.976 82.0617 75.999 82.3091 76.1103 82.5213C76.2217 82.7334 76.4124 82.8932 76.6411 82.9658C77.2358 83.2086 77.8575 82.9118 78.371 82.642C78.5603 82.5341 78.4251 82.2374 78.2359 82.3453Z" fill="#CDB09D"/>
<path d="M75.9382 79.6207C76.3707 80.9156 75.6409 82.3453 74.2353 82.5612C73.9137 82.6084 73.5857 82.5845 73.2744 82.4912C72.963 82.398 72.6761 82.2376 72.4337 82.0214C72.1913 81.8053 71.9995 81.5386 71.8717 81.2403C71.744 80.942 71.6835 80.6193 71.6945 80.2951C71.6945 80.0793 71.3701 80.0523 71.3701 80.2681C71.3701 81.8598 72.6676 83.1547 74.2894 82.8849C74.6582 82.8203 75.0083 82.6754 75.3147 82.4605C75.6211 82.2455 75.8763 81.9659 76.0621 81.6414C76.2479 81.3168 76.3598 80.9554 76.3897 80.5829C76.4197 80.2103 76.3671 79.8357 76.2355 79.4858C76.1545 79.27 75.8571 79.4049 75.9382 79.6207Z" fill="#969696"/>
<path d="M82.1829 77.5432C82.3419 77.8258 82.4359 78.1402 82.458 78.4636C82.4801 78.7869 82.4297 79.1111 82.3106 79.4127C82.1915 79.7142 82.0065 79.9854 81.7692 80.2067C81.532 80.428 81.2483 80.5937 80.9388 80.6919C80.6293 80.7901 80.3018 80.8182 79.98 80.7743C79.6583 80.7304 79.3504 80.6155 79.0786 80.438C78.8069 80.2605 78.5783 80.0248 78.4092 79.7481C78.2402 79.4713 78.135 79.1605 78.1013 78.8381C78.0743 78.6223 77.75 78.6493 77.777 78.8381C78.0203 80.4028 79.4799 81.4819 81.0476 80.9963C82.6154 80.5107 83.183 78.7572 82.4802 77.3274C82.3721 77.1656 82.1018 77.3544 82.1829 77.5432Z" fill="#969696"/>
<path d="M78.0735 79.2161L76.1273 79.9444C75.9381 80.0254 76.0732 80.3221 76.2624 80.2412L78.2086 79.5128C78.1546 79.4049 78.1275 79.324 78.0735 79.2161Z" fill="#969696"/>
<path d="M82.8043 85.3666C82.7266 85.7116 82.5652 86.0322 82.3342 86.3004C82.1033 86.5685 81.8099 86.7759 81.4798 86.9043C81.2905 86.9852 81.3717 87.3089 81.5609 87.228C81.9439 87.0825 82.2862 86.8472 82.559 86.5421C82.8319 86.2369 83.0272 85.8708 83.1286 85.4745C83.1827 85.2587 82.8583 85.1778 82.8043 85.3666Z" fill="#CDB09D"/>
<path d="M87.2372 75.1694L82.534 77.6782C82.3448 77.7862 82.4799 78.0829 82.6692 77.975L87.3724 75.4661C87.395 75.4595 87.4159 75.448 87.4337 75.4326C87.4515 75.4171 87.4658 75.3981 87.4756 75.3767C87.4853 75.3553 87.4904 75.332 87.4904 75.3085C87.4905 75.2849 87.4854 75.2617 87.4757 75.2403C87.4659 75.2188 87.4517 75.1998 87.4339 75.1843C87.4161 75.1688 87.3952 75.1574 87.3726 75.1506C87.35 75.1439 87.3262 75.1421 87.3029 75.1454C87.2795 75.1486 87.2572 75.1568 87.2372 75.1694Z" fill="#969696"/>
<path d="M90.481 75.6817C89.4538 74.3868 86.8859 74.3598 85.7236 76.2752C86.2642 77.9747 86.7508 79.7012 87.2373 81.4278C88.2645 81.5627 90.1025 80.9692 90.8594 79.7552C91.7243 78.4333 91.5892 77.0845 90.481 75.6817Z" fill="#F5E2D6"/>
<path d="M88.2917 77.2736C88.0484 77.867 87.7781 78.4605 87.5348 79.081C87.4537 79.2699 87.7511 79.3778 87.8592 79.1889C87.8862 79.1619 87.8862 79.108 87.9133 79.081V79.0271C88.1565 78.4875 88.3728 77.948 88.616 77.3815C88.6229 77.3408 88.615 77.2991 88.5938 77.2637C88.5726 77.2284 88.5393 77.2018 88.5002 77.1888C88.461 77.1758 88.4184 77.1771 88.3802 77.1927C88.342 77.2082 88.3106 77.2369 88.2917 77.2736Z" fill="#CDB09D"/>
<g clip-path="url(#clip1_9533_6402)">
<path d="M48.592 51.5315H-1.17139V100.693H48.592V51.5315Z" fill="#EBF4FF"/>
<path d="M48.592 55.6992H-1.17139V56.3847H48.592V55.6992Z" fill="white"/>
<path d="M37.1958 100.721H-1.17139V77.305C0.727979 76.6196 3.33283 76.126 7.02302 75.8518C7.6471 75.797 8.29831 75.7696 9.00379 75.7422C10.2791 75.6873 11.6629 75.6599 13.1824 75.6599C14.9461 75.6599 17.5238 75.6873 20.3728 75.7422C20.8341 75.7422 21.3225 75.7696 21.7838 75.7696C38.7153 75.4406 36.5989 81.6372 37.1958 100.721Z" fill="#EBEBEB"/>
<path d="M19.8306 75.7972C21.0516 80.7326 17.8498 82.8438 15.5977 82.6519C12.0432 82.3228 9.62826 79.4987 8.97705 75.7698C10.2523 75.7149 11.6362 75.6875 13.1557 75.6875C14.9194 75.6875 17.4971 75.7149 20.3461 75.7698C20.8345 75.7698 19.3422 75.7972 19.8306 75.7972Z" fill="#F5E2D6"/>
<path d="M10.1982 77.0585L18.6097 79.9374L19.7222 77.6891L21.1332 74.8101L23.5752 69.8199L17.4972 67.1055C17.2259 67.7361 10.1982 77.0585 10.1982 77.0585Z" fill="#F5E2D6"/>
<path d="M19.6951 77.6889L19.6409 77.7986C18.6045 76.6259 17.9757 75.1432 17.85 73.5761C17.6329 71.4375 18.3384 69.6552 19.0439 67.7908L23.521 69.7923L21.0789 74.7825L19.6951 77.6889Z" fill="#CDB09D"/>
<path d="M18.0129 61.8957C20.5092 59.7296 27.9439 62.7731 27.2655 65.9811C26.75 68.3665 25.2848 75.0019 23.8195 75.9341C20.9162 77.826 17.6059 75.3857 16.7105 72.4794C15.8151 69.573 15.5437 64.0344 18.0129 61.8957Z" fill="#F5E2D6"/>
<path d="M17.8225 66.9683C18.935 68.0924 21.1057 65.7893 21.6212 64.7474C23.0593 65.3506 25.7184 65.3506 27.0751 64.6377C25.9084 62.0055 20.1289 60.0313 17.9853 61.8958C16.8457 62.8829 16.2759 64.6377 16.0859 66.4747C16.6829 66.4473 17.4155 66.557 17.8225 66.9683Z" fill="#474D55"/>
<path d="M14.2138 65.7893C14.9464 64.8845 16.7373 64.857 17.5513 66.228C17.1714 67.4344 16.8187 68.6682 16.4931 69.9021C15.7876 69.9843 14.4852 69.573 13.9425 68.7231C13.3455 67.7086 13.4269 66.7763 14.2138 65.7893Z" fill="#F5E2D6"/>
<path d="M22.4899 73.439C22.3692 73.4461 22.2487 73.4229 22.139 73.3714C22.0294 73.32 21.934 73.2419 21.8615 73.1442C21.7889 73.0464 21.7415 72.9321 21.7233 72.8113C21.7051 72.6905 21.7168 72.5671 21.7573 72.452C21.8387 72.26 21.5673 72.0955 21.4588 72.2875C21.1332 72.9729 21.703 73.8777 22.4628 73.7955C22.707 73.7406 22.707 73.4116 22.4899 73.439Z" fill="#CDB09D"/>
<path d="M25.0671 70.1487C25.0129 69.9294 24.7144 70.0391 24.7415 70.231C24.7632 70.3343 24.7524 70.4419 24.7107 70.5387C24.669 70.6356 24.5984 70.7168 24.5087 70.7712C24.4191 70.8255 24.3149 70.8502 24.2107 70.8419C24.1065 70.8335 24.0075 70.7925 23.9275 70.7245C23.7647 70.5874 23.6019 70.889 23.7647 71.0261C23.9028 71.1267 24.0679 71.1823 24.2381 71.1854C24.4083 71.1885 24.5753 71.1391 24.7169 71.0437C24.8585 70.9483 24.968 70.8115 25.0305 70.6516C25.0931 70.4916 25.1059 70.3162 25.0671 70.1487Z" fill="#CDB09D"/>
<g clip-path="url(#clip2_9533_6402)">
<path d="M18.1211 85.1056H42.2702L48.6466 82.3228V100.967H22.8695L18.1211 85.1056Z" fill="white"/>
<path fill-rule="evenodd" clip-rule="evenodd" d="M45.6621 100.968L42.406 85.1056L42.6714 85.0483L45.9274 100.91L45.6621 100.968Z" fill="#D9D9D9"/>
<path d="M32.6377 88.1665C32.6377 88.935 32.0303 89.5579 31.281 89.5579C30.5317 89.5579 29.9243 88.935 29.9243 88.1665C29.9243 87.3981 30.5317 86.7751 31.281 86.7751C32.0303 86.7751 32.6377 87.3981 32.6377 88.1665Z" fill="#A50034"/>
<path d="M19.749 87.0535H29.1102V89.558H20.6987L19.749 87.0535Z" fill="#DCDCDC"/>
<path d="M33.4517 87.0535H41.8631L42.2701 89.558H33.4517V87.0535Z" fill="#DCDCDC"/>
<path fill-rule="evenodd" clip-rule="evenodd" d="M42.4059 90.6712H20.9702V90.397H42.4059V90.6712Z" fill="#DCDCDC"/>
<path d="M21.2417 91.2278H33.7232L35.6226 100.133H24.0907L21.2417 91.2278Z" fill="#D9BDC6"/>
<path fill-rule="evenodd" clip-rule="evenodd" d="M42.6768 92.4678L34.9437 92.4678L34.6724 91.3711L42.5412 91.3711L42.6768 92.4678Z" fill="#969696"/>
<path fill-rule="evenodd" clip-rule="evenodd" d="M52.581 97.3499L47.1543 99.8544L46.7144 98.8518L52.1411 96.3473L52.581 97.3499Z" fill="#969696"/>
<path fill-rule="evenodd" clip-rule="evenodd" d="M42.8128 94.387L35.4843 94.387L35.2153 93.2903L42.6771 93.2903L42.8128 94.387Z" fill="#969696"/>
<path fill-rule="evenodd" clip-rule="evenodd" d="M43.3553 96.3065L36.0244 96.3065L35.7578 95.2097L43.222 95.2097L43.3553 96.3065Z" fill="#969696"/>
<path fill-rule="evenodd" clip-rule="evenodd" d="M43.6269 98.2257L36.5534 98.2257L36.3008 97.1289L43.5006 97.1289L43.6269 98.2257Z" fill="#969696"/>
<path fill-rule="evenodd" clip-rule="evenodd" d="M44.1697 100.145L36.8344 100.145L36.7033 99.5965L36.5723 99.0481L44.0364 99.0481L44.1697 100.145Z" fill="#969696"/>
<path fill-rule="evenodd" clip-rule="evenodd" d="M49.1891 84.2707L44.305 86.7753L44.1851 86.5293L49.0691 84.0248L49.1891 84.2707Z" fill="#DCDCDC"/>
<path fill-rule="evenodd" clip-rule="evenodd" d="M49.8678 87.0535L44.9837 89.558L44.8638 89.312L49.7479 86.8075L49.8678 87.0535Z" fill="#DCDCDC"/>
<path fill-rule="evenodd" clip-rule="evenodd" d="M50.546 89.8364L45.6619 92.3409L45.542 92.095L50.4261 89.5905L50.546 89.8364Z" fill="#DCDCDC"/>
<path fill-rule="evenodd" clip-rule="evenodd" d="M50.9532 92.6191L46.0691 95.1236L45.9492 94.8777L50.8333 92.3732L50.9532 92.6191Z" fill="#DCDCDC"/>
<path fill-rule="evenodd" clip-rule="evenodd" d="M51.36 95.4018L46.4759 97.9064L46.356 97.6604L51.24 95.1559L51.36 95.4018Z" fill="#DCDCDC"/>
<path fill-rule="evenodd" clip-rule="evenodd" d="M49.5968 85.6621L44.7127 88.1666L44.5928 87.9207L49.4769 85.4161L49.5968 85.6621Z" fill="#DCDCDC"/>
<path fill-rule="evenodd" clip-rule="evenodd" d="M50.2745 88.4448L45.3904 90.9493L45.2705 90.7034L50.1546 88.1989L50.2745 88.4448Z" fill="#DCDCDC"/>
<path fill-rule="evenodd" clip-rule="evenodd" d="M50.6817 91.2278L45.7976 93.7323L45.6777 93.4863L50.5618 90.9818L50.6817 91.2278Z" fill="#DCDCDC"/>
<path fill-rule="evenodd" clip-rule="evenodd" d="M51.0885 94.0105L46.2044 96.515L46.0845 96.269L50.9686 93.7645L51.0885 94.0105Z" fill="#DCDCDC"/>
</g>
<path d="M23.442 100.72H10.1465C14.1894 98.3898 18.3409 96.0044 21.3799 96.6898C22.9808 97.0189 23.442 98.9382 23.442 100.72Z" fill="#F5E2D6"/>
<path d="M8.05702 100.72H7.70428C6.6732 95.8125 5.62402 90.9137 4.55676 86.024C4.54936 85.9816 4.55814 85.938 4.58131 85.9019C4.60448 85.8658 4.64033 85.84 4.68163 85.8295C4.72293 85.8191 4.76661 85.8249 4.80386 85.8457C4.84111 85.8665 4.86916 85.9008 4.88237 85.9417C5.96772 90.8497 7.02594 95.7759 8.05702 100.72Z" fill="#D8D8D8"/>
</g>
<path d="M134.77 10.6045H79.8833V55.1854H134.77V10.6045Z" fill="white"/>
<path d="M108.586 28.5261C109.399 28.6072 110.394 28.222 111.206 28.2828C111.206 28.2625 112.181 28.2828 112.202 28.2828C115.33 29.8236 114.314 26.6001 114.314 26.5393C113.725 25.6067 109.845 25.3229 109.155 24.4512C108.18 24.8566 107.855 26.2149 108.586 27.0867C108.606 27.1272 108.566 28.5058 108.586 28.5261Z" fill="#474D55"/>
<path d="M102.736 55.1853C103.325 34.912 101.07 27.6745 111.389 27.4109C111.755 27.4109 112.1 27.3907 112.446 27.3907C112.689 27.3907 112.933 27.3907 113.177 27.3704C115.025 27.3501 116.671 27.3298 117.829 27.3298C118.804 27.3298 119.697 27.3501 120.53 27.3704C120.672 27.3704 120.815 27.3907 120.936 27.3907C121.444 27.4109 121.952 27.4515 122.419 27.4717C129.854 27.6542 132.19 29.8234 132.698 40.3858C132.86 43.6295 132.718 52.0227 132.556 55.1853H102.736Z" fill="#EBEBEB"/>
<path d="M108.769 44.8054C106.636 44.3796 107.55 41.2576 107.773 39.8384L108.566 34.5471C108.586 34.3849 108.342 34.3241 108.322 34.4863C107.997 36.7366 107.652 38.9869 107.327 41.2373C107.123 42.5956 106.92 44.704 108.708 45.0689C108.85 45.0689 108.911 44.8257 108.769 44.8054Z" fill="#D8D8D8"/>
<path d="M108.403 44.7852C108.383 44.623 108.139 44.623 108.159 44.7852L108.342 47.7046C108.342 47.8667 108.606 47.8667 108.586 47.7046L108.403 44.7852Z" fill="#D8D8D8"/>
<path d="M104.706 40.6696C104.706 40.6696 103.934 38.7437 102.898 36.1892C101.436 32.6009 99.4247 27.7961 98.2059 25.3633C97.8199 23.7009 96.723 21.0654 95.0776 22.6467C94.8542 22.8494 95.1386 23.1535 95.3823 23.0319C95.5245 23.0522 95.6667 23.0927 95.8089 23.113C95.7912 23.1651 95.7843 23.2203 95.7886 23.2752V23.3157C95.7141 23.2881 95.6346 23.2764 95.5553 23.2811C95.476 23.2858 95.3985 23.307 95.3279 23.3432C95.2572 23.3794 95.1948 23.4299 95.1447 23.4915C95.0947 23.5531 95.058 23.6244 95.037 23.7009L95.6667 25.1606L92.4775 26.7216C93.2698 36.3717 94.4276 46.2245 98.1246 55.165H108.037C108.484 54.8609 108.87 54.5568 109.195 54.3135C109.337 54.2122 109.459 54.1108 109.561 54.0297L109.581 54.0094C109.639 53.9739 109.693 53.9331 109.744 53.8878C109.988 53.6851 110.13 53.5634 110.13 53.5634L104.706 40.6696Z" fill="#F5E2D6"/>
<path d="M97.7195 23.0361L94.9087 29.5095L99.7919 31.6216L102.603 25.1482L97.7195 23.0361Z" fill="#009AE0"/>
<path d="M97.4545 23.559C97.2241 23.3593 96.9438 23.2256 96.6434 23.172C96.343 23.1185 96.0337 23.1471 95.7482 23.2549C95.017 23.5387 94.7529 24.3294 94.4888 24.9984C94.2044 25.7282 93.656 26.6608 93.8997 27.4717C94.1435 28.2827 94.9763 28.6273 95.7076 28.8706C95.7683 28.8875 95.8332 28.8806 95.889 28.8515C95.9449 28.8223 95.9875 28.773 96.0082 28.7136C96.0289 28.6542 96.0261 28.5891 96.0005 28.5317C95.9748 28.4742 95.9282 28.4287 95.8701 28.4043C94.8544 28.0394 94.1841 27.715 94.4685 26.4378C94.5725 26.107 94.6945 25.7822 94.8341 25.4647C95.2201 24.4916 95.8701 22.9103 97.1905 23.9645C97.4139 24.1672 97.6983 23.7617 97.4545 23.559Z" fill="#009AE0"/>
<path d="M92.8431 24.5321C92.5181 25.2619 91.7665 27.1879 92.7416 28.1205C93.29 28.6476 94.1838 27.8366 93.9807 27.492C94.5291 27.8366 95.1589 26.8838 95.037 26.458C95.5854 26.5189 96.0526 26.3364 96.1745 25.6471C96.2102 25.4433 96.1802 25.2335 96.089 25.0478C95.9977 24.862 95.8499 24.7099 95.6667 24.6132C95.8154 24.5566 95.9529 24.4742 96.073 24.3699C97.048 23.5184 96.0323 22.7075 95.1182 22.3426C93.8385 21.8357 93.2697 23.559 92.8431 24.5321Z" fill="#F5E2D6"/>
<path d="M94.5289 27.3702C94.3947 27.4588 94.2335 27.4972 94.0737 27.4787C93.9138 27.4601 93.7657 27.3858 93.6554 27.2689C93.5539 27.1472 93.3711 27.3297 93.4726 27.4513C93.6173 27.6084 93.8132 27.7089 94.0254 27.7349C94.2376 27.7609 94.4521 27.7107 94.6305 27.5933C94.7727 27.5122 94.6508 27.2891 94.5289 27.3702Z" fill="#CDB09D"/>
<path d="M96.3571 24.2888C96.3202 24.4017 96.2537 24.5027 96.1643 24.5811C96.075 24.6596 95.9662 24.7127 95.8493 24.7348C95.768 24.7551 95.7477 24.8362 95.768 24.9172C95.815 25.0103 95.8393 25.1131 95.8391 25.2174C95.8388 25.3216 95.8139 25.4243 95.7664 25.5171C95.7189 25.6099 95.6502 25.6902 95.5657 25.7516C95.4813 25.8129 95.3836 25.8535 95.2805 25.8701C95.2523 25.876 95.227 25.8912 95.2085 25.9133C95.1901 25.9354 95.1797 25.963 95.1789 25.9917C95.2009 26.333 95.1 26.6709 94.8945 26.9446C94.7929 27.0662 95.0164 27.1878 95.118 27.0662C95.2867 26.8545 95.3986 26.6033 95.443 26.3364C95.5039 25.9917 95.5446 26.1336 95.8086 25.9106C95.9443 25.7929 96.039 25.6353 96.0792 25.4604C96.1193 25.2855 96.1028 25.1024 96.0321 24.9375C96.1608 24.8909 96.2772 24.8155 96.3722 24.7171C96.4673 24.6188 96.5386 24.5 96.5805 24.3699C96.6618 24.2077 96.418 24.1469 96.3571 24.2888Z" fill="#CDB09D"/>
<path d="M94.7124 26.4987C94.4889 26.3771 94.2858 26.2352 94.0623 26.1135C94.0331 26.1014 94.0005 26.1005 93.9707 26.111C93.9409 26.1215 93.916 26.1426 93.9009 26.1703C93.8857 26.198 93.8814 26.2303 93.8887 26.261C93.896 26.2917 93.9145 26.3186 93.9405 26.3365C94.1639 26.4582 94.367 26.6001 94.5905 26.7217C94.7124 26.8028 94.8546 26.5798 94.7124 26.4987Z" fill="#CDB09D"/>
<path d="M95.1998 25.7281C94.7936 25.4038 94.3873 25.0997 94.0013 24.7753C93.8794 24.6739 93.6966 24.8564 93.8185 24.9578C94.2248 25.2821 94.631 25.5862 95.017 25.9106C95.1592 26.012 95.342 25.8295 95.1998 25.7281Z" fill="#CDB09D"/>
<path d="M95.4841 24.532C95.1433 24.062 94.6892 23.6854 94.1638 23.4372C94.0216 23.3764 93.8997 23.5791 94.0419 23.6602C94.5288 23.8878 94.9486 24.237 95.2607 24.6739C95.3622 24.7753 95.5654 24.6536 95.4841 24.532Z" fill="#CDB09D"/>
<path d="M104.767 40.0208C104.543 39.4531 104.3 38.9058 104.076 38.3381C104.015 38.1962 103.772 38.257 103.832 38.3989C104.056 38.9666 104.3 39.514 104.523 40.0816C104.584 40.2235 104.828 40.1627 104.767 40.0208Z" fill="white"/>
<path d="M105.62 41.0751L102.898 36.2095C103.081 39.3518 102.939 42.5145 101.05 45.1703C99.786 46.9166 98.0436 48.2612 96.0322 49.0424C96.6303 51.134 97.3423 53.1914 98.1651 55.2055H108.078C108.525 54.9014 108.911 54.5973 109.236 54.354C109.378 54.2527 109.5 54.1513 109.601 54.0702L109.622 54.0499C109.679 54.0144 109.734 53.9737 109.784 53.9283C110.028 53.7256 110.17 53.6039 110.17 53.6039L105.62 41.0751Z" fill="#EBEBEB"/>
<path d="M109.297 55.2259H132.352C132.352 55.2259 131.357 46.63 122.5 46.3867C122.5 46.3867 112.202 47.6031 107.144 48.8398C106.473 51.1509 109.642 52.8336 109.297 55.2259Z" fill="#F5E2D6"/>
<path d="M107.976 49.0626C107.408 48.8599 105.701 48.0895 104.076 47.9476C103.345 47.6232 102.573 47.4611 101.781 47.8057C100.603 48.3328 99.6684 49.6911 98.7949 50.6034C98.724 50.6834 98.6803 50.7837 98.6699 50.89C98.6595 50.9962 98.683 51.1031 98.737 51.1952C98.7911 51.2874 98.8729 51.3601 98.9709 51.4031C99.0688 51.4461 99.1778 51.4571 99.2824 51.4346C99.6119 51.3534 99.9319 51.2379 100.237 51.09C99.8512 51.5157 99.5465 51.8198 99.2012 52.2456C98.8965 52.6105 99.1199 53.5025 99.6887 53.32C99.7496 53.8674 100.136 54.0296 100.704 54.1512C100.867 54.5364 102.147 54.4553 102.593 54.2323C103.027 54.0303 103.41 53.7321 103.711 53.3606C105.64 54.6581 107.916 55.7326 110.069 55.1244C109.254 53.1462 108.555 51.1222 107.976 49.0626Z" fill="#F5E2D6"/>
<path d="M101.497 49.2857C101.131 49.7723 100.766 50.2386 100.4 50.7251C100.298 50.8468 100.522 50.9684 100.623 50.8468C100.989 50.3602 101.355 49.8939 101.72 49.4074C101.822 49.2857 101.598 49.1641 101.497 49.2857Z" fill="#CDB09D"/>
<path d="M101.943 50.2792C101.455 51.0663 100.912 51.8182 100.318 52.5295C100.217 52.6512 100.4 52.8336 100.501 52.712C101.108 51.9873 101.665 51.2219 102.167 50.4211C102.248 50.2589 102.025 50.1373 101.943 50.2792Z" fill="#CDB09D"/>
<path d="M102.736 51.1102C102.228 52.0521 101.6 52.9243 100.867 53.7052C100.847 53.7301 100.837 53.7616 100.839 53.7936C100.84 53.8256 100.854 53.8558 100.876 53.8785C100.899 53.9011 100.929 53.9146 100.961 53.9163C100.994 53.918 101.025 53.9078 101.05 53.8877C101.796 53.0935 102.438 52.2079 102.959 51.2522C103.02 51.09 102.797 50.9683 102.736 51.1102Z" fill="#CDB09D"/>
<path d="M122.257 36.3108L121.973 44.2782C121.973 44.3105 121.985 44.3414 122.008 44.3643C122.031 44.3871 122.062 44.3999 122.095 44.3999C122.127 44.3999 122.158 44.3871 122.181 44.3643C122.204 44.3414 122.216 44.3105 122.216 44.2782L122.501 36.3108C122.521 36.1487 122.257 36.1487 122.257 36.3108Z" fill="#D8D8D8"/>
<path d="M120.55 27.3704L114.314 36.3717C114.314 36.3717 113.502 29.9856 113.177 27.3704C115.025 27.3501 116.671 27.3298 117.828 27.3298C118.804 27.3298 119.697 27.3501 120.55 27.3704Z" fill="#F5E2D6"/>
<path d="M120.571 27.2286L114.273 29.3573L113.441 27.6949L112.384 25.5662L110.556 21.8764L115.106 19.8694C115.309 20.3357 120.571 27.2286 120.571 27.2286Z" fill="#F5E2D6"/>
<path d="M113.441 27.6946L113.481 27.7757C114.257 26.9086 114.728 25.8123 114.822 24.6536C114.985 23.0723 114.456 21.7546 113.928 20.376L110.577 21.8559L112.405 25.5457L113.441 27.6946Z" fill="#CDB09D"/>
<path d="M114.72 16.0174C112.851 14.4158 107.286 16.6661 107.793 19.0381C108.179 20.8019 109.276 25.708 110.373 26.3973C112.547 27.7962 115.025 25.9918 115.695 23.8429C116.366 21.6939 116.569 17.5987 114.72 16.0174Z" fill="#F5E2D6"/>
<path d="M124.897 24.9376C124.792 24.6657 124.633 24.4181 124.429 24.21C124.225 24.0019 123.98 23.8377 123.71 23.7276C123.439 23.6174 123.149 23.5636 122.858 23.5695C122.566 23.5754 122.278 23.6408 122.013 23.7617C122.135 23.2133 122.107 22.6421 121.932 22.1082C121.756 21.5744 121.44 21.0976 121.015 20.7282C120.591 20.3588 120.075 20.1104 119.521 20.0092C118.968 19.908 118.397 19.9577 117.869 20.1531V20.1328C117.909 19.2408 117.828 18.2271 117.036 17.6798C116.846 17.5377 116.623 17.4479 116.387 17.4194C116.152 17.391 115.913 17.4248 115.695 17.5176C115.493 16.9541 115.158 16.4468 114.72 16.0376C113.562 15.0442 111.023 15.5308 109.337 16.6053C108.829 16.3417 108.22 16.2404 107.712 16.5444C107.462 16.6763 107.263 16.887 107.145 17.1436C107.028 17.4003 106.999 17.6886 107.062 17.9636C107.225 18.5515 107.793 18.8353 108.383 18.8151C108.794 18.793 109.196 18.6824 109.561 18.4907C110.434 18.5515 111.389 18.4501 112.019 18.1866C112.405 18.957 114.314 20.3761 115.147 19.5449C115.33 19.3624 115.289 19.5449 115.553 19.5043C115.817 19.9504 116.061 20.4166 116.325 20.8627C116.309 20.8864 116.302 20.9152 116.305 20.9437V21.0451C116.184 21.3446 116.131 21.6668 116.149 21.989C116.167 22.3112 116.256 22.6256 116.409 22.9098C116.562 23.1941 116.775 23.4413 117.035 23.6341C117.294 23.8268 117.593 23.9604 117.909 24.0253C117.51 24.6028 117.308 25.2937 117.334 25.9951C117.359 26.6964 117.611 27.3708 118.052 27.9178C119.25 29.4382 121.485 29.7423 123.171 28.8503C124.532 28.0799 125.527 26.4784 124.897 24.9376Z" fill="#474D55"/>
<path d="M117.645 19.1801C117.097 18.511 115.756 18.4908 115.147 19.5044C115.431 20.3965 115.695 21.3088 115.939 22.221C116.467 22.2819 117.442 21.9778 117.849 21.3493C118.296 20.6195 118.235 19.9099 117.645 19.1801Z" fill="#F5E2D6"/>
<path d="M111.348 24.5524C111.439 24.5577 111.529 24.5405 111.611 24.5024C111.693 24.4644 111.765 24.4067 111.819 24.3344C111.873 24.2621 111.909 24.1776 111.922 24.0883C111.936 23.999 111.927 23.9077 111.897 23.8226C111.836 23.6807 112.039 23.559 112.12 23.701C112.364 24.2078 111.937 24.8768 111.369 24.816C111.206 24.7957 111.206 24.5322 111.348 24.5524Z" fill="#CDB09D"/>
<path d="M109.419 22.1196C109.459 21.9574 109.683 22.0385 109.662 22.1804C109.646 22.2568 109.654 22.3364 109.685 22.408C109.717 22.4796 109.77 22.5396 109.837 22.5798C109.904 22.62 109.982 22.6383 110.06 22.6321C110.138 22.6259 110.212 22.5956 110.272 22.5453C110.394 22.444 110.515 22.667 110.394 22.7683C110.29 22.8415 110.167 22.8816 110.04 22.8834C109.913 22.8852 109.788 22.8485 109.683 22.7783C109.577 22.708 109.495 22.6075 109.448 22.4899C109.401 22.3723 109.391 22.2432 109.419 22.1196Z" fill="#CDB09D"/>
<path d="M116.102 20.2547C115.98 20.4777 115.858 20.7209 115.736 20.944C115.655 21.0859 115.878 21.2075 115.96 21.0656C116.082 20.8426 116.203 20.5993 116.325 20.3763C116.407 20.2344 116.183 20.1128 116.102 20.2547Z" fill="#CDB09D"/>
<path d="M114.598 54.5164H91.0757C91.0083 54.5164 90.9438 54.5431 90.8961 54.5906C90.8485 54.6381 90.8218 54.7026 90.8218 54.7698C90.8218 54.837 90.8485 54.9014 90.8961 54.949C90.9438 54.9965 91.0083 55.0232 91.0757 55.0232H114.598C114.666 55.0232 114.73 54.9965 114.778 54.949C114.826 54.9014 114.852 54.837 114.852 54.7698C114.852 54.7026 114.826 54.6381 114.778 54.5906C114.73 54.5431 114.666 54.5164 114.598 54.5164Z" fill="#969696"/>
<path d="M93.2697 20.9033H79.8833V46.549H93.2697V20.9033Z" fill="#A50034"/>
<path d="M80.7773 45.7584V54.6381C80.7773 54.9625 81.4883 54.9625 81.4883 54.6381V45.7584C81.4883 45.434 80.7773 45.434 80.7773 45.7584Z" fill="#969696"/>
<path d="M86.9117 55.0435H79.8833V54.3339H86.9117C87.2367 54.3136 87.2367 55.0435 86.9117 55.0435Z" fill="#969696"/>
<path d="M82.1179 32.9253C82.1179 34.3445 81.1632 35.0337 80.0054 35.0337H79.9038V30.8169H80.0054C80.5647 30.8201 81.1002 31.0432 81.4957 31.438C81.8911 31.8327 82.1147 32.3671 82.1179 32.9253Z" fill="white"/>
<path d="M90.0601 16.362C89.6132 17.1122 89.1663 17.842 88.7194 18.5921C88.6896 18.6484 88.6829 18.714 88.7007 18.7752C88.7185 18.8363 88.7594 18.8881 88.8148 18.9197C88.8701 18.9513 88.9357 18.9601 88.9975 18.9444C89.0593 18.9287 89.1125 18.8896 89.146 18.8354L90.4866 16.6053C90.6491 16.3418 90.2226 16.0985 90.0601 16.362Z" fill="#A50034"/>
<path d="M91.4411 18.1462L89.8567 19.4842C89.6129 19.687 89.9583 20.0316 90.202 19.8289L91.7865 18.4908C92.0302 18.2881 91.6849 17.9434 91.4411 18.1462Z" fill="#A50034"/>
<path d="M131.601 6.99585H129.285V9.307H131.601V6.99585Z" fill="#A50034"/>
<path d="M134.871 6.99585H132.556V9.307H134.871V6.99585Z" fill="#A50034"/>
<path d="M135.034 55.4288H79.6396V10.3613H135.034V55.4288ZM80.1272 54.922H134.526V10.8479H80.1272V54.922Z" fill="#A50034"/>
<path d="M60.0652 101.987C60.7319 101.184 60.6106 99.9862 59.7944 99.3114C58.9782 98.6365 57.7761 98.7405 57.1094 99.5436C56.4428 100.347 56.564 101.545 57.3802 102.22C58.1964 102.895 59.3985 102.791 60.0652 101.987Z" fill="#A50034"/>
<path d="M61.5867 95.7526C59.127 93.4595 55.4239 93.9991 53.721 96.9395C53.698 96.9768 53.6827 97.0183 53.6761 97.0616C53.6695 97.1049 53.6717 97.149 53.6825 97.1914C53.6934 97.2338 53.7126 97.2737 53.7392 97.3085C53.7658 97.3433 53.7991 97.3724 53.8372 97.3942C53.8752 97.4159 53.9173 97.4297 53.9609 97.4349C54.0044 97.4401 54.0486 97.4364 54.0907 97.4242C54.1328 97.412 54.172 97.3915 54.206 97.3638C54.24 97.3362 54.2681 97.302 54.2886 97.2633C55.7482 94.7274 58.9378 94.2149 61.1002 96.2112C61.4245 96.5079 61.9111 96.0493 61.5867 95.7526Z" fill="#A50034"/>
<path d="M63.9919 91.5174C63.1164 90.4959 61.9978 89.7103 60.739 89.2324C59.4801 88.7546 58.1211 88.5998 56.7867 88.7824C55.4524 88.965 54.1853 89.479 53.1017 90.2774C52.0181 91.0758 51.1528 92.1329 50.585 93.3518C50.3957 93.7295 50.9634 94.0802 51.1526 93.6755C51.6673 92.5443 52.4605 91.5615 53.4585 90.8188C54.4564 90.0761 55.6265 89.5976 56.8596 89.4279C58.0928 89.2582 59.349 89.4029 60.511 89.8485C61.6731 90.294 62.7032 91.0259 63.5054 91.976C63.8027 92.3267 64.2622 91.8411 63.9919 91.5174Z" fill="#A50034"/>
<path d="M61.0443 23.9135C60.6607 26.8543 55.3753 25.6698 53.2015 26.5276C51.5833 27.1775 50.2139 28.2901 49.28 29.7135C48.8964 30.2445 49.8342 30.7754 50.1751 30.2036C50.6792 29.4113 51.348 28.7268 52.14 28.1928C52.9319 27.6587 53.8301 27.2865 54.7786 27.0994C56.1425 26.8135 57.5491 27.0994 58.8705 26.8543C60.5754 26.5684 61.8542 25.5881 62.0673 23.9135C62.1525 23.26 61.1296 23.26 61.0443 23.9135Z" fill="#DBBCC5"/>
<path d="M63.2929 28.5694C62.8744 31.5231 57.1086 30.3335 54.7371 31.195C52.9719 31.8478 51.4779 32.9652 50.4592 34.3948C50.0407 34.9281 51.0637 35.4614 51.4357 34.8871C51.9855 34.0913 52.7152 33.4038 53.5791 32.8674C54.4431 32.3311 55.4229 31.9573 56.4576 31.7693C57.9455 31.4821 59.48 31.7693 60.9215 31.5232C62.7814 31.236 64.1764 30.2514 64.4089 28.5694C64.5019 27.9541 63.3859 27.9541 63.2929 28.5694Z" fill="#DBBCC5"/>
<path d="M131.66 97.9956C131.504 97.9907 131.354 97.935 131.234 97.8373C131.14 97.7639 131.069 97.6648 131.031 97.5522C130.994 97.4397 130.99 97.3186 131.021 97.204C131.074 97.0456 134.323 83.5352 134.536 81.5825C134.556 81.4729 134.599 81.369 134.664 81.2778C134.728 81.1867 134.812 81.1105 134.909 81.0547C135.014 81.0052 135.131 80.9887 135.245 81.0076C135.36 81.0265 135.465 81.0798 135.548 81.1603L146.734 89.8682C146.895 90.0201 146.991 90.2283 147 90.4487C146.991 90.5617 146.952 90.6703 146.886 90.7631C146.821 90.8559 146.731 90.9296 146.627 90.9765L131.926 97.9428C131.846 97.9907 131.752 98.0094 131.66 97.9956ZM135.708 82.8491C135.122 85.8573 133.364 93.1403 132.672 96.2012L145.189 90.2376L135.708 82.8491Z" fill="#DBBCC5"/>
</g>
<defs>
<clipPath id="clip0_9533_6402">
<rect width="146.396" height="130" fill="white"/>
</clipPath>
<clipPath id="clip1_9533_6402">
<rect width="50.3604" height="49.1892" fill="white" transform="translate(-1.17139 51.5315)"/>
</clipPath>
<clipPath id="clip2_9533_6402">
<rect width="30.6612" height="18.6447" fill="white" transform="translate(18.1211 82.3228)"/>
</clipPath>
</defs>
</svg>
