<svg width="33" height="41" viewBox="0 0 33 41" fill="none" xmlns="http://www.w3.org/2000/svg">
<path d="M29.489 4.36194C29.5455 4.42663 29.6275 4.46353 29.7131 4.46353C29.7997 4.46353 29.8807 4.42663 29.9381 4.36194L32.0109 2.27186C32.0893 2.18302 32.1084 2.05729 32.0601 1.94932C32.0109 1.84227 31.9034 1.77302 31.7854 1.77302H31.0424V0.299756C31.0429 0.133933 30.9094 0 30.7436 0H28.6831C28.5173 0 28.3833 0.133933 28.3833 0.299756V1.77302H27.6408C27.5228 1.77302 27.4153 1.84227 27.367 1.94932C27.3182 2.05729 27.3383 2.18302 27.4162 2.27186L29.489 4.36194Z" fill="#005DAA"/>
<path d="M19.54 18.6247C18.6831 17.6694 17.8367 16.602 17.0745 15.6417C16.7151 15.188 16.3712 14.7552 16.0495 14.362L16.0258 14.3333C16.4969 12.9917 16.7661 11.8938 16.8263 11.0693C16.9789 8.96871 16.7443 7.61571 16.1097 6.93375C15.681 6.47227 15.0373 6.31146 14.4319 6.51509C13.9982 6.66041 13.411 7.04991 13.0752 8.07856C12.575 9.61196 12.8174 12.3275 14.2396 14.5734C13.605 16.2353 12.7203 18.145 11.7432 19.9631C9.88222 20.6154 8.39893 21.4733 7.3343 22.5137C5.94348 23.8713 5.37814 25.2188 5.78267 26.2101C6.03186 26.8242 6.60814 27.1905 7.32382 27.1905C7.8222 27.1905 8.36112 27.0105 8.88273 26.6707C10.1997 25.8097 11.9195 22.9411 12.842 21.2787C14.7503 20.6829 16.6345 20.4391 17.592 20.3467C18.0253 20.3048 18.4553 20.2715 18.8694 20.2483C20.5454 22.0181 21.9162 22.9515 23.179 23.1843C23.4332 23.2317 23.6874 23.2554 23.9356 23.2554C24.9647 23.2554 25.8153 22.8449 26.2121 22.1575C26.5114 21.6382 26.5054 21.0323 26.1952 20.4947C25.4946 19.2816 23.3799 18.6137 20.2406 18.6137C20.0147 18.6142 19.7814 18.6174 19.54 18.6247ZM8.00897 25.3359C7.75978 25.4985 7.50376 25.5956 7.32336 25.5956C7.2892 25.5956 7.26596 25.5919 7.25275 25.5887C7.22132 25.4298 7.3343 24.7423 8.44813 23.654C8.97111 23.1429 9.63257 22.6764 10.4157 22.2636C9.42757 23.8535 8.53833 24.9901 8.00897 25.3359ZM14.5904 8.57375C14.7066 8.21796 14.8505 8.05715 14.9403 8.02708C14.9425 8.02663 14.9444 8.02571 14.9462 8.02526C15.0327 8.12275 15.4008 8.67989 15.2359 10.9549C15.2072 11.3517 15.1106 11.8533 14.948 12.4492C14.4159 11.0788 14.2697 9.55638 14.5904 8.57375ZM17.4381 18.7604C16.5898 18.842 15.2979 19.0101 13.8565 19.3513C14.4155 18.2352 14.933 17.104 15.3653 16.0558C15.5152 16.2435 15.6687 16.4362 15.8245 16.6334C16.3461 17.2908 16.9319 18.0297 17.5392 18.7513L17.4381 18.7604ZM24.813 21.2924C24.8367 21.3334 24.8363 21.3498 24.8304 21.3607C24.7634 21.4769 24.4604 21.6614 23.9334 21.6614C23.7862 21.6614 23.6295 21.6464 23.4678 21.6163C22.81 21.4947 22.0428 21.04 21.1285 20.2291C23.6095 20.3476 24.6122 20.9457 24.813 21.2924Z" fill="#005DAA"/>
<path d="M22.919 0H2.29144C1.02728 0 0 1.02454 0 2.2919V38.7081C0 39.9741 1.02728 41 2.29144 41H29.7947C31.0616 41 32.0861 39.9741 32.0861 38.7081V9.1676L22.919 0ZM22.919 3.24037L28.8462 9.1676H22.919V3.24037ZM29.7952 38.7081H2.29144V2.2919H20.6271V9.1676C20.6271 10.4336 21.6521 11.4595 22.9185 11.4595H29.7947V38.7081H29.7952Z" fill="#005DAA"/>
<path d="M12.2566 29.3173C12.0694 29.1519 11.8448 29.0317 11.5897 28.9611C11.3378 28.8891 10.977 28.8526 10.5173 28.8526H8.99168C8.70149 28.8526 8.48282 28.9192 8.34114 29.0517C8.1981 29.1857 8.12476 29.4025 8.12476 29.6954V34.22C8.12476 34.4833 8.1899 34.6883 8.31837 34.8304C8.44911 34.9762 8.62313 35.0505 8.83542 35.0505C9.0386 35.0505 9.20989 34.9762 9.34382 34.8295C9.47502 34.6856 9.54199 34.4778 9.54199 34.2122V32.6647H10.5173C11.2704 32.6647 11.8489 32.5003 12.2357 32.1755C12.6293 31.8465 12.8293 31.36 12.8293 30.7291C12.8293 30.4352 12.781 30.1665 12.6849 29.9296C12.5883 29.6895 12.4443 29.484 12.2566 29.3173ZM11.2708 31.2092C11.1856 31.324 11.064 31.4047 10.8982 31.4566C10.7219 31.5113 10.4973 31.5395 10.2294 31.5395H9.54244V29.9733H10.2294C10.8485 29.9733 11.0995 30.0968 11.1993 30.1974C11.3323 30.3396 11.397 30.5213 11.397 30.7523C11.397 30.9427 11.3546 31.0963 11.2708 31.2092Z" fill="#005DAA"/>
<path d="M17.8926 29.4126C17.6452 29.1962 17.3655 29.0463 17.0612 28.9675C16.7651 28.891 16.4061 28.8518 15.9957 28.8518H14.4463C14.1598 28.8518 13.9457 28.9206 13.8095 29.0573C13.6732 29.1939 13.604 29.4081 13.604 29.6941V33.9982C13.604 34.2 13.6218 34.3618 13.6582 34.4916C13.6997 34.6392 13.789 34.7545 13.9233 34.8342C14.0514 34.9116 14.2308 34.949 14.4705 34.949H16.0198C16.2941 34.949 16.5446 34.9312 16.7646 34.8957C16.9888 34.8592 17.2015 34.7955 17.3965 34.7066C17.5933 34.6169 17.7764 34.4957 17.9427 34.3463C18.1509 34.1549 18.3245 33.9349 18.4584 33.6912C18.591 33.4484 18.6907 33.1728 18.7536 32.873C18.8165 32.576 18.8484 32.243 18.8484 31.8845C18.8479 30.7875 18.5258 29.9556 17.8926 29.4126ZM16.8571 33.5295C16.7801 33.5964 16.6877 33.6502 16.582 33.688C16.4713 33.7272 16.3638 33.7522 16.2613 33.7618C16.1533 33.7718 16.0007 33.7773 15.8075 33.7773H15.0203V30.0208H15.6914C16.0426 30.0208 16.3437 30.059 16.587 30.1342C16.8143 30.2035 17.0102 30.3716 17.1692 30.6349C17.3323 30.9041 17.4152 31.3218 17.4152 31.8772C17.4152 32.6603 17.2279 33.2156 16.8571 33.5295Z" fill="#005DAA"/>
<path d="M23.2862 28.8526H20.4836C20.2969 28.8526 20.1456 28.8804 20.0217 28.9374C19.8891 28.9975 19.7903 29.0955 19.7274 29.2289C19.6691 29.3538 19.6409 29.5064 19.6409 29.6954V34.2118C19.6409 34.4838 19.7074 34.6929 19.8372 34.8332C19.9698 34.9771 20.1429 35.0505 20.3515 35.0505C20.5561 35.0505 20.7278 34.9785 20.8618 34.8359C20.992 34.6951 21.0581 34.4851 21.0581 34.2118V32.3918H22.9022C23.1086 32.3918 23.2703 32.3422 23.3819 32.2433C23.4981 32.1408 23.5568 32.0033 23.5568 31.8338C23.5568 31.6648 23.4994 31.5267 23.3855 31.4238C23.2748 31.3227 23.1122 31.2716 22.9022 31.2716H21.0581V29.9979H23.2867C23.5049 29.9979 23.673 29.9455 23.7864 29.8416C23.9026 29.736 23.9614 29.5952 23.9614 29.4234C23.9614 29.2553 23.9026 29.116 23.786 29.0084C23.6712 28.9046 23.5035 28.8526 23.2862 28.8526Z" fill="#005DAA"/>
</svg>
