<svg width="135" height="130" viewBox="0 0 135 130" fill="none" xmlns="http://www.w3.org/2000/svg">
<g clip-path="url(#clip0_9533_6155)">
<path d="M65.1716 67.3152L81.7938 65.4478L101.83 73.2209C101.83 73.2209 102.449 126.406 101.211 126.096C99.9716 125.786 55.0744 123.299 55.0744 122.361C55.0744 121.424 52.1216 97.1675 52.1216 97.1675L65.1716 67.3152Z" fill="#EBEBEB"/>
<path d="M80.6517 65.5991L80.2938 65.6749L70.2792 67.7836L65.8948 68.7139C65.8948 68.7139 64.8073 74.9366 59.06 93.2876C58.6815 94.4866 58.3029 95.6512 57.9106 96.7814C52.2666 95.0724 43.4358 95.4583 38.2461 91.4201C39.5676 88.9048 45.4043 78.0307 48.4947 73.2276C53.5055 65.4475 57.6903 64.4001 69.4739 64.655C72.5505 64.724 76.0608 65.3166 80.1768 65.5716C80.3351 65.5853 80.4934 65.5922 80.6517 65.5991Z" fill="#EBEBEB"/>
<path d="M60.3674 75.5432C59.9062 80.5737 59.4451 85.6111 58.9839 90.6416C58.9632 90.8414 59.273 90.8414 59.2936 90.6416C59.7548 85.6111 60.2159 80.5737 60.6771 75.5432C60.6977 75.3434 60.388 75.3434 60.3674 75.5432Z" fill="#BEBEBE"/>
<path d="M70.4308 113.864C64.9657 113.678 59.4869 113.492 54.0356 113.065C54.6069 117.868 55.075 121.989 55.075 122.368C55.075 123.298 99.9654 125.793 101.211 126.103C101.59 126.199 101.796 121.355 101.899 114.56C91.403 114.416 80.9134 114.216 70.4308 113.864Z" fill="#009AE0"/>
<path d="M91.8503 115.773C110.551 112.155 134.49 104.982 135.185 122.788C135.873 140.595 112.65 141.511 86.7982 141.442C60.946 141.373 59.5832 141.353 55.1231 146.487C50.9727 151.262 47.1871 155.238 42.2451 150.794L57.4564 126.875C57.4564 126.868 82.4758 117.585 91.8503 115.773Z" fill="#009AE0"/>
<path d="M62.006 125.214C59.2322 126.213 57.4564 126.868 57.4564 126.868L42.2451 150.787C47.1871 155.232 50.9727 151.255 55.1231 146.48C57.3462 143.916 58.7985 142.641 62.9076 142.007C61.7995 136.536 61.6894 130.816 62.006 125.214Z" fill="#969696"/>
<path d="M89.0976 135.116C89.0976 135.116 85.016 132.477 79.606 129.107C78.8627 135.282 78.14 141.456 77.0181 147.569C83.254 149.546 84.5273 151.118 86.4614 154.708C89.4968 160.345 92.367 165.127 98.5754 162.019L89.0976 135.116Z" fill="#F5E2D6"/>
<path d="M80.9134 129.927C73.2872 125.166 62.2745 118.481 56.6236 115.987C38.3564 107.924 15.6152 95.148 10.336 112.252C5.0568 129.355 28.6652 135.888 55.2264 142.111C66.5625 144.764 73.3147 146.342 77.5821 147.755C79.0344 141.877 80.4798 135.978 80.9134 129.927Z" fill="#009AE0"/>
<path d="M79.1788 128.666C70.9124 124.532 62.2812 121.169 53.4022 118.612C53.2095 118.557 53.1269 118.853 53.3197 118.915C62.1711 121.465 70.7816 124.821 79.0205 128.942C79.1994 129.025 79.3577 128.756 79.1788 128.666Z" fill="#607DCF"/>
<path d="M109.911 118.543C99.7929 118.364 89.6613 119.143 79.6879 120.886C76.8315 121.383 73.9889 121.968 71.16 122.623C70.9673 122.671 71.0499 122.968 71.2426 122.926C81.1264 120.638 91.2168 119.295 101.355 118.936C104.205 118.833 107.054 118.812 109.911 118.867C110.11 118.86 110.11 118.543 109.911 118.543Z" fill="#607DCF"/>
<path d="M42.878 113.719C38.9341 112.507 34.9902 111.287 31.0463 110.074C30.8536 110.012 30.771 110.315 30.9637 110.377C34.9076 111.59 38.8515 112.81 42.7954 114.023C42.9881 114.078 43.0707 113.775 42.878 113.719Z" fill="white"/>
<path d="M114.557 102.439C108.713 102.556 95.7387 98.3528 92.9512 97.7326L94.2176 76.3288L86.5569 69.6169L82.0555 65.6752L81.9385 65.5718L81.7939 65.4409C84.3337 65.6821 87.025 65.7924 89.7024 65.9233C98.9668 66.3712 106.648 67.4876 109.291 75.2401C112.533 84.7842 113.779 96.7541 114.557 102.439Z" fill="#EBEBEB"/>
<path d="M68.1178 103.211H60.6292C60.2024 103.211 59.817 102.956 59.6518 102.563L54.1179 89.3668C53.822 88.6639 54.3382 87.8921 55.0953 87.8921H62.5839C63.0107 87.8921 63.3961 88.1471 63.5613 88.5398L69.0951 101.736C69.3911 102.439 68.8818 103.211 68.1178 103.211Z" fill="#A40034"/>
<path d="M62.2192 88.7604C61.469 88.7741 60.7256 88.781 59.9754 88.7948C59.7758 88.7948 59.7758 89.1049 59.9754 89.098C60.7256 89.0843 61.469 89.0774 62.2192 89.0636C62.4188 89.0636 62.4188 88.7535 62.2192 88.7604Z" fill="white"/>
<path d="M61.5174 90.6004C60.9599 90.5383 60.3955 90.9036 60.2716 91.4548C60.2647 91.4824 60.2716 91.51 60.2785 91.5306C60.2647 91.5513 60.2578 91.5789 60.2578 91.6065C60.2578 92.1991 60.7671 92.7021 61.3591 92.7297C61.9372 92.7573 62.3571 92.268 62.3915 91.7167C62.4259 91.1723 62.0818 90.6624 61.5174 90.6004ZM61.3935 92.4265C60.953 92.4265 60.5607 92.0475 60.5607 91.6065C60.5607 91.5927 60.5538 91.5789 60.5538 91.5651C60.5607 91.5513 60.5675 91.5444 60.5675 91.5306C60.7603 90.683 62.0956 90.6899 62.0887 91.6409C62.0818 92.0406 61.8202 92.4265 61.3935 92.4265Z" fill="white"/>
<path d="M66.0601 97.1744C65.1103 94.7212 64.1605 92.2748 63.2037 89.8216C63.1349 89.6424 62.8389 89.7182 62.9078 89.9043L65.7642 97.2571C65.833 97.4432 66.129 97.3605 66.0601 97.1744Z" fill="white"/>
<path d="M62.1161 94.163C62.3403 94.163 62.5221 93.981 62.5221 93.7564C62.5221 93.5319 62.3403 93.3499 62.1161 93.3499C61.8918 93.3499 61.71 93.5319 61.71 93.7564C61.71 93.981 61.8918 94.163 62.1161 94.163Z" fill="white"/>
<path d="M107.647 100.138C104.694 99.4829 101.734 98.8421 98.7954 98.1116C96.9645 97.6568 95.1268 97.2433 93.2684 97.0021L92.0019 104.41C92.0019 104.41 75.07 101.151 72.6197 100.882C72.1585 98.6629 71.1674 95.9064 70.0179 94.1423C68.9235 92.4678 67.4437 91.7511 66.7967 91.5995C65.5027 91.2963 65.9639 93.8874 67.3749 94.5971C67.5745 94.9899 67.2992 98.5802 65.1242 98.1874C64.6011 97.8911 64.078 97.6085 63.548 97.3329C62.9629 96.947 59.7211 96.0925 57.3121 93.8598C56.7821 93.5152 56.1007 92.6056 55.433 92.5505C54.6002 92.4816 54.0358 93.1293 54.2767 93.9287C54.3593 94.2112 56.5205 96.3268 56.7339 96.5473C56.8716 97.4638 56.7545 98.0013 57.1262 98.8214C57.14 99.6621 57.2983 100.455 57.5805 101.192C57.5186 104.693 60.0996 106.843 63.1212 108.193C64.1193 109.027 65.3513 109.944 66.8449 110.97C87.6175 125.201 100.144 128.364 106.725 126.834C111.281 125.772 114.062 112.652 114.089 102.115C114.089 101.943 114.089 101.771 114.089 101.598C111.956 101.095 109.801 100.613 107.647 100.138Z" fill="#F5E2D6"/>
<path d="M94.8583 106.368C94.1356 105.816 93.4129 105.272 92.6833 104.721C92.525 104.604 92.3736 104.865 92.5319 104.983C93.2546 105.534 93.9773 106.078 94.7069 106.629C94.8652 106.754 95.0166 106.485 94.8583 106.368Z" fill="#BEBEBE"/>
<path d="M60.6986 99.4002C59.7901 98.8283 58.8746 98.2563 57.9661 97.6844C57.8009 97.581 57.6426 97.8428 57.8147 97.9462C58.7232 98.5182 59.6386 99.0901 60.5472 99.6621C60.7124 99.7655 60.8638 99.5036 60.6986 99.4002Z" fill="#BEBEBE"/>
<path d="M59.8929 101.034C59.0738 100.717 58.3924 100.158 57.9175 99.4211C57.8142 99.2557 57.5458 99.4073 57.6559 99.5727C58.179 100.379 58.9155 100.978 59.8172 101.323C59.9892 101.399 60.0718 101.103 59.8929 101.034Z" fill="#BEBEBE"/>
<path d="M59.5836 103.301C59.0812 102.881 58.5787 102.46 58.0831 102.047C57.9317 101.923 57.7183 102.136 57.8698 102.26C58.3722 102.681 58.8747 103.101 59.3702 103.515C59.5148 103.645 59.735 103.432 59.5836 103.301Z" fill="#BEBEBE"/>
<path d="M66.2666 110.53C62.8251 109.186 59.9206 106.753 57.9796 103.611C57.8763 103.446 57.6148 103.597 57.718 103.763C59.7003 106.981 62.6737 109.448 66.184 110.826C66.3699 110.895 66.4524 110.599 66.2666 110.53Z" fill="#BEBEBE"/>
<path d="M93.991 85.1703C93.578 88.9467 93.1581 92.723 92.7451 96.4993C92.7245 96.6923 93.0274 96.6923 93.048 96.4993C93.461 92.723 93.8808 88.9467 94.2938 85.1703C94.3213 84.9774 94.0116 84.9774 93.991 85.1703Z" fill="#BEBEBE"/>
<path d="M89.7022 65.9232C88.9314 67.3635 87.8576 68.6314 86.5636 69.6169C85.132 70.7126 83.4319 71.4706 81.546 71.7738C77.8912 72.3457 73.7614 70.8021 72.0544 67.7838C71.5382 66.8673 71.2423 65.8199 71.2491 64.6553C74.3189 64.9447 77.8361 65.3168 81.9521 65.5718L81.8075 65.4409C84.3336 65.6889 87.0248 65.7923 89.7022 65.9232Z" fill="#F5E2D6"/>
<path d="M88.9101 66.5711L74.0568 69.6858L72.1296 65.7855L69.6517 60.7825L65.3774 52.1411L76.0047 47.4138C76.4865 48.4888 88.9101 66.5711 88.9101 66.5711Z" fill="#F5E2D6"/>
<path d="M72.1296 65.7784L72.2328 65.9851C74.043 64.028 75.0755 61.4645 75.3439 58.6599C75.7087 54.9387 74.5042 51.8652 73.2308 48.6333L65.3774 52.1271L69.6517 60.7685L72.1296 65.7784Z" fill="#CDB09D"/>
<path d="M75.1242 38.3656C70.7604 34.61 57.7173 39.9023 58.9287 45.4497C59.8372 49.6119 62.4114 61.0856 64.9512 62.7188C70.0446 65.992 75.8193 61.7678 77.4093 56.7304C79.013 51.6517 79.4466 42.0868 75.1242 38.3656Z" fill="#F5E2D6"/>
<path d="M76.6244 40.1711C76.8721 39.5923 76.9341 38.9032 76.7138 38.1245C76.2045 36.3328 74.587 35.7608 73.2311 36.1674C72.3982 35.2164 70.8702 34.8168 69.6313 35.0786C69.06 35.2027 68.5438 35.4645 68.0964 35.8229C67.7798 35.6506 67.415 35.5472 67.0296 35.5403C66.2036 35.5196 65.5566 35.94 65.0748 36.5809C65.0679 36.5878 65.0679 36.5947 65.0611 36.6015C63.8428 36.6222 62.6727 37.1184 62.1152 38.2761C62.0326 38.4484 61.9844 38.6206 61.9431 38.7998C59.6649 38.0487 56.9323 37.966 56.5675 40.6191C56.4849 41.2048 56.5675 41.6941 56.7534 42.0869C56.4436 42.583 56.2647 43.1894 56.2509 43.8992C56.2234 44.9673 57.4899 45.6978 58.3984 45.1327C58.598 45.0087 58.7976 44.8846 59.0041 44.7606C59.2588 45.0845 59.6098 45.367 60.0641 45.56C61.9638 46.3869 63.4436 45.2843 64.0011 43.7132C65.5635 43.8165 67.1053 43.217 68.2134 42.1075C68.5851 42.8104 69.3216 43.3066 70.3127 43.3135C70.8083 43.3204 71.2626 43.2032 71.6549 43.0034C72.5359 44.3127 73.9538 45.6702 75.8259 45.2361C76.7276 45.0294 77.6568 48.5094 78.524 48.4473C78.5103 45.4153 77.9596 42.3832 76.6244 40.1711Z" fill="#474D55"/>
<path d="M72.1503 56.4685C71.9369 57.3298 71.3381 58.0327 70.5122 58.3566C70.2713 58.4531 70.3745 58.8459 70.6223 58.7494C71.579 58.3704 72.2949 57.5779 72.5426 56.5718C72.6046 56.3237 72.2123 56.2135 72.1503 56.4685Z" fill="#CDB09D"/>
<path d="M81.5805 44.5264C80.314 42.9415 77.1754 42.907 75.7231 45.2706C76.3908 47.3793 76.9965 49.5018 77.5746 51.638C78.8342 51.7896 81.0987 51.0592 82.0348 49.5776C83.1016 47.8893 82.9502 46.2354 81.5805 44.5264Z" fill="#F5E2D6"/>
<path d="M78.8888 46.4694C78.5791 47.2067 78.2624 47.9441 77.9527 48.6814C77.8495 48.9295 78.228 49.0467 78.3382 48.8193C78.3588 48.771 78.3863 48.7228 78.407 48.6745C78.4139 48.6539 78.4139 48.6401 78.4208 48.6194C78.703 47.9441 78.992 47.2756 79.2742 46.6003C79.3706 46.366 78.9852 46.2282 78.8888 46.4694Z" fill="#CDB09D"/>
<path d="M40.008 91.4133C38.2047 99.786 37.9018 101.791 37.9018 101.791C37.9018 101.791 16.0279 103.742 8.44984 109.599C6.45379 110.936 3.52167 115.484 3.68686 117.11C3.72128 117.475 3.71439 118.33 4.58164 118.006C4.9602 119.253 5.50395 119.763 5.88251 119.55C6.77729 120.935 8.48425 120.363 8.55997 119.384C9.13125 120.521 10.5354 121.204 13.1096 116.456C13.2679 116.373 17.3013 115.601 17.8175 115.56C20.0889 116.263 18.141 117.427 16.8401 118.647C16.3101 119.143 16.1862 120.301 16.7575 120.356C19.2767 120.597 23.3376 116.779 24.962 115.312L48.5704 115.505C51.6608 115.532 54.2556 113.182 54.5447 110.102L56.3205 94.8451C50.8968 94.976 45.4249 91.8061 40.008 91.4133Z" fill="#F5E2D6"/>
<path d="M41.24 102.742L38.6314 102.122C38.4249 102.074 38.3423 102.384 38.5419 102.439C39.4092 102.646 40.2764 102.852 41.1506 103.059C41.3571 103.107 41.4465 102.79 41.24 102.742Z" fill="#BEBEBE"/>
<path d="M13.8666 112.941C11.547 113.81 9.75746 115.636 8.94527 117.979C8.87645 118.179 9.19306 118.261 9.26189 118.068C10.0328 115.842 11.7466 114.085 13.956 113.258C14.1419 113.182 14.0593 112.866 13.8666 112.941Z" fill="#BEBEBE"/>
<path d="M12.4284 111.342C9.33104 112.562 6.99773 115.222 6.21308 118.461C6.1649 118.661 6.47463 118.757 6.52281 118.551C7.27993 115.429 9.51688 112.831 12.5109 111.653C12.6968 111.584 12.6211 111.267 12.4284 111.342Z" fill="#BEBEBE"/>
<path d="M9.39981 110.543C7.0665 112.128 5.40772 114.492 4.71942 117.234C4.67124 117.434 4.98098 117.524 5.03604 117.324C5.70368 114.664 7.3074 112.369 9.57188 110.826C9.73019 110.708 9.57188 110.426 9.39981 110.543Z" fill="#BEBEBE"/>
<path d="M121.718 74.7606C118.386 68.2876 115.044 61.8256 111.713 55.3526C111.34 54.6395 110.266 55.2648 110.628 55.9889C113.959 62.4619 117.302 68.9239 120.633 75.3969C121.005 76.0991 122.09 75.4737 121.718 74.7606Z" fill="#A56278" fill-opacity="0.4"/>
<path d="M125.639 70.2623C122.067 64.2281 118.506 58.194 114.933 52.1488C114.528 51.4577 113.443 52.083 113.848 52.7852C117.421 58.8193 120.982 64.8535 124.555 70.8986C124.971 71.5898 126.056 70.9644 125.639 70.2623Z" fill="#A56278" fill-opacity="0.4"/>
<path d="M8.96662 63.12C8.76937 66.6637 8.56117 70.2183 8.36392 73.762C8.32009 74.5629 9.56932 74.5629 9.61315 73.762C9.8104 70.2183 10.0186 66.6637 10.2158 63.12C10.2706 62.3191 9.02141 62.3191 8.96662 63.12Z" fill="#A56278" fill-opacity="0.4"/>
<path d="M126.735 37.26C126.713 37.26 126.691 37.26 126.669 37.26L96.7534 33.7273C96.5124 33.6944 96.3151 33.5189 96.2713 33.2775C96.2274 33.0361 96.337 32.7948 96.5452 32.6851C96.7425 32.5753 116.533 21.7139 119.042 19.9804C119.174 19.8817 119.349 19.8597 119.503 19.9036C119.667 19.9475 119.787 20.0572 119.864 20.2108L127.239 36.4811C127.327 36.6676 127.305 36.8761 127.184 37.0406C127.075 37.1832 126.91 37.26 126.735 37.26ZM98.6054 32.8277L125.814 36.0422L119.119 21.2641C115.733 23.3705 103.054 30.3811 98.6054 32.8277Z" fill="#A56278" fill-opacity="0.4"/>
</g>
<defs>
<clipPath id="clip0_9533_6155">
<rect width="134.407" height="130" fill="white"/>
</clipPath>
</defs>
</svg>
